{"glyphs":{"0":{"ha":743,"x_min":76,"x_max":667,"o":"m 374 688 q 591 597 515 688 q 667 338 667 507 q 590 83 667 172 q 371 -6 514 -6 q 153 83 229 -6 q 76 335 76 171 q 153 597 76 506 q 374 688 229 688 m 371 660 q 174 576 243 660 q 104 338 104 493 q 174 103 104 185 q 374 22 243 22 q 570 103 501 22 q 639 335 639 183 q 569 576 639 492 q 371 660 500 660 z "},"1":{"ha":456,"x_min":21,"x_max":258,"o":"m 258 0 l 231 0 l 231 647 l 28 585 l 21 589 l 21 611 l 253 685 l 258 679 l 258 0 z "},"2":{"ha":610,"x_min":76,"x_max":560,"o":"m 299 683 q 414 644 369 683 q 458 546 458 606 q 417 418 458 490 q 290 243 376 346 l 115 32 l 118 28 l 447 28 l 556 29 l 560 24 l 554 -1 l 440 0 l 132 0 l 79 -1 l 76 1 l 76 24 l 271 261 q 392 427 353 361 q 431 543 431 493 q 395 624 431 592 q 297 656 360 656 q 101 549 185 656 l 96 549 l 90 572 q 185 653 131 624 q 299 683 239 683 z "},"3":{"ha":544,"x_min":54,"x_max":468,"o":"m 246 685 q 376 640 325 685 q 426 521 426 594 q 386 399 426 457 q 279 311 346 342 l 279 307 q 419 234 371 288 q 468 100 468 181 q 432 -24 468 31 q 331 -108 396 -78 q 183 -137 267 -137 q 63 -126 122 -137 l 58 -103 l 63 -99 q 183 -110 122 -110 q 369 -52 299 -110 q 440 100 440 6 q 379 235 440 186 q 204 290 318 285 l 139 290 l 135 294 l 136 317 l 196 317 q 286 343 239 317 q 365 416 333 369 q 397 517 397 463 q 356 617 397 579 q 246 656 314 656 q 65 568 153 656 l 60 568 l 54 593 q 246 685 147 685 z "},"4":{"ha":635,"x_min":44,"x_max":585,"o":"m 579 136 l 481 138 l 433 138 l 433 -128 l 431 -132 l 408 -136 l 406 -132 l 406 138 l 107 138 l 49 136 l 44 142 l 44 165 l 406 682 l 433 682 l 433 165 l 579 165 l 585 160 l 579 136 m 406 628 l 400 628 l 78 165 l 406 165 l 406 628 z "},"5":{"ha":560,"x_min":61,"x_max":485,"o":"m 482 656 l 478 653 l 421 654 l 150 654 l 142 368 l 233 347 q 421 264 361 318 q 481 125 481 210 q 442 -12 481 47 q 332 -105 403 -72 q 168 -137 261 -137 q 67 -128 119 -137 l 61 -104 l 65 -100 q 169 -110 122 -110 q 375 -45 297 -110 q 453 126 453 19 q 397 245 453 199 q 224 319 342 292 l 121 343 l 115 350 l 122 672 l 135 683 l 203 682 l 392 682 l 482 683 l 485 681 l 482 656 z "},"6":{"ha":633,"x_min":83,"x_max":558,"o":"m 343 465 q 501 407 444 465 q 558 242 558 349 q 496 56 558 121 q 315 -8 433 -8 q 144 68 204 -8 q 83 286 83 144 q 192 612 83 472 q 500 822 301 751 l 506 822 l 518 807 l 518 801 q 247 634 349 740 q 119 385 146 528 l 122 382 q 343 465 224 465 m 315 19 q 475 77 419 19 q 531 242 531 135 q 481 387 531 336 q 342 438 431 438 q 114 343 222 438 q 111 286 111 307 q 164 89 111 158 q 315 19 217 19 z "},"7":{"ha":557,"x_min":39,"x_max":515,"o":"m 464 682 l 514 683 l 515 658 l 206 -26 l 157 -146 l 131 -137 l 129 -132 l 485 654 l 125 654 l 44 653 l 39 660 l 43 683 l 133 682 l 464 682 z "},"8":{"ha":632,"x_min":76,"x_max":543,"o":"m 324 818 q 464 769 413 818 q 515 633 515 719 q 469 505 515 553 q 346 426 424 457 l 346 422 q 449 374 408 397 q 516 310 489 350 q 543 210 543 269 q 478 53 543 113 q 304 -6 413 -6 q 138 51 200 -6 q 76 200 76 107 q 271 424 76 350 l 271 428 q 156 504 197 460 q 114 622 114 549 q 172 765 114 713 q 324 818 231 818 m 324 790 q 192 745 242 790 q 142 622 142 700 q 184 512 142 550 q 308 439 226 474 q 438 510 389 465 q 488 635 488 554 q 444 749 488 707 q 324 790 400 790 m 306 411 q 159 331 214 378 q 104 199 104 283 q 158 71 104 119 q 304 22 213 22 q 458 73 400 22 q 515 207 515 124 q 487 301 515 264 q 419 360 458 339 q 306 411 381 381 z "},"9":{"ha":633,"x_min":75,"x_max":550,"o":"m 290 218 q 132 276 189 218 q 75 442 75 335 q 138 627 75 563 q 318 692 200 692 q 490 615 429 692 q 550 397 550 539 q 441 72 550 211 q 133 -139 332 -68 l 128 -139 l 115 -124 l 115 -118 q 386 49 285 -57 q 514 299 488 156 l 511 301 q 290 218 410 218 m 318 664 q 158 606 214 664 q 103 442 103 549 q 153 297 103 347 q 292 246 203 246 q 519 340 411 246 q 522 397 522 376 q 469 594 522 525 q 318 664 417 664 z "}," ":{"ha":250,"x_min":0,"x_max":0,"o":""},"!":{"ha":343,"x_min":132,"x_max":197,"o":"m 186 275 l 164 275 l 158 282 l 169 904 l 174 908 l 193 908 l 197 904 l 186 275 m 160 53 q 188 25 188 53 q 160 -3 188 -3 q 132 25 132 -3 q 160 53 132 53 z "},"\"":{"ha":308,"x_min":65,"x_max":244,"o":"m 93 676 l 69 674 l 65 679 l 82 879 l 106 882 l 110 876 l 93 676 m 228 676 l 204 674 l 200 679 l 217 879 l 240 882 l 244 876 l 228 676 z "},"#":{"ha":667,"x_min":28,"x_max":639,"o":"m 414 340 l 582 340 l 586 336 l 583 313 l 407 313 l 339 44 l 317 44 l 313 50 l 379 313 l 215 313 l 147 44 l 125 44 l 121 50 l 188 313 l 32 313 l 28 317 l 31 340 l 194 340 l 240 519 l 85 519 l 81 524 l 83 547 l 247 547 l 311 799 l 333 799 l 336 792 l 275 547 l 439 547 l 503 799 l 525 799 l 528 792 l 467 547 l 635 547 l 639 543 l 636 519 l 458 519 l 414 340 m 267 519 l 222 340 l 386 340 l 432 519 l 267 519 z "},"$":{"ha":579,"x_min":85,"x_max":474,"o":"m 474 175 q 418 53 474 104 q 276 -4 363 1 l 261 -172 l 240 -172 l 235 -167 l 249 -4 q 85 46 154 0 l 86 72 l 93 74 q 251 22 160 25 l 278 335 q 185 383 219 361 q 126 437 150 404 q 101 515 101 469 q 128 600 101 561 q 201 662 154 639 q 307 685 247 685 l 325 889 l 347 889 l 353 882 l 336 683 q 450 654 394 678 l 444 629 l 436 628 q 333 657 385 653 l 307 354 q 431 278 388 317 q 474 175 474 240 m 129 513 q 167 432 129 463 q 281 367 204 401 l 304 658 q 210 637 250 658 q 150 581 171 615 q 129 513 129 547 m 279 24 q 400 74 354 29 q 446 174 446 118 q 410 258 446 225 q 304 322 374 290 l 279 24 z "},"%":{"ha":1100,"x_min":69,"x_max":1031,"o":"m 869 911 l 196 -125 l 183 -119 l 178 -107 l 851 929 l 865 922 l 869 911 m 261 886 q 400 825 351 886 q 449 650 449 764 q 399 473 449 535 q 258 411 350 411 q 118 472 167 411 q 69 647 69 533 q 119 824 69 763 q 261 886 168 886 m 258 860 q 137 806 179 860 q 94 650 94 751 q 138 492 94 547 q 261 438 181 438 q 381 492 339 438 q 424 647 424 546 q 381 805 424 750 q 258 860 339 860 m 843 471 q 982 410 933 471 q 1031 235 1031 349 q 981 58 1031 119 q 840 -4 932 -4 q 700 57 749 -4 q 651 232 651 118 q 701 409 651 347 q 843 471 750 471 m 840 444 q 719 390 761 444 q 676 235 676 336 q 719 77 676 132 q 843 22 763 22 q 963 76 921 22 q 1006 232 1006 131 q 963 390 1006 335 q 840 444 921 444 z "},"&":{"ha":1092,"x_min":78,"x_max":1164,"o":"m 1164 496 q 1103 405 1138 433 q 1008 372 1068 376 q 836 400 961 372 q 792 183 840 276 q 651 38 743 89 q 433 -14 558 -14 q 247 33 328 -14 q 122 166 167 81 q 78 364 78 251 q 110 531 78 457 q 199 647 143 606 q 321 688 256 688 q 424 656 385 688 q 463 575 463 625 q 436 492 463 532 q 694 719 581 590 q 869 988 808 849 l 875 988 q 886 960 882 975 q 699 682 818 814 q 427 449 579 550 q 111 296 275 349 q 217 91 131 167 q 433 15 303 15 q 637 64 550 15 q 769 201 724 113 q 808 406 814 290 q 694 424 724 424 q 561 317 600 424 l 554 314 l 536 328 q 597 419 563 390 q 692 451 632 447 q 839 426 725 451 q 1006 400 968 400 q 1139 507 1100 400 l 1146 510 l 1164 496 m 322 660 q 213 623 263 660 q 134 519 163 586 q 106 364 106 451 q 107 324 106 336 q 374 450 244 369 q 433 578 440 503 q 401 638 432 615 q 322 660 371 660 z "},"'":{"ha":174,"x_min":65,"x_max":110,"o":"m 93 676 l 69 674 l 65 679 l 82 879 l 106 882 l 110 876 l 93 676 z "},"(":{"ha":390,"x_min":132,"x_max":382,"o":"m 382 900 q 211 692 261 814 q 160 361 161 569 q 211 31 161 153 q 382 -178 261 -92 l 382 -183 l 369 -199 l 364 -199 q 229 -62 279 -137 q 156 114 179 13 q 132 361 133 215 q 156 608 133 507 q 229 785 179 710 q 364 921 279 860 l 369 921 l 382 906 l 382 900 z "},")":{"ha":390,"x_min":8,"x_max":258,"o":"m 8 -178 q 179 31 129 -92 q 231 361 229 153 q 179 692 229 569 q 8 900 129 814 l 8 906 l 21 921 l 26 921 q 161 785 111 860 q 234 608 211 710 q 258 361 257 507 q 234 114 257 215 q 161 -62 211 13 q 26 -199 111 -137 l 21 -199 l 8 -183 l 8 -178 z "},"*":{"ha":506,"x_min":57,"x_max":454,"o":"m 261 833 l 242 831 l 238 838 l 244 989 q 274 993 260 993 l 276 990 l 261 833 m 206 790 l 199 789 l 57 842 q 61 871 57 861 l 65 874 l 210 810 l 206 790 m 440 856 q 454 829 449 846 l 453 826 l 299 792 l 292 810 l 296 815 l 440 856 m 376 628 q 356 607 365 613 l 351 607 l 271 743 l 286 756 l 293 753 l 376 628 m 232 736 l 139 618 q 113 632 125 622 l 111 636 l 217 754 l 233 744 l 232 736 z "},"+":{"ha":667,"x_min":54,"x_max":613,"o":"m 347 389 l 608 389 l 613 385 l 610 361 l 347 361 l 347 99 l 324 96 l 319 100 l 319 361 l 58 361 l 54 365 l 57 389 l 319 389 l 319 651 l 343 654 l 347 650 l 347 389 z "},",":{"ha":319,"x_min":101,"x_max":207,"o":"m 154 57 q 207 -10 207 33 q 115 -139 207 -68 l 101 -124 l 103 -119 q 178 -11 178 -64 q 136 36 178 17 l 136 42 q 154 57 143 51 z "},"-":{"ha":432,"x_min":43,"x_max":389,"o":"m 389 363 l 49 317 l 43 322 l 43 344 l 383 390 l 389 385 l 389 363 z "},".":{"ha":319,"x_min":132,"x_max":188,"o":"m 160 53 q 188 25 188 53 q 160 -3 188 -3 q 132 25 132 -3 q 160 53 132 53 z "},"/":{"ha":404,"x_min":65,"x_max":375,"o":"m 92 -153 l 69 -153 l 65 -147 l 349 938 l 371 938 l 375 931 l 92 -153 z "},":":{"ha":319,"x_min":126,"x_max":182,"o":"m 154 53 q 182 25 182 53 q 154 -3 182 -3 q 126 25 126 -3 q 154 53 126 53 m 154 438 q 182 410 182 438 q 154 382 182 382 q 126 410 126 382 q 154 438 126 438 z "},";":{"ha":319,"x_min":96,"x_max":201,"o":"m 149 57 q 201 -10 201 33 q 110 -139 201 -68 l 96 -124 l 97 -119 q 172 -11 172 -64 q 131 36 172 17 l 131 42 q 149 57 138 51 m 154 438 q 182 410 182 438 q 154 382 182 382 q 126 410 126 382 q 154 438 126 438 z "},"<":{"ha":667,"x_min":56,"x_max":611,"o":"m 56 389 l 56 358 l 597 136 l 603 139 l 611 160 l 92 372 l 92 378 l 606 606 l 610 613 l 600 632 l 60 394 l 56 389 z "},"=":{"ha":667,"x_min":54,"x_max":613,"o":"m 610 461 l 58 461 l 54 465 l 57 489 l 608 489 l 613 485 l 610 461 m 610 261 l 58 261 l 54 265 l 57 289 l 608 289 l 613 285 l 610 261 z "},">":{"ha":667,"x_min":56,"x_max":611,"o":"m 611 389 l 611 358 l 69 136 l 64 139 l 56 160 l 575 372 l 575 378 l 61 606 l 57 613 l 67 632 l 607 394 l 611 389 z "},"?":{"ha":447,"x_min":104,"x_max":433,"o":"m 121 908 q 353 840 272 896 q 433 694 433 785 q 326 517 433 589 l 193 425 l 192 421 l 199 271 l 175 269 l 171 275 l 163 428 l 169 440 l 310 536 q 406 692 406 597 q 328 823 406 774 q 107 881 250 872 l 104 885 l 113 904 l 121 908 m 188 53 q 215 25 215 53 q 188 -3 215 -3 q 160 25 160 -3 q 188 53 160 53 z "},"@":{"ha":1118,"x_min":61,"x_max":1060,"o":"m 613 822 q 849 768 747 822 q 1005 617 950 714 q 1060 394 1060 521 q 953 109 1060 211 q 643 -6 846 7 l 693 376 l 686 376 q 406 -6 557 131 l 390 -6 q 335 67 353 22 q 318 190 318 111 q 355 407 318 308 q 463 567 392 506 q 633 635 535 628 l 639 635 l 729 628 l 747 638 l 754 633 l 690 147 l 679 22 q 942 134 851 39 q 1032 394 1032 229 q 981 604 1032 514 q 835 744 931 694 q 613 794 740 794 q 338 728 457 794 q 154 542 219 661 q 89 269 89 424 q 155 3 89 115 q 342 -169 221 -110 q 625 -229 464 -229 l 626 -235 l 608 -257 q 322 -189 446 -254 q 130 -7 199 -124 q 61 264 61 110 q 130 556 61 429 q 324 753 199 683 q 613 822 449 822 m 401 33 q 463 89 413 33 q 578 243 513 144 q 706 467 643 342 l 710 503 l 719 600 l 636 607 q 483 548 549 606 q 381 397 417 490 q 346 196 346 303 q 356 103 346 139 q 378 50 365 67 q 401 33 392 33 z "},"A":{"ha":769,"x_min":26,"x_max":731,"o":"m 699 0 l 681 60 l 593 296 l 174 296 l 79 60 l 60 0 l 26 0 l 379 885 l 407 885 l 731 0 l 699 0 m 394 838 l 389 838 l 185 324 l 583 324 l 394 838 z "},"B":{"ha":683,"x_min":153,"x_max":621,"o":"m 418 464 q 567 395 514 450 q 621 244 621 340 q 539 61 621 126 q 304 -4 457 -4 q 153 0 224 -4 l 153 885 l 324 888 q 492 834 433 888 q 551 682 551 781 q 418 464 551 517 m 181 858 l 181 476 l 361 472 q 481 542 439 488 q 522 682 522 596 q 471 810 522 763 q 333 858 419 858 l 181 858 m 299 24 q 517 82 440 24 q 593 244 593 140 q 536 385 593 333 q 374 444 479 436 l 181 444 l 181 28 q 299 24 235 24 z "},"C":{"ha":726,"x_min":67,"x_max":682,"o":"m 435 890 q 679 808 574 890 l 669 785 l 660 785 q 435 863 563 863 q 182 753 269 863 q 94 439 94 643 q 178 129 94 238 q 418 21 261 21 q 672 114 557 21 l 682 111 l 679 86 q 419 -7 558 -7 q 158 109 249 -7 q 67 440 67 225 q 162 774 67 657 q 435 890 257 890 z "},"D":{"ha":885,"x_min":153,"x_max":818,"o":"m 432 892 q 718 783 618 892 q 818 471 818 674 q 715 117 818 240 q 418 -7 611 -7 q 153 0 306 -7 l 153 885 l 432 892 m 418 21 q 694 138 597 21 q 790 471 790 254 q 697 763 790 661 q 432 864 604 864 q 181 857 324 864 l 181 28 q 418 21 329 21 z "},"E":{"ha":631,"x_min":153,"x_max":590,"o":"m 585 0 l 153 0 l 153 885 l 581 885 l 585 879 l 579 857 l 181 857 l 181 472 l 511 472 l 515 467 l 510 444 l 181 444 l 181 28 l 586 28 l 590 22 l 585 0 z "},"F":{"ha":571,"x_min":153,"x_max":569,"o":"m 181 458 l 496 458 l 500 453 l 494 431 l 181 431 l 181 0 l 153 0 l 153 885 l 565 885 l 569 879 l 564 857 l 181 857 l 181 458 z "},"G":{"ha":838,"x_min":67,"x_max":726,"o":"m 476 890 q 726 815 600 890 l 718 790 l 708 790 q 476 863 588 863 q 194 751 293 863 q 94 433 94 640 q 181 128 94 235 q 426 21 267 21 q 547 30 492 21 q 689 63 601 39 l 689 328 l 717 331 l 717 42 q 565 5 625 15 q 428 -7 504 -6 q 160 108 254 -7 q 67 435 67 222 q 173 772 67 654 q 476 890 279 890 z "},"H":{"ha":931,"x_min":153,"x_max":778,"o":"m 778 0 l 750 0 l 750 436 l 181 436 l 181 0 l 153 0 l 153 885 l 181 885 l 181 464 l 750 464 l 750 885 l 778 885 l 778 0 z "},"I":{"ha":333,"x_min":153,"x_max":181,"o":"m 153 0 l 153 885 l 181 885 l 181 0 l 153 0 z "},"J":{"ha":372,"x_min":11,"x_max":222,"o":"m 222 160 q 181 -5 222 63 q 43 -136 140 -72 l 28 -121 l 28 -112 q 156 8 117 -54 q 194 157 194 71 l 194 857 l 17 857 l 11 863 l 15 885 l 222 885 l 222 160 z "},"K":{"ha":704,"x_min":153,"x_max":692,"o":"m 153 0 l 153 885 l 181 885 l 181 0 l 153 0 m 258 472 q 692 7 461 228 l 692 1 q 672 -10 688 -3 l 667 -8 q 221 469 413 239 l 221 474 l 567 819 l 626 885 l 669 885 l 258 472 z "},"L":{"ha":553,"x_min":151,"x_max":546,"o":"m 540 0 l 151 0 l 151 885 l 179 885 l 179 28 l 542 28 l 546 22 l 540 0 z "},"M":{"ha":1085,"x_min":106,"x_max":979,"o":"m 950 0 l 922 271 l 861 818 l 854 818 l 557 113 l 522 113 l 231 818 l 224 818 l 164 271 l 135 0 l 106 0 l 203 885 l 235 885 l 290 747 l 536 153 l 542 153 l 801 763 l 853 885 l 885 885 l 979 0 l 950 0 z "},"N":{"ha":931,"x_min":153,"x_max":778,"o":"m 775 0 l 749 0 l 188 826 l 182 826 l 181 276 l 181 0 l 153 0 l 153 264 l 154 885 l 181 885 l 742 58 l 747 58 l 750 883 l 778 886 l 776 244 l 775 0 z "},"O":{"ha":871,"x_min":67,"x_max":804,"o":"m 442 892 q 710 779 617 892 q 804 457 804 667 q 707 113 804 233 q 428 -7 610 -7 q 160 109 254 -7 q 67 440 67 225 q 164 775 67 658 q 442 892 261 892 m 442 864 q 184 754 274 864 q 94 440 94 644 q 181 130 94 239 q 428 21 267 21 q 686 134 596 21 q 776 457 776 247 q 690 758 776 653 q 442 864 603 864 z "},"P":{"ha":672,"x_min":153,"x_max":600,"o":"m 349 888 q 535 823 469 888 q 600 639 600 758 q 524 422 600 497 q 304 346 447 346 l 181 346 l 181 0 l 153 0 l 153 885 l 349 888 m 346 374 q 513 453 454 383 q 572 639 572 524 q 517 799 572 742 q 358 860 461 856 l 181 858 l 181 374 l 346 374 z "},"Q":{"ha":872,"x_min":67,"x_max":1013,"o":"m 503 -1 q 741 -152 610 -93 q 1013 -228 872 -211 l 1013 -236 l 1001 -253 l 994 -253 q 716 -171 853 -235 q 467 -6 579 -107 q 428 -7 454 -7 q 160 109 254 -7 q 67 440 67 225 q 164 775 67 658 q 442 892 261 892 q 710 779 617 892 q 804 457 804 667 q 726 140 804 257 q 503 -1 649 22 m 94 440 q 181 130 94 239 q 428 21 267 21 q 686 134 596 21 q 776 457 776 247 q 690 758 776 653 q 442 864 603 864 q 184 754 274 864 q 94 440 94 644 z "},"R":{"ha":719,"x_min":153,"x_max":647,"o":"m 396 371 q 647 7 504 193 l 647 1 q 631 -10 640 -6 l 622 -7 q 367 365 474 188 l 181 365 l 181 0 l 153 0 l 153 885 l 349 888 q 535 825 469 888 q 600 644 600 763 q 547 472 600 542 q 396 371 494 401 m 378 393 q 522 482 471 417 q 572 644 572 547 q 517 800 572 744 q 358 860 461 856 l 181 858 l 181 393 l 378 393 z "},"S":{"ha":618,"x_min":72,"x_max":542,"o":"m 342 889 q 511 849 425 889 l 506 824 l 496 822 q 339 861 419 861 q 222 833 272 861 q 146 759 172 804 q 119 667 119 714 q 146 583 119 618 q 210 524 172 547 q 317 468 249 501 q 435 403 392 431 q 510 331 479 375 q 542 225 542 288 q 508 110 542 164 q 416 26 475 57 q 283 -6 357 -6 q 172 11 229 -6 q 72 60 115 28 l 74 86 l 81 89 q 176 39 122 56 q 282 22 231 22 q 403 51 350 22 q 485 127 457 81 q 514 225 514 174 q 486 315 514 278 q 419 378 458 353 q 310 436 379 403 q 194 499 236 472 q 122 569 151 526 q 92 671 92 611 q 124 781 92 731 q 213 860 156 831 q 342 889 269 889 z "},"T":{"ha":660,"x_min":39,"x_max":621,"o":"m 615 857 l 344 857 l 344 0 l 317 0 l 317 857 l 43 857 l 39 863 l 44 885 l 617 885 l 621 879 l 615 857 z "},"U":{"ha":850,"x_min":119,"x_max":731,"o":"m 731 318 q 654 80 735 165 q 425 -6 574 -6 q 198 78 276 -6 q 119 318 119 161 l 119 885 l 147 885 l 147 318 q 218 99 146 175 q 425 22 290 22 q 631 99 560 22 q 703 318 703 175 l 703 885 l 731 885 l 731 318 z "},"V":{"ha":747,"x_min":28,"x_max":732,"o":"m 351 0 l 28 885 l 60 885 l 78 825 l 364 47 l 369 47 l 679 825 l 699 885 l 732 885 l 379 0 l 351 0 z "},"W":{"ha":1228,"x_min":32,"x_max":1210,"o":"m 836 0 l 619 608 l 614 608 l 378 0 l 350 0 l 32 885 l 64 885 l 82 825 l 363 47 l 368 47 l 603 654 l 519 885 l 550 885 l 568 825 l 849 47 l 854 47 l 1158 825 l 1178 885 l 1210 885 l 864 0 l 836 0 z "},"X":{"ha":786,"x_min":47,"x_max":722,"o":"m 722 0 l 685 0 l 651 53 l 383 436 l 115 50 l 85 0 l 47 0 l 365 458 l 67 885 l 106 885 l 136 836 l 383 481 l 625 829 l 658 885 l 696 885 l 401 458 l 722 0 z "},"Y":{"ha":688,"x_min":36,"x_max":647,"o":"m 344 0 l 317 0 l 317 342 l 36 885 l 72 885 l 88 849 l 328 385 l 335 385 l 596 849 l 611 885 l 647 885 l 344 340 l 344 0 z "},"Z":{"ha":704,"x_min":44,"x_max":642,"o":"m 82 28 l 542 28 l 636 29 l 642 22 l 638 0 l 94 0 l 44 -1 l 44 24 l 601 857 l 157 857 l 76 856 l 71 863 l 75 886 l 165 885 l 588 885 l 639 886 l 639 861 l 82 28 z "},"[":{"ha":390,"x_min":163,"x_max":371,"o":"m 371 871 l 190 858 l 190 -146 l 371 -158 l 371 -179 l 365 -185 l 163 -171 l 163 883 l 365 897 l 371 892 l 371 871 z "},"\\":{"ha":404,"x_min":29,"x_max":339,"o":"m 313 -153 l 335 -153 l 339 -147 l 56 938 l 33 938 l 29 931 l 313 -153 z "},"]":{"ha":390,"x_min":19,"x_max":228,"o":"m 19 -158 l 200 -146 l 200 858 l 19 871 l 19 892 l 25 897 l 228 883 l 228 -171 l 25 -185 l 19 -179 l 19 -158 z "},"^":{"ha":565,"x_min":35,"x_max":531,"o":"m 528 163 l 507 156 l 294 642 l 289 642 l 61 161 l 54 157 l 35 167 l 272 672 l 278 676 l 308 676 l 531 168 l 528 163 z "},"_":{"ha":632,"x_min":-21,"x_max":653,"o":"m 650 -147 l -17 -147 l -21 -143 l -18 -119 l 649 -119 l 653 -124 l 650 -147 z "},"`":{"ha":542,"x_min":160,"x_max":383,"o":"m 160 914 l 161 907 q 361 719 257 811 l 368 721 l 383 739 q 181 929 288 819 l 174 928 l 160 914 z "},"a":{"ha":686,"x_min":47,"x_max":628,"o":"m 596 0 l 582 49 l 514 224 l 169 224 l 96 49 l 79 0 l 47 0 l 335 682 l 364 682 l 628 0 l 596 0 m 350 640 l 346 640 l 181 250 l 503 250 l 350 640 z "},"b":{"ha":617,"x_min":150,"x_max":540,"o":"m 375 357 q 497 304 453 346 q 540 189 540 263 q 472 47 540 97 q 278 -3 404 -3 q 150 0 190 -3 l 150 682 l 296 683 q 435 642 386 683 q 485 525 485 601 q 375 357 485 400 m 178 657 l 178 368 l 325 365 q 421 417 388 376 q 454 524 454 458 q 413 621 454 585 q 300 657 371 657 l 178 657 m 274 22 q 449 66 388 22 q 511 189 511 110 q 335 340 511 325 l 178 339 l 178 26 q 274 22 224 22 z "},"c":{"ha":649,"x_min":81,"x_max":586,"o":"m 385 686 q 585 625 497 686 l 576 600 l 568 600 q 385 660 486 660 q 180 577 250 660 q 110 339 110 494 q 177 103 110 185 q 371 21 244 21 q 578 92 482 21 l 586 89 l 583 64 q 372 -6 483 -6 q 156 83 231 -6 q 81 339 81 172 q 159 596 81 506 q 385 686 238 686 z "},"d":{"ha":779,"x_min":150,"x_max":699,"o":"m 382 688 q 617 603 535 688 q 699 363 699 519 q 613 90 699 186 q 369 -6 528 -6 q 150 0 253 -6 l 150 682 l 382 688 m 371 21 q 593 109 515 21 q 671 361 671 197 q 596 583 671 506 q 381 660 521 660 l 178 654 l 178 26 q 371 21 272 21 z "},"e":{"ha":572,"x_min":150,"x_max":514,"o":"m 508 0 l 150 0 l 150 682 l 506 682 l 510 676 l 504 654 l 178 656 l 178 367 l 449 367 l 451 361 l 447 339 l 178 339 l 178 26 l 510 26 l 514 22 l 508 0 z "},"f":{"ha":513,"x_min":142,"x_max":488,"o":"m 169 354 l 313 354 l 426 356 l 431 350 l 426 328 l 169 328 l 169 0 l 142 0 l 142 682 l 485 682 l 488 676 l 483 654 l 169 656 l 169 354 z "},"g":{"ha":739,"x_min":81,"x_max":624,"o":"m 418 686 q 624 629 522 686 l 615 604 l 608 604 q 418 660 506 660 q 190 576 269 660 q 110 333 110 492 q 179 101 110 182 q 378 21 249 21 q 589 51 468 21 l 589 254 l 617 257 l 617 32 q 489 3 539 11 q 378 -4 439 -4 q 158 83 235 -4 q 81 335 81 171 q 168 595 81 504 q 418 686 256 686 z "},"h":{"ha":817,"x_min":150,"x_max":667,"o":"m 667 0 l 639 0 l 639 333 l 178 333 l 178 0 l 150 0 l 150 682 l 178 682 l 178 360 l 639 360 l 639 682 l 667 682 l 667 0 z "},"i":{"ha":329,"x_min":150,"x_max":178,"o":"m 150 0 l 150 682 l 178 682 l 178 0 l 150 0 z "},"j":{"ha":363,"x_min":39,"x_max":213,"o":"m 213 124 q 183 -5 213 47 q 83 -106 154 -57 l 67 -90 l 67 -83 q 158 8 131 -40 q 185 122 185 56 l 185 656 l 43 656 l 39 660 l 43 682 l 213 682 l 213 124 z "},"k":{"ha":635,"x_min":150,"x_max":599,"o":"m 150 0 l 150 682 l 178 682 l 178 0 l 150 0 m 246 364 q 599 7 410 176 l 597 1 q 576 -8 594 -1 l 571 -6 q 210 361 367 183 l 210 365 l 490 631 l 539 682 l 579 682 l 246 364 z "},"l":{"ha":507,"x_min":149,"x_max":475,"o":"m 471 0 l 149 0 l 149 682 l 176 682 l 176 26 l 472 26 l 475 22 l 471 0 z "},"m":{"ha":942,"x_min":111,"x_max":831,"o":"m 803 0 l 781 208 l 731 621 l 725 621 l 485 86 l 453 86 l 217 621 l 211 621 l 163 210 l 140 0 l 111 0 l 190 682 l 224 682 l 268 576 l 467 126 l 471 126 l 679 588 l 722 682 l 754 682 l 831 0 l 803 0 z "},"n":{"ha":817,"x_min":150,"x_max":667,"o":"m 664 0 l 636 0 l 183 626 l 179 626 l 178 214 l 178 0 l 150 0 l 150 203 l 151 682 l 179 682 l 632 56 l 638 56 l 639 681 l 667 683 l 665 190 l 664 0 z "},"o":{"ha":768,"x_min":81,"x_max":688,"o":"m 390 688 q 610 601 533 688 q 688 353 688 514 q 607 88 688 181 q 378 -6 526 -6 q 158 84 235 -6 q 81 339 81 174 q 160 597 81 507 q 390 688 240 688 m 389 660 q 181 578 253 660 q 110 340 110 496 q 179 103 110 185 q 378 21 249 21 q 587 106 514 21 q 660 350 660 190 q 590 580 660 500 q 389 660 519 660 z "},"p":{"ha":607,"x_min":150,"x_max":524,"o":"m 315 683 q 469 634 415 683 q 524 492 524 585 q 460 323 524 382 q 278 264 396 264 l 178 264 l 178 0 l 150 0 l 150 682 l 315 683 m 313 290 q 447 351 400 299 q 494 490 494 404 q 450 611 494 568 q 321 658 406 654 l 178 657 l 178 290 l 313 290 z "},"q":{"ha":769,"x_min":81,"x_max":857,"o":"m 444 0 q 637 -114 531 -69 q 857 -171 743 -158 l 857 -178 q 846 -196 850 -192 l 840 -196 q 613 -132 725 -182 q 411 -4 501 -82 q 378 -6 400 -6 q 158 84 235 -6 q 81 339 81 174 q 160 597 81 507 q 390 688 240 688 q 610 601 533 688 q 688 353 688 514 q 625 110 688 201 q 444 0 563 19 m 110 340 q 179 103 110 185 q 378 21 249 21 q 587 106 514 21 q 660 350 660 190 q 590 580 660 500 q 389 660 519 660 q 181 578 253 660 q 110 340 110 496 z "},"r":{"ha":647,"x_min":150,"x_max":563,"o":"m 358 285 q 563 7 446 147 l 563 1 l 543 -8 l 535 -4 q 329 279 417 142 l 178 279 l 178 0 l 150 0 l 150 682 l 315 683 q 469 635 415 683 q 524 496 524 586 q 481 363 524 418 q 358 285 438 308 m 338 304 q 454 372 414 322 q 494 494 494 421 q 450 613 494 571 q 321 658 406 654 l 178 657 l 178 306 l 338 304 z "},"s":{"ha":561,"x_min":85,"x_max":474,"o":"m 308 685 q 450 654 381 685 l 444 629 l 436 628 q 306 658 374 658 q 211 637 251 658 q 150 581 171 615 q 129 513 129 547 q 151 450 129 476 q 203 406 172 424 q 289 363 233 388 q 385 314 349 336 q 448 258 422 292 q 474 175 474 224 q 447 86 474 128 q 370 20 419 44 q 260 -4 321 -4 q 85 46 160 -4 l 86 72 l 93 74 q 260 22 165 22 q 358 44 315 22 q 423 100 400 65 q 446 174 446 135 q 424 241 446 213 q 369 288 401 269 q 281 333 338 307 q 186 382 221 361 q 126 435 151 403 q 101 515 101 468 q 128 600 101 561 q 201 662 154 639 q 308 685 249 685 z "},"t":{"ha":594,"x_min":58,"x_max":538,"o":"m 533 654 l 418 656 l 313 656 l 313 0 l 285 0 l 285 656 l 182 656 l 63 654 l 58 660 l 63 682 l 535 682 l 538 676 l 533 654 z "},"u":{"ha":751,"x_min":125,"x_max":629,"o":"m 629 244 q 565 61 632 126 q 376 -4 499 -4 q 188 60 253 -4 q 125 244 124 125 l 126 344 l 126 682 l 156 682 l 153 246 q 209 80 151 138 q 376 22 267 22 q 544 80 486 22 q 601 246 601 138 l 601 682 l 629 682 l 629 244 z "},"v":{"ha":668,"x_min":49,"x_max":629,"o":"m 313 0 l 49 682 l 81 682 l 96 633 l 326 42 l 331 42 l 581 633 l 597 682 l 629 682 l 342 0 l 313 0 z "},"w":{"ha":1060,"x_min":53,"x_max":1019,"o":"m 710 0 l 535 460 l 531 460 l 340 0 l 311 0 l 53 682 l 85 682 l 99 633 l 325 43 l 329 43 l 519 504 l 451 682 l 482 682 l 497 632 l 722 43 l 728 43 l 972 633 l 989 682 l 1019 682 l 739 0 l 710 0 z "},"x":{"ha":700,"x_min":64,"x_max":622,"o":"m 622 0 l 585 0 l 557 42 l 342 331 l 125 40 l 100 0 l 64 0 l 324 353 l 79 682 l 118 682 l 143 643 l 342 375 l 538 638 l 564 682 l 601 682 l 360 353 l 622 0 z "},"y":{"ha":621,"x_min":56,"x_max":563,"o":"m 314 0 l 286 0 l 286 260 l 56 682 l 90 682 l 103 653 l 297 301 l 303 301 l 514 653 l 528 682 l 563 682 l 314 258 l 314 0 z "},"z":{"ha":632,"x_min":63,"x_max":556,"o":"m 100 26 l 471 26 l 550 28 l 556 22 l 551 0 l 106 0 l 63 -1 l 63 22 l 515 656 l 156 656 l 88 654 l 83 660 l 88 683 l 164 682 l 510 682 l 553 683 l 553 658 l 100 26 z "},"{":{"ha":390,"x_min":75,"x_max":365,"o":"m 310 907 q 361 900 336 907 l 365 896 l 360 872 q 306 879 322 879 q 231 850 256 879 q 207 758 207 821 q 221 618 207 718 q 233 496 233 538 q 142 353 233 389 l 142 350 q 233 207 233 314 q 221 85 233 165 q 207 -56 207 -15 q 231 -147 207 -118 q 306 -176 256 -176 q 360 -169 322 -176 l 365 -193 l 361 -197 q 310 -204 336 -204 q 179 -56 179 -204 q 193 89 179 -11 q 206 207 206 169 q 174 299 206 267 q 75 339 143 331 l 75 364 q 174 404 143 372 q 206 496 206 436 q 193 614 206 533 q 179 758 179 714 q 310 907 179 907 z "},"|":{"ha":444,"x_min":208,"x_max":236,"o":"m 236 -368 l 213 -368 l 208 -362 l 208 1096 l 233 1099 l 236 1096 l 236 -368 z "},"}":{"ha":390,"x_min":25,"x_max":315,"o":"m 81 -204 q 29 -197 54 -204 l 25 -193 l 31 -169 q 85 -176 68 -176 q 159 -147 135 -176 q 183 -56 183 -118 q 169 85 183 -15 q 157 207 157 165 q 249 350 157 314 l 249 353 q 157 496 157 389 q 169 618 157 538 q 183 758 183 718 q 159 850 183 821 q 85 879 135 879 q 31 872 68 879 l 25 896 l 29 900 q 81 907 54 907 q 211 758 211 907 q 197 614 211 714 q 185 496 185 533 q 216 404 185 436 q 315 364 247 372 l 315 339 q 216 299 247 331 q 185 207 185 267 q 197 89 185 169 q 211 -56 211 -11 q 81 -204 211 -204 z "},"~":{"ha":667,"x_min":99,"x_max":568,"o":"m 204 388 q 143 347 190 388 l 117 324 l 108 324 l 99 336 l 99 343 l 188 417 l 196 421 q 325 390 213 418 q 463 358 435 358 q 488 369 474 358 q 521 397 501 379 q 550 422 540 414 l 558 422 l 568 408 l 568 403 l 478 328 l 469 325 q 329 358 438 328 q 204 388 228 388 z "}," ":{"ha":250,"x_min":0,"x_max":0,"o":""},"¡":{"ha":343,"x_min":143,"x_max":208,"o":"m 154 360 l 176 360 l 182 353 l 171 -269 l 167 -274 l 147 -274 l 143 -269 l 154 360 m 181 582 q 153 610 153 582 q 181 638 153 638 q 208 610 208 638 q 181 582 208 582 z "},"¢":{"ha":533,"x_min":71,"x_max":501,"o":"m 499 117 q 315 57 418 57 l 297 57 l 278 -158 l 257 -158 l 251 -153 l 269 61 q 124 163 178 79 q 71 372 71 246 q 101 544 71 471 q 188 658 132 618 q 317 699 243 699 l 324 699 l 342 903 l 364 903 l 369 896 l 353 696 q 496 640 436 685 l 486 617 l 478 617 q 350 668 422 658 l 300 85 l 317 85 q 410 101 363 85 q 493 144 457 117 l 501 142 l 499 117 m 99 372 q 145 183 99 258 q 272 89 192 107 l 321 671 l 317 671 q 158 590 218 671 q 99 372 99 508 z "},"£":{"ha":533,"x_min":44,"x_max":481,"o":"m 476 0 l 50 0 l 44 6 l 49 25 q 121 72 96 31 q 146 181 146 113 l 146 428 l 53 428 l 47 433 l 51 456 l 146 456 l 146 621 q 190 769 146 718 q 318 821 233 821 q 456 794 381 821 l 453 768 l 449 765 q 322 793 392 793 q 174 621 174 793 l 174 456 l 347 456 l 351 450 l 347 428 l 174 428 l 174 181 q 118 31 174 78 l 118 28 l 379 28 l 475 29 l 481 22 l 476 0 z "},"¤":{"ha":606,"x_min":60,"x_max":515,"o":"m 513 715 l 424 626 q 468 510 468 575 q 424 394 468 443 l 515 303 l 514 296 l 500 282 l 493 283 l 403 374 q 288 329 354 329 q 172 374 221 329 l 81 282 l 74 283 l 60 297 l 61 304 l 151 394 q 107 510 107 443 q 151 626 107 575 l 60 718 l 61 725 l 74 738 l 81 738 l 172 646 q 288 690 221 690 q 403 647 350 690 l 493 738 l 500 736 l 514 722 l 513 715 m 288 663 q 180 617 225 663 q 135 510 135 572 q 180 402 135 447 q 288 357 225 357 q 395 402 350 357 q 440 510 440 447 q 395 617 440 572 q 288 663 350 663 z "},"¥":{"ha":603,"x_min":22,"x_max":581,"o":"m 581 204 l 578 181 l 314 181 l 314 0 l 286 0 l 286 181 l 26 181 l 22 185 l 25 208 l 286 208 l 286 260 l 231 361 l 26 361 l 22 365 l 25 389 l 215 389 l 56 682 l 90 682 l 103 653 l 297 301 l 303 301 l 514 653 l 528 682 l 563 682 l 390 389 l 576 389 l 581 385 l 578 361 l 374 361 l 314 258 l 314 208 l 576 208 l 581 204 z "},"¦":{"ha":444,"x_min":208,"x_max":236,"o":"m 236 511 l 213 508 l 208 513 l 208 1096 l 233 1099 l 236 1096 l 236 511 m 236 -368 l 213 -368 l 208 -362 l 208 218 l 232 222 l 236 215 l 236 -368 z "},"§":{"ha":565,"x_min":63,"x_max":489,"o":"m 489 321 q 361 149 489 217 q 419 22 419 86 q 394 -61 419 -22 q 323 -123 368 -100 q 221 -146 278 -146 q 63 -97 131 -146 l 67 -74 l 74 -69 q 221 -118 139 -118 q 345 -76 299 -118 q 392 21 392 -35 q 354 113 392 71 q 244 213 317 156 q 124 323 164 276 q 83 429 83 369 q 211 604 83 532 q 153 728 153 665 q 177 808 153 771 q 244 867 201 846 q 342 889 288 889 q 469 861 403 889 l 463 835 l 454 833 q 339 861 397 861 q 254 842 290 861 q 199 791 218 822 q 181 726 181 760 q 217 640 181 679 q 324 544 253 600 q 447 433 404 482 q 489 321 489 383 m 342 169 q 461 319 461 228 q 424 416 461 374 q 310 518 386 458 q 231 585 247 568 q 142 513 174 554 q 111 428 111 471 q 148 338 111 379 q 258 239 185 296 q 342 169 313 196 z "},"¨":{"ha":542,"x_min":144,"x_max":394,"o":"m 172 854 q 200 826 200 854 q 172 799 200 799 q 144 826 144 799 q 172 854 144 854 m 367 854 q 394 826 394 854 q 367 799 394 799 q 339 826 339 799 q 367 854 339 854 z "},"©":{"ha":947,"x_min":68,"x_max":878,"o":"m 472 831 q 685 778 593 831 q 827 629 776 725 q 878 407 878 533 q 827 185 878 281 q 685 36 776 89 q 472 -17 593 -17 q 260 36 351 -17 q 118 185 168 89 q 68 407 68 281 q 118 629 68 533 q 260 778 168 725 q 472 831 351 831 m 472 803 q 274 753 360 803 q 142 615 189 704 q 96 407 96 525 q 142 199 96 289 q 274 60 189 110 q 472 11 360 11 q 670 60 585 11 q 803 199 756 110 q 850 407 850 289 q 803 615 850 525 q 670 753 756 704 q 472 803 585 803 m 485 646 q 621 606 558 646 l 614 581 l 607 581 q 485 618 557 618 q 351 565 397 618 q 304 410 304 511 q 349 255 304 308 q 478 201 394 201 q 615 246 554 201 l 621 244 l 618 218 q 476 174 546 174 q 328 235 379 174 q 276 410 276 296 q 330 585 276 524 q 485 646 383 646 z "},"ª":{"ha":411,"x_min":56,"x_max":385,"o":"m 207 894 q 290 867 261 894 q 319 792 319 840 q 315 675 319 754 l 311 557 q 343 508 311 508 q 379 521 363 508 l 385 518 l 381 496 q 336 483 363 483 q 283 550 285 483 l 281 550 q 163 482 224 485 q 83 508 111 482 q 56 583 56 535 q 133 671 56 653 l 289 704 l 292 786 q 204 868 292 868 q 78 813 146 868 l 72 814 l 67 835 q 207 894 138 894 m 143 649 q 85 585 85 636 q 106 528 85 549 q 165 507 126 507 q 283 582 226 507 l 288 682 l 143 649 z "},"«":{"ha":506,"x_min":42,"x_max":476,"o":"m 42 317 l 257 550 l 274 538 l 274 529 l 72 310 l 274 90 l 274 82 l 257 69 l 42 301 l 42 317 m 244 317 l 460 550 l 476 538 l 476 529 l 275 310 l 476 90 l 476 82 l 460 69 l 244 301 l 244 317 z "},"¬":{"ha":667,"x_min":49,"x_max":578,"o":"m 578 99 l 554 96 l 550 100 l 550 361 l 53 361 l 49 365 l 51 389 l 569 389 l 578 381 l 578 99 z "},"­":{"ha":432,"x_min":43,"x_max":389,"o":"m 389 363 l 49 317 l 43 322 l 43 344 l 383 390 l 389 385 l 389 363 z "},"®":{"ha":600,"x_min":56,"x_max":546,"o":"m 301 975 q 479 908 413 975 q 546 731 546 842 q 479 552 546 619 q 301 485 413 485 q 123 552 190 485 q 56 731 56 619 q 123 908 56 842 q 301 975 190 975 m 301 511 q 460 572 400 511 q 519 731 519 632 q 460 889 519 829 q 301 949 400 949 q 142 889 203 949 q 82 731 82 829 q 142 572 82 632 q 301 511 203 511 m 386 797 q 329 714 386 738 q 403 613 365 657 l 403 608 q 374 603 404 608 l 369 606 q 299 708 338 647 l 250 708 l 250 690 l 251 607 l 221 607 l 221 874 l 303 874 q 386 797 386 874 m 306 733 q 356 794 356 750 q 296 849 356 846 l 251 847 l 250 736 l 306 733 z "},"¯":{"ha":542,"x_min":68,"x_max":474,"o":"m 471 815 l 72 815 l 68 819 l 71 843 l 469 843 l 474 839 l 471 815 z "},"°":{"ha":408,"x_min":35,"x_max":372,"o":"m 204 892 q 323 843 274 892 q 372 725 372 794 q 323 608 372 656 q 204 560 274 560 q 84 608 133 560 q 35 725 35 656 q 84 843 35 794 q 204 892 133 892 m 204 864 q 105 822 147 864 q 63 725 63 781 q 105 628 63 669 q 204 588 147 588 q 303 628 261 588 q 344 725 344 669 q 303 822 344 781 q 204 864 261 864 z "},"±":{"ha":667,"x_min":54,"x_max":613,"o":"m 347 389 l 608 389 l 613 385 l 610 361 l 347 361 l 347 99 l 324 96 l 319 100 l 319 361 l 58 361 l 54 365 l 57 389 l 319 389 l 319 651 l 343 654 l 347 650 l 347 389 m 610 -90 l 58 -90 l 54 -86 l 57 -62 l 608 -62 l 613 -67 l 610 -90 z "},"²":{"ha":467,"x_min":61,"x_max":433,"o":"m 233 975 q 324 946 289 975 q 358 871 358 917 q 329 783 358 831 q 231 650 300 735 l 100 489 l 103 486 l 346 486 l 431 488 l 433 482 l 429 458 l 339 460 l 104 460 l 64 458 l 61 461 l 61 482 l 210 664 q 302 788 275 744 q 329 867 329 831 q 303 925 329 901 q 231 949 276 949 q 82 869 146 949 l 78 869 l 72 893 q 233 975 139 975 z "},"³":{"ha":407,"x_min":49,"x_max":332,"o":"m 181 976 q 271 947 236 976 q 306 871 306 918 q 279 796 306 832 q 208 740 253 760 l 208 738 q 300 692 268 725 q 332 608 332 658 q 278 499 332 542 q 138 457 224 457 q 54 465 94 457 l 51 488 l 54 490 q 138 483 99 483 q 258 517 213 483 q 304 608 304 551 q 265 690 304 660 q 153 722 226 719 l 107 722 l 104 725 l 106 746 l 146 746 q 204 762 174 746 q 256 806 235 778 q 276 867 276 833 q 249 927 276 904 q 178 950 222 950 q 58 896 118 950 l 54 896 l 49 919 q 181 976 111 976 z "},"´":{"ha":542,"x_min":160,"x_max":383,"o":"m 383 914 l 382 907 q 182 719 286 811 l 175 721 l 160 739 q 363 929 256 819 l 369 928 l 383 914 z "},"µ":{"ha":693,"x_min":125,"x_max":665,"o":"m 660 15 q 597 -4 632 -4 q 521 110 521 -4 l 515 110 q 290 -6 407 -6 q 153 69 192 -6 l 153 -257 l 125 -257 l 125 624 l 153 629 l 153 185 q 190 65 153 107 q 294 22 226 22 q 521 150 408 22 l 521 624 l 549 629 l 549 110 q 599 24 549 24 q 657 44 632 24 l 665 40 l 660 15 z "},"¶":{"ha":621,"x_min":72,"x_max":571,"o":"m 567 857 l 454 857 l 454 169 q 282 -94 454 19 l 268 -79 l 268 -71 q 426 164 426 33 l 426 857 l 328 857 q 159 793 218 851 q 100 632 100 735 q 163 460 100 526 q 346 374 226 394 l 340 346 q 142 439 211 367 q 72 632 72 511 q 141 819 72 753 q 338 885 210 885 l 565 885 l 571 879 l 567 857 z "},"·":{"ha":319,"x_min":132,"x_max":188,"o":"m 160 358 q 188 331 188 358 q 160 303 188 303 q 132 331 132 303 q 160 358 132 358 z "},"¸":{"ha":542,"x_min":186,"x_max":351,"o":"m 306 -104 q 351 -174 351 -133 q 327 -227 351 -207 q 268 -247 303 -247 q 186 -201 217 -247 l 194 -176 l 200 -176 q 229 -209 214 -199 q 268 -219 244 -219 q 308 -208 293 -219 q 324 -174 324 -196 q 316 -149 324 -158 q 290 -128 308 -140 l 229 -89 l 264 15 l 292 15 l 263 -76 l 306 -104 z "},"¹":{"ha":333,"x_min":22,"x_max":192,"o":"m 192 460 l 164 460 l 164 943 l 28 906 l 22 908 l 22 931 l 188 979 l 192 974 l 192 460 z "},"º":{"ha":457,"x_min":54,"x_max":403,"o":"m 232 894 q 358 840 313 894 q 403 692 403 786 q 356 537 403 593 q 225 481 308 481 q 99 535 144 481 q 54 683 54 589 q 101 838 54 782 q 232 894 149 894 m 231 868 q 122 820 161 868 q 83 685 83 772 q 121 553 83 600 q 225 507 158 507 q 334 555 294 507 q 374 690 374 603 q 335 821 374 774 q 231 868 297 868 z "},"»":{"ha":493,"x_min":22,"x_max":457,"o":"m 457 303 l 242 69 l 225 82 l 225 90 l 426 310 l 225 529 l 225 538 l 242 550 l 457 318 l 457 303 m 254 303 l 39 69 l 22 82 l 22 90 l 224 310 l 22 529 l 22 538 l 39 550 l 254 318 l 254 303 z "},"¼":{"ha":911,"x_min":22,"x_max":856,"o":"m 60 -125 l 47 -119 l 42 -107 l 715 929 l 729 922 l 733 911 l 60 -125 m 28 818 l 22 821 l 22 843 l 188 892 l 192 886 l 192 372 l 164 372 l 164 856 l 28 818 m 851 164 l 782 165 l 756 165 l 757 3 l 754 0 l 732 -3 l 729 0 l 729 165 l 535 165 l 492 164 l 488 168 l 488 189 l 729 513 l 756 513 l 756 190 l 851 190 l 856 186 l 851 164 m 729 468 l 725 468 l 518 190 l 729 190 l 729 468 z "},"½":{"ha":913,"x_min":22,"x_max":879,"o":"m 733 911 l 60 -125 l 47 -119 l 42 -107 l 715 929 l 729 922 l 733 911 m 192 372 l 164 372 l 164 856 l 28 818 l 22 821 l 22 843 l 188 892 l 192 886 l 192 372 m 679 515 q 769 486 735 515 q 804 411 804 457 q 775 323 804 371 q 676 190 746 275 l 546 29 l 549 26 l 792 26 l 876 28 l 879 22 l 875 -1 l 785 0 l 550 0 l 510 -1 l 507 1 l 507 22 l 656 204 q 748 328 721 285 q 775 407 775 371 q 749 465 775 442 q 676 489 722 489 q 528 410 592 489 l 524 410 l 518 433 q 679 515 585 515 z "},"¾":{"ha":957,"x_min":49,"x_max":901,"o":"m 106 -125 l 93 -119 l 88 -107 l 761 929 l 775 922 l 779 911 l 106 -125 m 332 521 q 278 412 332 454 q 138 369 224 369 q 54 378 94 369 l 51 400 l 54 403 q 138 396 99 396 q 258 430 213 396 q 304 521 304 464 q 265 602 304 572 q 153 635 226 632 l 107 635 l 104 638 l 106 658 l 146 658 q 204 674 174 658 q 256 718 235 690 q 276 779 276 746 q 249 840 276 817 q 178 863 222 863 q 58 808 119 863 l 54 808 l 49 832 q 181 889 111 889 q 271 860 236 889 q 306 783 306 831 q 279 708 306 744 q 208 653 253 672 l 208 650 q 300 604 268 638 q 332 521 332 571 m 897 164 l 828 165 l 801 165 l 803 3 l 800 0 l 778 -3 l 775 0 l 775 165 l 581 165 l 538 164 l 533 168 l 533 189 l 775 513 l 801 513 l 801 190 l 897 190 l 901 186 l 897 164 m 775 468 l 771 468 l 564 190 l 775 190 l 775 468 z "},"¿":{"ha":447,"x_min":18,"x_max":347,"o":"m 331 -274 q 99 -206 179 -261 q 18 -60 18 -150 q 125 118 18 46 l 258 210 l 260 214 l 253 364 l 276 365 l 281 360 l 289 207 l 282 194 l 142 99 q 46 -57 46 38 q 124 -188 46 -139 q 344 -246 201 -237 l 347 -250 l 339 -269 l 331 -274 m 264 582 q 236 610 236 582 q 264 638 236 638 q 292 610 292 638 q 264 582 292 582 z "},"À":{"ha":769,"x_min":26,"x_max":731,"o":"m 497 1008 q 256 1138 349 1085 l 253 1144 l 263 1161 l 269 1164 q 514 1033 388 1094 l 504 1013 l 497 1008 m 699 0 l 681 60 l 593 296 l 174 296 l 79 60 l 60 0 l 26 0 l 379 885 l 407 885 l 731 0 l 699 0 m 394 838 l 389 838 l 185 324 l 583 324 l 394 838 z "},"Á":{"ha":769,"x_min":26,"x_max":731,"o":"m 699 0 l 681 60 l 593 296 l 174 296 l 79 60 l 60 0 l 26 0 l 379 885 l 407 885 l 731 0 l 699 0 m 394 838 l 389 838 l 185 324 l 583 324 l 394 838 m 560 1142 l 557 1135 q 315 1006 464 1082 l 308 1010 l 299 1031 q 543 1161 425 1092 l 550 1158 l 560 1142 z "},"Â":{"ha":769,"x_min":26,"x_max":731,"o":"m 236 1044 q 372 1150 301 1090 l 394 1150 q 533 1044 486 1078 l 524 1025 l 517 1025 q 385 1122 453 1069 q 253 1025 317 1069 l 246 1025 l 236 1044 m 699 0 l 681 60 l 593 296 l 174 296 l 79 60 l 60 0 l 26 0 l 379 885 l 407 885 l 731 0 l 699 0 m 394 838 l 389 838 l 185 324 l 583 324 l 394 838 z "},"Ã":{"ha":769,"x_min":26,"x_max":731,"o":"m 699 0 l 681 60 l 593 296 l 174 296 l 79 60 l 60 0 l 26 0 l 379 885 l 407 885 l 731 0 l 699 0 m 394 838 l 389 838 l 185 324 l 583 324 l 394 838 m 578 1113 l 506 1047 l 497 1044 q 385 1072 469 1047 q 281 1097 296 1097 q 239 1067 269 1097 l 210 1040 l 204 1040 l 192 1056 l 192 1061 l 264 1126 l 272 1129 q 385 1101 300 1126 q 489 1076 474 1076 q 531 1107 500 1076 l 560 1133 l 565 1133 l 578 1118 l 578 1113 z "},"Ä":{"ha":769,"x_min":26,"x_max":731,"o":"m 288 1056 q 260 1083 260 1056 q 288 1111 260 1111 q 315 1083 315 1111 q 288 1056 315 1056 m 482 1056 q 454 1083 454 1056 q 482 1111 454 1111 q 510 1083 510 1111 q 482 1056 510 1056 m 699 0 l 681 60 l 593 296 l 174 296 l 79 60 l 60 0 l 26 0 l 379 885 l 407 885 l 731 0 l 699 0 m 394 838 l 389 838 l 185 324 l 583 324 l 394 838 z "},"Å":{"ha":769,"x_min":26,"x_max":731,"o":"m 699 0 l 681 60 l 593 296 l 174 296 l 79 60 l 60 0 l 26 0 l 379 885 l 407 885 l 731 0 l 699 0 m 394 838 l 389 838 l 185 324 l 583 324 l 394 838 m 382 1185 q 454 1156 428 1185 q 481 1088 481 1126 q 451 1018 481 1044 q 382 992 421 992 q 314 1019 343 992 q 285 1089 285 1046 q 312 1158 285 1131 q 382 1185 339 1185 m 382 1157 q 331 1138 350 1157 q 313 1089 313 1119 q 333 1038 313 1057 q 382 1019 353 1019 q 432 1038 411 1019 q 453 1088 453 1056 q 434 1137 453 1117 q 382 1157 415 1157 z "},"Æ":{"ha":1099,"x_min":-21,"x_max":1064,"o":"m 1058 0 l 636 0 l 629 60 l 571 403 l 208 343 l 46 60 l 17 0 l -21 0 l 490 885 l 908 885 l 913 879 l 906 857 l 524 857 l 594 435 l 922 489 l 926 485 l 922 461 l 599 408 l 663 28 l 1061 28 l 1064 22 l 1058 0 m 497 836 l 493 836 l 228 375 l 567 431 l 497 836 z "},"Ç":{"ha":726,"x_min":67,"x_max":682,"o":"m 679 86 q 440 -7 569 1 l 418 -76 l 461 -104 q 507 -174 507 -133 q 483 -227 507 -207 q 424 -247 458 -247 q 342 -201 372 -247 l 350 -176 l 356 -176 q 385 -209 369 -199 q 424 -219 400 -219 q 464 -208 449 -219 q 479 -174 479 -196 q 472 -149 479 -158 q 446 -128 464 -140 l 385 -89 l 413 -7 q 156 111 244 -4 q 67 440 67 226 q 162 774 67 657 q 435 890 257 890 q 679 808 574 890 l 669 785 l 660 785 q 435 863 563 863 q 182 753 269 863 q 94 439 94 643 q 178 129 94 238 q 418 21 261 21 q 672 114 557 21 l 682 111 l 679 86 z "},"È":{"ha":631,"x_min":153,"x_max":590,"o":"m 482 1008 q 240 1138 333 1085 l 238 1144 l 247 1161 l 254 1164 q 499 1033 372 1094 l 489 1013 l 482 1008 m 585 0 l 153 0 l 153 885 l 581 885 l 585 879 l 579 857 l 181 857 l 181 472 l 511 472 l 515 467 l 510 444 l 181 444 l 181 28 l 586 28 l 590 22 l 585 0 z "},"É":{"ha":631,"x_min":153,"x_max":590,"o":"m 585 0 l 153 0 l 153 885 l 581 885 l 585 879 l 579 857 l 181 857 l 181 472 l 511 472 l 515 467 l 510 444 l 181 444 l 181 28 l 586 28 l 590 22 l 585 0 m 544 1142 l 542 1135 q 300 1006 449 1082 l 293 1010 l 283 1031 q 528 1161 410 1092 l 535 1158 l 544 1142 z "},"Ê":{"ha":631,"x_min":153,"x_max":590,"o":"m 221 1044 q 357 1150 286 1090 l 379 1150 q 518 1044 471 1078 l 508 1025 l 501 1025 q 369 1122 438 1069 q 238 1025 301 1069 l 231 1025 l 221 1044 m 585 0 l 153 0 l 153 885 l 581 885 l 585 879 l 579 857 l 181 857 l 181 472 l 511 472 l 515 467 l 510 444 l 181 444 l 181 28 l 586 28 l 590 22 l 585 0 z "},"Ë":{"ha":631,"x_min":153,"x_max":590,"o":"m 272 1056 q 244 1083 244 1056 q 272 1111 244 1111 q 300 1083 300 1111 q 272 1056 300 1056 m 467 1056 q 439 1083 439 1056 q 467 1111 439 1111 q 494 1083 494 1111 q 467 1056 494 1056 m 585 0 l 153 0 l 153 885 l 581 885 l 585 879 l 579 857 l 181 857 l 181 472 l 511 472 l 515 467 l 510 444 l 181 444 l 181 28 l 586 28 l 590 22 l 585 0 z "},"Ì":{"ha":333,"x_min":35,"x_max":296,"o":"m 51 1164 q 296 1033 169 1094 l 286 1013 l 279 1008 q 38 1138 131 1085 l 35 1144 l 44 1161 l 51 1164 m 153 0 l 153 885 l 181 885 l 181 0 l 153 0 z "},"Í":{"ha":333,"x_min":81,"x_max":342,"o":"m 153 0 l 153 885 l 181 885 l 181 0 l 153 0 m 342 1142 l 339 1135 q 97 1006 246 1082 l 90 1010 l 81 1031 q 325 1161 207 1092 l 332 1158 l 342 1142 z "},"Î":{"ha":333,"x_min":18,"x_max":315,"o":"m 18 1044 q 154 1150 83 1090 l 176 1150 q 315 1044 268 1078 l 306 1025 l 299 1025 q 167 1122 235 1069 q 35 1025 99 1069 l 28 1025 l 18 1044 m 153 0 l 153 885 l 181 885 l 181 0 l 153 0 z "},"Ï":{"ha":333,"x_min":69,"x_max":264,"o":"m 97 1111 q 125 1083 125 1111 q 97 1056 125 1056 q 69 1083 69 1056 q 97 1111 69 1111 m 236 1111 q 264 1083 264 1111 q 236 1056 264 1056 q 208 1083 208 1056 q 236 1111 208 1111 m 153 0 l 153 885 l 181 885 l 181 0 l 153 0 z "},"Ð":{"ha":908,"x_min":11,"x_max":842,"o":"m 456 892 q 742 783 642 892 q 842 471 842 674 q 738 117 842 240 q 442 -7 635 -7 q 176 0 329 -7 l 176 443 l 14 443 l 11 447 l 13 471 l 176 471 l 176 885 l 456 892 m 442 21 q 717 138 621 21 q 814 471 814 254 q 721 763 814 661 q 456 864 628 864 q 204 857 347 864 l 204 471 l 443 471 l 446 467 l 444 443 l 204 443 l 204 28 q 442 21 353 21 z "},"Ñ":{"ha":931,"x_min":153,"x_max":778,"o":"m 775 0 l 749 0 l 188 826 l 182 826 l 181 276 l 181 0 l 153 0 l 153 264 l 154 885 l 181 885 l 742 58 l 747 58 l 750 883 l 778 886 l 776 244 l 775 0 m 653 1113 l 581 1047 l 572 1044 q 460 1072 544 1047 q 356 1097 371 1097 q 314 1067 344 1097 l 285 1040 l 279 1040 l 267 1056 l 267 1061 l 339 1126 l 347 1129 q 460 1101 375 1126 q 564 1076 549 1076 q 606 1107 575 1076 l 635 1133 l 640 1133 l 653 1118 l 653 1113 z "},"Ò":{"ha":871,"x_min":67,"x_max":804,"o":"m 442 892 q 710 779 617 892 q 804 457 804 667 q 707 113 804 233 q 428 -7 610 -7 q 160 109 254 -7 q 67 440 67 225 q 164 775 67 658 q 442 892 261 892 m 442 864 q 184 754 274 864 q 94 440 94 644 q 181 130 94 239 q 428 21 267 21 q 686 134 596 21 q 776 457 776 247 q 690 758 776 653 q 442 864 603 864 m 304 1144 l 307 1138 q 549 1008 400 1085 l 556 1013 l 565 1033 q 321 1164 439 1094 l 314 1161 l 304 1144 z "},"Ó":{"ha":871,"x_min":67,"x_max":804,"o":"m 442 892 q 710 779 617 892 q 804 457 804 667 q 707 113 804 233 q 428 -7 610 -7 q 160 109 254 -7 q 67 440 67 225 q 164 775 67 658 q 442 892 261 892 m 442 864 q 184 754 274 864 q 94 440 94 644 q 181 130 94 239 q 428 21 267 21 q 686 134 596 21 q 776 457 776 247 q 690 758 776 653 q 442 864 603 864 m 611 1142 l 608 1135 q 367 1006 515 1082 l 360 1010 l 350 1031 q 594 1161 476 1092 l 601 1158 l 611 1142 z "},"Ô":{"ha":871,"x_min":67,"x_max":804,"o":"m 442 892 q 710 779 617 892 q 804 457 804 667 q 707 113 804 233 q 428 -7 610 -7 q 160 109 254 -7 q 67 440 67 225 q 164 775 67 658 q 442 892 261 892 m 442 864 q 184 754 274 864 q 94 440 94 644 q 181 130 94 239 q 428 21 267 21 q 686 134 596 21 q 776 457 776 247 q 690 758 776 653 q 442 864 603 864 m 288 1044 q 424 1150 353 1090 l 446 1150 q 585 1044 538 1078 l 575 1025 l 568 1025 q 436 1122 504 1069 q 304 1025 368 1069 l 297 1025 l 288 1044 z "},"Õ":{"ha":871,"x_min":67,"x_max":804,"o":"m 442 892 q 710 779 617 892 q 804 457 804 667 q 707 113 804 233 q 428 -7 610 -7 q 160 109 254 -7 q 67 440 67 225 q 164 775 67 658 q 442 892 261 892 m 442 864 q 184 754 274 864 q 94 440 94 644 q 181 130 94 239 q 428 21 267 21 q 686 134 596 21 q 776 457 776 247 q 690 758 776 653 q 442 864 603 864 m 629 1113 l 557 1047 l 549 1044 q 436 1072 521 1047 q 332 1097 347 1097 q 290 1067 321 1097 l 261 1040 l 256 1040 l 243 1056 l 243 1061 l 315 1126 l 324 1129 q 436 1101 351 1126 q 540 1076 525 1076 q 582 1107 551 1076 l 611 1133 l 617 1133 l 629 1118 l 629 1113 z "},"Ö":{"ha":871,"x_min":67,"x_max":804,"o":"m 442 892 q 710 779 617 892 q 804 457 804 667 q 707 113 804 233 q 428 -7 610 -7 q 160 109 254 -7 q 67 440 67 225 q 164 775 67 658 q 442 892 261 892 m 442 864 q 184 754 274 864 q 94 440 94 644 q 181 130 94 239 q 428 21 267 21 q 686 134 596 21 q 776 457 776 247 q 690 758 776 653 q 442 864 603 864 m 533 1111 q 561 1083 561 1111 q 533 1056 561 1056 q 506 1083 506 1056 q 533 1111 506 1111 z "},"×":{"ha":667,"x_min":129,"x_max":538,"o":"m 538 560 l 353 375 l 538 190 l 538 185 l 519 169 l 333 356 l 147 169 l 129 185 l 129 190 l 314 375 l 129 560 l 129 565 l 147 581 l 333 394 l 519 581 l 538 565 l 538 560 z "},"Ø":{"ha":871,"x_min":67,"x_max":804,"o":"m 629 847 q 804 457 804 747 q 707 113 804 233 q 428 -7 610 -7 q 253 32 328 -7 l 182 -121 l 160 -117 l 157 -111 l 229 46 q 67 440 67 153 q 164 775 67 658 q 442 892 261 892 q 604 860 533 892 l 663 985 l 685 981 l 688 974 l 629 847 m 94 440 q 242 72 94 172 l 593 833 q 442 864 531 864 q 184 754 274 864 q 94 440 94 644 m 428 21 q 686 134 596 21 q 776 457 776 247 q 617 821 776 728 l 265 58 q 428 21 335 21 z "},"Ù":{"ha":850,"x_min":119,"x_max":731,"o":"m 731 318 q 654 80 735 165 q 425 -6 574 -6 q 198 78 276 -6 q 119 318 119 161 l 119 885 l 147 885 l 147 318 q 218 99 146 175 q 425 22 290 22 q 631 99 560 22 q 703 318 703 175 l 703 885 l 731 885 l 731 318 m 299 1144 l 301 1138 q 543 1008 394 1085 l 550 1013 l 560 1033 q 315 1164 433 1094 l 308 1161 l 299 1144 z "},"Ú":{"ha":850,"x_min":119,"x_max":731,"o":"m 731 318 q 654 80 735 165 q 425 -6 574 -6 q 198 78 276 -6 q 119 318 119 161 l 119 885 l 147 885 l 147 318 q 218 99 146 175 q 425 22 290 22 q 631 99 560 22 q 703 318 703 175 l 703 885 l 731 885 l 731 318 m 606 1142 l 603 1135 q 361 1006 510 1082 l 354 1010 l 344 1031 q 589 1161 471 1092 l 596 1158 l 606 1142 z "},"Û":{"ha":850,"x_min":119,"x_max":731,"o":"m 731 318 q 654 80 735 165 q 425 -6 574 -6 q 198 78 276 -6 q 119 318 119 161 l 119 885 l 147 885 l 147 318 q 218 99 146 175 q 425 22 290 22 q 631 99 560 22 q 703 318 703 175 l 703 885 l 731 885 l 731 318 m 282 1044 q 418 1150 347 1090 l 440 1150 q 579 1044 532 1078 l 569 1025 l 563 1025 q 431 1122 499 1069 q 299 1025 363 1069 l 292 1025 l 282 1044 z "},"Ü":{"ha":850,"x_min":119,"x_max":731,"o":"m 731 318 q 654 80 735 165 q 425 -6 574 -6 q 198 78 276 -6 q 119 318 119 161 l 119 885 l 147 885 l 147 318 q 218 99 146 175 q 425 22 290 22 q 631 99 560 22 q 703 318 703 175 l 703 885 l 731 885 l 731 318 m 528 1111 q 556 1083 556 1111 q 528 1056 556 1056 q 500 1083 500 1056 q 528 1111 500 1111 z "},"Ý":{"ha":688,"x_min":36,"x_max":647,"o":"m 344 0 l 317 0 l 317 342 l 36 885 l 72 885 l 88 849 l 328 385 l 335 385 l 596 849 l 611 885 l 647 885 l 344 340 l 344 0 m 507 1142 l 504 1135 q 263 1006 411 1082 l 256 1010 l 246 1031 q 490 1161 372 1092 l 497 1158 l 507 1142 z "},"Þ":{"ha":676,"x_min":153,"x_max":600,"o":"m 349 717 q 535 652 469 717 q 600 468 600 588 q 524 251 600 326 q 304 175 447 175 l 181 175 l 181 0 l 153 0 l 153 885 l 181 885 l 181 714 l 349 717 m 346 203 q 514 285 456 217 q 572 468 572 353 q 517 628 572 571 q 358 689 461 685 l 181 688 l 181 203 l 346 203 z "},"ß":{"ha":731,"x_min":124,"x_max":656,"o":"m 374 685 q 604 626 478 685 l 608 614 l 390 369 q 656 176 656 339 q 598 47 656 97 q 453 -4 540 -4 q 358 9 407 -4 q 271 46 308 22 l 275 72 l 281 74 q 363 35 315 49 q 451 22 410 22 q 578 67 529 22 q 628 176 628 111 q 356 347 628 321 l 351 364 l 571 611 q 374 658 471 658 q 213 605 274 658 q 151 463 151 551 l 151 0 l 124 0 l 124 463 q 193 624 124 563 q 374 685 263 685 z "},"à":{"ha":686,"x_min":47,"x_max":628,"o":"m 439 774 q 239 961 335 865 l 238 968 l 251 982 l 258 983 q 461 793 365 874 l 446 775 l 439 774 m 596 0 l 582 49 l 514 224 l 169 224 l 96 49 l 79 0 l 47 0 l 335 682 l 364 682 l 628 0 l 596 0 m 350 640 l 346 640 l 181 250 l 503 250 l 350 640 z "},"á":{"ha":686,"x_min":47,"x_max":628,"o":"m 596 0 l 582 49 l 514 224 l 169 224 l 96 49 l 79 0 l 47 0 l 335 682 l 364 682 l 628 0 l 596 0 m 350 640 l 346 640 l 181 250 l 503 250 l 350 640 m 504 968 l 503 961 q 303 774 407 865 l 296 775 l 281 793 q 483 983 376 874 l 490 982 l 504 968 z "},"â":{"ha":686,"x_min":47,"x_max":628,"o":"m 196 793 q 336 968 249 853 l 361 968 q 501 793 449 853 l 489 776 l 482 776 q 349 939 415 850 q 215 776 282 850 l 208 776 l 196 793 m 596 0 l 582 49 l 514 224 l 169 224 l 96 49 l 79 0 l 47 0 l 335 682 l 364 682 l 628 0 l 596 0 m 350 640 l 346 640 l 181 250 l 503 250 l 350 640 z "},"ã":{"ha":686,"x_min":47,"x_max":628,"o":"m 596 0 l 582 49 l 514 224 l 169 224 l 96 49 l 79 0 l 47 0 l 335 682 l 364 682 l 628 0 l 596 0 m 350 640 l 346 640 l 181 250 l 503 250 l 350 640 m 542 910 l 469 844 l 461 842 q 349 869 433 844 q 244 894 260 894 q 203 864 233 894 l 174 838 l 168 838 l 156 853 l 156 858 l 228 924 l 236 926 q 349 899 264 924 q 453 874 438 874 q 494 904 464 874 l 524 931 l 529 931 l 542 915 l 542 910 z "},"ä":{"ha":686,"x_min":47,"x_max":628,"o":"m 251 853 q 224 881 224 853 q 251 908 224 908 q 279 881 279 908 q 251 853 279 853 m 446 853 q 418 881 418 853 q 446 908 418 908 q 474 881 474 908 q 446 853 474 853 m 596 0 l 582 49 l 514 224 l 169 224 l 96 49 l 79 0 l 47 0 l 335 682 l 364 682 l 628 0 l 596 0 m 350 640 l 346 640 l 181 250 l 503 250 l 350 640 z "},"å":{"ha":686,"x_min":47,"x_max":628,"o":"m 596 0 l 582 49 l 514 224 l 169 224 l 96 49 l 79 0 l 47 0 l 335 682 l 364 682 l 628 0 l 596 0 m 350 640 l 346 640 l 181 250 l 503 250 l 350 640 m 346 982 q 418 953 392 982 q 444 885 444 924 q 415 815 444 842 q 346 789 385 789 q 278 816 307 789 q 249 886 249 843 q 276 955 249 928 q 346 982 303 982 m 346 954 q 295 935 314 954 q 276 886 276 917 q 297 835 276 854 q 346 817 317 817 q 396 835 375 817 q 417 885 417 853 q 398 934 417 914 q 346 954 379 954 z "},"æ":{"ha":956,"x_min":10,"x_max":901,"o":"m 897 0 l 547 0 l 540 49 l 494 307 l 197 258 l 69 49 l 46 0 l 10 0 l 426 682 l 775 682 l 779 676 l 774 654 l 463 656 l 518 338 l 785 379 l 789 376 l 786 353 l 522 313 l 572 26 l 899 26 l 901 22 l 897 0 m 435 639 l 431 639 l 217 289 l 489 333 l 435 639 z "},"ç":{"ha":649,"x_min":81,"x_max":586,"o":"m 583 64 q 383 -6 488 -1 l 361 -76 l 404 -104 q 450 -174 450 -133 q 426 -227 450 -207 q 367 -247 401 -247 q 285 -201 315 -247 l 293 -176 l 299 -176 q 328 -209 313 -199 q 367 -219 343 -219 q 407 -208 392 -219 q 422 -174 422 -196 q 415 -149 422 -158 q 389 -128 407 -140 l 328 -89 l 356 -6 q 151 89 222 0 q 81 339 81 178 q 159 596 81 506 q 385 686 238 686 q 585 625 497 686 l 576 600 l 568 600 q 385 660 486 660 q 180 577 250 660 q 110 339 110 494 q 177 103 110 185 q 371 21 244 21 q 578 92 482 21 l 586 89 l 583 64 z "},"è":{"ha":572,"x_min":150,"x_max":514,"o":"m 419 774 q 219 961 315 865 l 218 968 l 232 982 l 239 983 q 442 793 346 874 l 426 775 l 419 774 m 508 0 l 150 0 l 150 682 l 506 682 l 510 676 l 504 654 l 178 656 l 178 367 l 449 367 l 451 361 l 447 339 l 178 339 l 178 26 l 510 26 l 514 22 l 508 0 z "},"é":{"ha":572,"x_min":150,"x_max":514,"o":"m 508 0 l 150 0 l 150 682 l 506 682 l 510 676 l 504 654 l 178 656 l 178 367 l 449 367 l 451 361 l 447 339 l 178 339 l 178 26 l 510 26 l 514 22 l 508 0 m 485 968 l 483 961 q 283 774 388 865 l 276 775 l 261 793 q 464 983 357 874 l 471 982 l 485 968 z "},"ê":{"ha":572,"x_min":150,"x_max":514,"o":"m 176 793 q 317 968 229 853 l 342 968 q 482 793 429 853 l 469 776 l 463 776 q 329 939 396 850 q 196 776 263 850 l 189 776 l 176 793 m 508 0 l 150 0 l 150 682 l 506 682 l 510 676 l 504 654 l 178 656 l 178 367 l 449 367 l 451 361 l 447 339 l 178 339 l 178 26 l 510 26 l 514 22 l 508 0 z "},"ë":{"ha":572,"x_min":150,"x_max":514,"o":"m 232 853 q 204 881 204 853 q 232 908 204 908 q 260 881 260 908 q 232 853 260 853 m 426 853 q 399 881 399 853 q 426 908 399 908 q 454 881 454 908 q 426 853 454 853 m 508 0 l 150 0 l 150 682 l 506 682 l 510 676 l 504 654 l 178 656 l 178 367 l 449 367 l 451 361 l 447 339 l 178 339 l 178 26 l 510 26 l 514 22 l 508 0 z "},"ì":{"ha":329,"x_min":54,"x_max":278,"o":"m 75 983 q 278 793 182 874 l 263 775 l 256 774 q 56 961 151 865 l 54 968 l 68 982 l 75 983 m 150 0 l 150 682 l 178 682 l 178 0 l 150 0 z "},"í":{"ha":329,"x_min":99,"x_max":322,"o":"m 150 0 l 150 682 l 178 682 l 178 0 l 150 0 m 322 968 l 321 961 q 121 774 225 865 l 114 775 l 99 793 q 301 983 194 874 l 308 982 l 322 968 z "},"î":{"ha":329,"x_min":14,"x_max":319,"o":"m 14 793 q 154 968 67 853 l 179 968 q 319 793 267 853 l 307 776 l 300 776 q 167 939 233 850 q 33 776 100 850 l 26 776 l 14 793 m 150 0 l 150 682 l 178 682 l 178 0 l 150 0 z "},"ï":{"ha":329,"x_min":69,"x_max":264,"o":"m 97 908 q 125 881 125 908 q 97 853 125 853 q 69 881 69 853 q 97 908 69 908 m 236 908 q 264 881 264 908 q 236 853 264 853 q 208 881 208 853 q 236 908 208 908 m 150 0 l 150 682 l 178 682 l 178 0 l 150 0 z "},"ð":{"ha":792,"x_min":21,"x_max":711,"o":"m 394 688 q 629 603 547 688 q 711 363 711 519 q 626 90 711 186 q 382 -6 540 -6 q 163 0 265 -6 l 163 325 l 24 325 l 21 329 l 22 353 l 163 353 l 163 682 l 394 688 m 383 21 q 606 109 528 21 q 683 361 683 197 q 608 583 683 506 q 393 660 533 660 l 190 654 l 190 353 l 397 353 l 400 349 l 399 325 l 190 325 l 190 26 q 383 21 285 21 z "},"ñ":{"ha":817,"x_min":150,"x_max":667,"o":"m 664 0 l 636 0 l 183 626 l 179 626 l 178 214 l 178 0 l 150 0 l 150 203 l 151 682 l 179 682 l 632 56 l 638 56 l 639 681 l 667 683 l 665 190 l 664 0 m 599 910 l 526 844 l 518 842 q 406 869 490 844 q 301 894 317 894 q 260 864 290 894 l 231 838 l 225 838 l 213 853 l 213 858 l 285 924 l 293 926 q 406 899 321 924 q 510 874 494 874 q 551 904 521 874 l 581 931 l 586 931 l 599 915 l 599 910 z "},"ò":{"ha":768,"x_min":81,"x_max":688,"o":"m 296 983 q 499 793 403 874 l 483 775 l 476 774 q 276 961 372 865 l 275 968 l 289 982 l 296 983 m 390 688 q 610 601 533 688 q 688 353 688 514 q 607 88 688 181 q 378 -6 526 -6 q 158 84 235 -6 q 81 339 81 174 q 160 597 81 507 q 390 688 240 688 m 389 660 q 181 578 253 660 q 110 340 110 496 q 179 103 110 185 q 378 21 249 21 q 587 106 514 21 q 660 350 660 190 q 590 580 660 500 q 389 660 519 660 z "},"ó":{"ha":768,"x_min":81,"x_max":688,"o":"m 390 688 q 610 601 533 688 q 688 353 688 514 q 607 88 688 181 q 378 -6 526 -6 q 158 84 235 -6 q 81 339 81 174 q 160 597 81 507 q 390 688 240 688 m 389 660 q 181 578 253 660 q 110 340 110 496 q 179 103 110 185 q 378 21 249 21 q 587 106 514 21 q 660 350 660 190 q 590 580 660 500 q 389 660 519 660 m 542 968 l 540 961 q 340 774 444 865 l 333 775 l 318 793 q 521 983 414 874 l 528 982 l 542 968 z "},"ô":{"ha":768,"x_min":81,"x_max":688,"o":"m 233 793 q 374 968 286 853 l 399 968 q 539 793 486 853 l 526 776 l 519 776 q 386 939 453 850 q 253 776 319 850 l 246 776 l 233 793 m 390 688 q 610 601 533 688 q 688 353 688 514 q 607 88 688 181 q 378 -6 526 -6 q 158 84 235 -6 q 81 339 81 174 q 160 597 81 507 q 390 688 240 688 m 389 660 q 181 578 253 660 q 110 340 110 496 q 179 103 110 185 q 378 21 249 21 q 587 106 514 21 q 660 350 660 190 q 590 580 660 500 q 389 660 519 660 z "},"õ":{"ha":768,"x_min":81,"x_max":688,"o":"m 390 688 q 610 601 533 688 q 688 353 688 514 q 607 88 688 181 q 378 -6 526 -6 q 158 84 235 -6 q 81 339 81 174 q 160 597 81 507 q 390 688 240 688 m 389 660 q 181 578 253 660 q 110 340 110 496 q 179 103 110 185 q 378 21 249 21 q 587 106 514 21 q 660 350 660 190 q 590 580 660 500 q 389 660 519 660 m 579 910 l 507 844 l 499 842 q 386 869 471 844 q 282 894 297 894 q 240 864 271 894 l 211 838 l 206 838 l 193 853 l 193 858 l 265 924 l 274 926 q 386 899 301 924 q 490 874 475 874 q 532 904 501 874 l 561 931 l 567 931 l 579 915 l 579 910 z "},"ö":{"ha":768,"x_min":81,"x_max":688,"o":"m 289 908 q 317 881 317 908 q 289 853 317 853 q 261 881 261 853 q 289 908 261 908 m 483 908 q 511 881 511 908 q 483 853 511 853 q 456 881 456 853 q 483 908 456 908 m 390 688 q 610 601 533 688 q 688 353 688 514 q 607 88 688 181 q 378 -6 526 -6 q 158 84 235 -6 q 81 339 81 174 q 160 597 81 507 q 390 688 240 688 m 389 660 q 181 578 253 660 q 110 340 110 496 q 179 103 110 185 q 378 21 249 21 q 587 106 514 21 q 660 350 660 190 q 590 580 660 500 q 389 660 519 660 z "},"÷":{"ha":667,"x_min":75,"x_max":633,"o":"m 631 361 l 79 361 l 75 365 l 78 389 l 629 389 l 633 385 l 631 361 m 367 150 q 394 122 394 150 q 367 94 394 94 q 339 122 339 94 q 367 150 339 150 m 367 654 q 394 626 394 654 q 367 599 394 599 q 339 626 339 599 q 367 654 339 654 z "},"ø":{"ha":768,"x_min":81,"x_max":688,"o":"m 539 656 q 688 353 688 581 q 607 88 688 181 q 378 -6 526 -6 q 256 15 307 -6 l 194 -121 l 172 -117 l 169 -111 l 231 26 q 81 339 81 104 q 160 597 81 507 q 390 688 240 688 q 515 667 461 688 l 558 764 l 579 761 l 582 754 l 539 656 m 110 340 q 242 51 110 124 l 503 640 q 389 660 451 660 q 181 578 253 660 q 110 340 110 496 m 378 21 q 587 106 514 21 q 660 350 660 190 q 526 629 660 561 l 265 40 q 378 21 317 21 z "},"ù":{"ha":751,"x_min":125,"x_max":629,"o":"m 292 983 q 494 793 399 874 l 479 775 l 472 774 q 272 961 368 865 l 271 968 l 285 982 l 292 983 m 629 244 q 565 61 632 126 q 376 -4 499 -4 q 188 60 253 -4 q 125 244 124 125 l 126 344 l 126 682 l 156 682 l 153 246 q 209 80 151 138 q 376 22 267 22 q 544 80 486 22 q 601 246 601 138 l 601 682 l 629 682 l 629 244 z "},"ú":{"ha":751,"x_min":125,"x_max":629,"o":"m 629 244 q 565 61 632 126 q 376 -4 499 -4 q 188 60 253 -4 q 125 244 124 125 l 126 344 l 126 682 l 156 682 l 153 246 q 209 80 151 138 q 376 22 267 22 q 544 80 486 22 q 601 246 601 138 l 601 682 l 629 682 l 629 244 m 536 968 l 535 961 q 335 774 439 865 l 328 775 l 313 793 q 515 983 408 874 l 522 982 l 536 968 z "},"û":{"ha":751,"x_min":125,"x_max":629,"o":"m 229 793 q 369 968 282 853 l 394 968 q 535 793 482 853 l 522 776 l 515 776 q 382 939 449 850 q 249 776 315 850 l 242 776 l 229 793 m 629 244 q 565 61 632 126 q 376 -4 499 -4 q 188 60 253 -4 q 125 244 124 125 l 126 344 l 126 682 l 156 682 l 153 246 q 209 80 151 138 q 376 22 267 22 q 544 80 486 22 q 601 246 601 138 l 601 682 l 629 682 l 629 244 z "},"ü":{"ha":751,"x_min":125,"x_max":629,"o":"m 285 908 q 313 881 313 908 q 285 853 313 853 q 257 881 257 853 q 285 908 257 908 m 479 908 q 507 881 507 908 q 479 853 507 853 q 451 881 451 853 q 479 908 451 908 m 629 244 q 565 61 632 126 q 376 -4 499 -4 q 188 60 253 -4 q 125 244 124 125 l 126 344 l 126 682 l 156 682 l 153 246 q 209 80 151 138 q 376 22 267 22 q 544 80 486 22 q 601 246 601 138 l 601 682 l 629 682 l 629 244 z "},"ý":{"ha":621,"x_min":56,"x_max":563,"o":"m 314 0 l 286 0 l 286 260 l 56 682 l 90 682 l 103 653 l 297 301 l 303 301 l 514 653 l 528 682 l 563 682 l 314 258 l 314 0 m 469 968 l 468 961 q 268 774 372 865 l 261 775 l 246 793 q 449 983 342 874 l 456 982 l 469 968 z "},"þ":{"ha":611,"x_min":150,"x_max":524,"o":"m 315 553 q 469 503 415 553 q 524 361 524 454 q 460 192 524 251 q 278 133 396 133 l 178 133 l 178 0 l 150 0 l 150 682 l 178 682 l 178 551 l 315 553 m 313 160 q 448 222 401 169 q 494 360 494 274 q 450 481 494 438 q 321 528 406 525 l 178 526 l 178 160 l 313 160 z "},"ÿ":{"ha":621,"x_min":56,"x_max":563,"o":"m 217 853 q 189 881 189 853 q 217 908 189 908 q 244 881 244 908 q 217 853 244 853 m 411 853 q 383 881 383 853 q 411 908 383 908 q 439 881 439 908 q 411 853 439 853 m 314 0 l 286 0 l 286 260 l 56 682 l 90 682 l 103 653 l 297 301 l 303 301 l 514 653 l 528 682 l 563 682 l 314 258 l 314 0 z "},"Ā":{"ha":769,"x_min":26,"x_max":731,"o":"m 699 0 l 681 60 l 593 296 l 174 296 l 79 60 l 60 0 l 26 0 l 379 885 l 407 885 l 731 0 l 699 0 m 394 838 l 389 838 l 185 324 l 583 324 l 394 838 m 585 1072 l 186 1072 l 182 1076 l 185 1100 l 583 1100 l 588 1096 l 585 1072 z "},"ā":{"ha":686,"x_min":47,"x_max":628,"o":"m 596 0 l 582 49 l 514 224 l 169 224 l 96 49 l 79 0 l 47 0 l 335 682 l 364 682 l 628 0 l 596 0 m 350 640 l 346 640 l 181 250 l 503 250 l 350 640 m 549 869 l 150 869 l 146 874 l 149 897 l 547 897 l 551 893 l 549 869 z "},"Ă":{"ha":769,"x_min":26,"x_max":731,"o":"m 699 0 l 681 60 l 593 296 l 174 296 l 79 60 l 60 0 l 26 0 l 379 885 l 407 885 l 731 0 l 699 0 m 394 838 l 389 838 l 185 324 l 583 324 l 394 838 m 525 1114 q 473 1038 510 1064 q 383 1011 436 1011 q 294 1038 331 1011 q 244 1114 258 1064 l 263 1129 l 269 1129 q 383 1039 290 1039 q 500 1129 476 1039 l 507 1129 l 525 1114 z "},"ă":{"ha":686,"x_min":47,"x_max":628,"o":"m 596 0 l 582 49 l 514 224 l 169 224 l 96 49 l 79 0 l 47 0 l 335 682 l 364 682 l 628 0 l 596 0 m 350 640 l 346 640 l 181 250 l 503 250 l 350 640 m 489 925 q 349 779 463 779 q 208 925 235 779 l 226 943 l 233 943 q 349 807 251 807 q 464 943 446 807 l 471 943 l 489 925 z "},"Ą":{"ha":769,"x_min":26,"x_max":833,"o":"m 833 -194 q 703 -274 772 -274 q 638 -249 663 -274 q 613 -186 613 -224 q 631 -119 613 -158 q 700 0 650 -79 l 699 0 l 681 60 l 593 296 l 174 296 l 79 60 l 60 0 l 26 0 l 379 885 l 407 885 l 731 0 l 728 0 q 659 -119 678 -79 q 640 -183 640 -158 q 657 -228 640 -211 q 703 -246 674 -246 q 815 -172 761 -246 l 818 -172 l 833 -194 m 394 838 l 389 838 l 185 324 l 583 324 l 394 838 z "},"ą":{"ha":686,"x_min":47,"x_max":706,"o":"m 706 -193 q 594 -272 656 -272 q 537 -251 561 -272 q 513 -192 513 -229 q 529 -122 513 -161 q 596 0 546 -83 l 582 49 l 514 224 l 169 224 l 96 49 l 79 0 l 47 0 l 335 682 l 364 682 l 628 0 q 558 -124 575 -85 q 540 -189 540 -162 q 556 -231 540 -217 q 596 -244 572 -244 q 688 -171 644 -244 l 690 -171 l 706 -193 m 350 640 l 346 640 l 181 250 l 503 250 l 350 640 z "},"Ć":{"ha":726,"x_min":67,"x_max":682,"o":"m 435 890 q 679 808 574 890 l 669 785 l 660 785 q 435 863 563 863 q 182 753 269 863 q 94 439 94 643 q 178 129 94 238 q 418 21 261 21 q 672 114 557 21 l 682 111 l 679 86 q 419 -7 558 -7 q 158 109 249 -7 q 67 440 67 225 q 162 774 67 657 q 435 890 257 890 m 610 1142 l 607 1135 q 365 1006 514 1082 l 358 1010 l 349 1031 q 593 1161 475 1092 l 600 1158 l 610 1142 z "},"ć":{"ha":649,"x_min":81,"x_max":586,"o":"m 385 686 q 585 625 497 686 l 576 600 l 568 600 q 385 660 486 660 q 180 577 250 660 q 110 339 110 494 q 177 103 110 185 q 371 21 244 21 q 578 92 482 21 l 586 89 l 583 64 q 372 -6 483 -6 q 156 83 231 -6 q 81 339 81 172 q 159 596 81 506 q 385 686 238 686 m 513 968 l 511 961 q 311 774 415 865 l 304 775 l 289 793 q 492 983 385 874 l 499 982 l 513 968 z "},"Ĉ":{"ha":726,"x_min":67,"x_max":682,"o":"m 435 890 q 679 808 574 890 l 669 785 l 660 785 q 435 863 563 863 q 182 753 269 863 q 94 439 94 643 q 178 129 94 238 q 418 21 261 21 q 672 114 557 21 l 682 111 l 679 86 q 419 -7 558 -7 q 158 109 249 -7 q 67 440 67 225 q 162 774 67 657 q 435 890 257 890 m 286 1044 q 422 1150 351 1090 l 444 1150 q 583 1044 536 1078 l 574 1025 l 567 1025 q 435 1122 503 1069 q 303 1025 367 1069 l 296 1025 l 286 1044 z "},"ĉ":{"ha":649,"x_min":81,"x_max":586,"o":"m 204 793 q 344 968 257 853 l 369 968 q 510 793 457 853 l 497 776 l 490 776 q 357 939 424 850 q 224 776 290 850 l 217 776 l 204 793 m 385 686 q 585 625 497 686 l 576 600 l 568 600 q 385 660 486 660 q 180 577 250 660 q 110 339 110 494 q 177 103 110 185 q 371 21 244 21 q 578 92 482 21 l 586 89 l 583 64 q 372 -6 483 -6 q 156 83 231 -6 q 81 339 81 172 q 159 596 81 506 q 385 686 238 686 z "},"Ċ":{"ha":726,"x_min":67,"x_max":682,"o":"m 435 890 q 679 808 574 890 l 669 785 l 660 785 q 435 863 563 863 q 182 753 269 863 q 94 439 94 643 q 178 129 94 238 q 418 21 261 21 q 672 114 557 21 l 682 111 l 679 86 q 419 -7 558 -7 q 158 109 249 -7 q 67 440 67 225 q 162 774 67 657 q 435 890 257 890 m 435 1133 q 463 1106 463 1133 q 435 1078 463 1078 q 407 1106 407 1078 q 435 1133 407 1133 z "},"ċ":{"ha":649,"x_min":81,"x_max":586,"o":"m 357 931 q 385 903 385 931 q 357 875 385 875 q 329 903 329 875 q 357 931 329 931 m 385 686 q 585 625 497 686 l 576 600 l 568 600 q 385 660 486 660 q 180 577 250 660 q 110 339 110 494 q 177 103 110 185 q 371 21 244 21 q 578 92 482 21 l 586 89 l 583 64 q 372 -6 483 -6 q 156 83 231 -6 q 81 339 81 172 q 159 596 81 506 q 385 686 238 686 z "},"Č":{"ha":726,"x_min":67,"x_max":682,"o":"m 435 890 q 679 808 574 890 l 669 785 l 660 785 q 435 863 563 863 q 182 753 269 863 q 94 439 94 643 q 178 129 94 238 q 418 21 261 21 q 672 114 557 21 l 682 111 l 679 86 q 419 -7 558 -7 q 158 109 249 -7 q 67 440 67 225 q 162 774 67 657 q 435 890 257 890 m 583 1118 q 447 1013 518 1072 l 425 1013 q 286 1118 333 1085 l 296 1138 l 303 1138 q 435 1040 367 1093 q 567 1138 503 1093 l 574 1138 l 583 1118 z "},"č":{"ha":649,"x_min":81,"x_max":586,"o":"m 385 686 q 585 625 497 686 l 576 600 l 568 600 q 385 660 486 660 q 180 577 250 660 q 110 339 110 494 q 177 103 110 185 q 371 21 244 21 q 578 92 482 21 l 586 89 l 583 64 q 372 -6 483 -6 q 156 83 231 -6 q 81 339 81 172 q 159 596 81 506 q 385 686 238 686 m 510 951 q 369 776 457 892 l 344 776 q 204 951 257 892 l 217 968 l 224 968 q 357 806 290 894 q 490 968 424 894 l 497 968 l 510 951 z "},"Ď":{"ha":885,"x_min":153,"x_max":818,"o":"m 432 892 q 718 783 618 892 q 818 471 818 674 q 715 117 818 240 q 418 -7 611 -7 q 153 0 306 -7 l 153 885 l 432 892 m 418 21 q 694 138 597 21 q 790 471 790 254 q 697 763 790 661 q 432 864 604 864 q 181 857 324 864 l 181 28 q 418 21 329 21 m 576 1118 q 440 1013 511 1072 l 418 1013 q 279 1118 326 1085 l 289 1138 l 296 1138 q 428 1040 360 1093 q 560 1138 496 1093 l 567 1138 l 576 1118 z "},"ď":{"ha":779,"x_min":150,"x_max":699,"o":"m 382 688 q 617 603 535 688 q 699 363 699 519 q 613 90 699 186 q 369 -6 528 -6 q 150 0 253 -6 l 150 682 l 382 688 m 371 21 q 593 109 515 21 q 671 361 671 197 q 596 583 671 506 q 381 660 521 660 l 178 654 l 178 26 q 371 21 272 21 m 518 951 q 378 776 465 892 l 353 776 q 213 951 265 892 l 225 968 l 232 968 q 365 806 299 894 q 499 968 432 894 l 506 968 l 518 951 z "},"Đ":{"ha":885,"x_min":153,"x_max":818,"o":"m 432 892 q 718 783 618 892 q 818 471 818 674 q 715 117 818 240 q 418 -7 611 -7 q 153 0 306 -7 l 153 885 l 432 892 m 418 21 q 694 138 597 21 q 790 471 790 254 q 697 763 790 661 q 432 864 604 864 q 181 857 324 864 l 181 28 q 418 21 329 21 m 628 1072 l 229 1072 l 225 1076 l 228 1100 l 626 1100 l 631 1096 l 628 1072 z "},"đ":{"ha":779,"x_min":150,"x_max":699,"o":"m 382 688 q 617 603 535 688 q 699 363 699 519 q 613 90 699 186 q 369 -6 528 -6 q 150 0 253 -6 l 150 682 l 382 688 m 371 21 q 593 109 515 21 q 671 361 671 197 q 596 583 671 506 q 381 660 521 660 l 178 654 l 178 26 q 371 21 272 21 m 565 869 l 167 869 l 163 874 l 165 897 l 564 897 l 568 893 l 565 869 z "},"Ē":{"ha":631,"x_min":153,"x_max":590,"o":"m 585 0 l 153 0 l 153 885 l 581 885 l 585 879 l 579 857 l 181 857 l 181 472 l 511 472 l 515 467 l 510 444 l 181 444 l 181 28 l 586 28 l 590 22 l 585 0 m 569 1072 l 171 1072 l 167 1076 l 169 1100 l 568 1100 l 572 1096 l 569 1072 z "},"ē":{"ha":572,"x_min":126,"x_max":532,"o":"m 508 0 l 150 0 l 150 682 l 506 682 l 510 676 l 504 654 l 178 656 l 178 367 l 449 367 l 451 361 l 447 339 l 178 339 l 178 26 l 510 26 l 514 22 l 508 0 m 529 869 l 131 869 l 126 874 l 129 897 l 528 897 l 532 893 l 529 869 z "},"Ĕ":{"ha":631,"x_min":153,"x_max":590,"o":"m 585 0 l 153 0 l 153 885 l 581 885 l 585 879 l 579 857 l 181 857 l 181 472 l 511 472 l 515 467 l 510 444 l 181 444 l 181 28 l 586 28 l 590 22 l 585 0 m 510 1114 q 458 1038 494 1064 q 368 1011 421 1011 q 279 1038 315 1011 q 229 1114 243 1064 l 247 1129 l 254 1129 q 368 1039 275 1039 q 485 1129 461 1039 l 492 1129 l 510 1114 z "},"ĕ":{"ha":572,"x_min":150,"x_max":514,"o":"m 508 0 l 150 0 l 150 682 l 506 682 l 510 676 l 504 654 l 178 656 l 178 367 l 449 367 l 451 361 l 447 339 l 178 339 l 178 26 l 510 26 l 514 22 l 508 0 m 469 925 q 329 779 443 779 q 189 925 215 779 l 207 943 l 214 943 q 329 807 232 807 q 444 943 426 807 l 451 943 l 469 925 z "},"Ė":{"ha":631,"x_min":153,"x_max":590,"o":"m 369 1078 q 342 1106 342 1078 q 369 1133 342 1133 q 397 1106 397 1133 q 369 1078 397 1078 m 585 0 l 153 0 l 153 885 l 581 885 l 585 879 l 579 857 l 181 857 l 181 472 l 511 472 l 515 467 l 510 444 l 181 444 l 181 28 l 586 28 l 590 22 l 585 0 z "},"ė":{"ha":572,"x_min":150,"x_max":514,"o":"m 329 875 q 301 903 301 875 q 329 931 301 931 q 357 903 357 931 q 329 875 357 875 m 508 0 l 150 0 l 150 682 l 506 682 l 510 676 l 504 654 l 178 656 l 178 367 l 449 367 l 451 361 l 447 339 l 178 339 l 178 26 l 510 26 l 514 22 l 508 0 z "},"Ę":{"ha":631,"x_min":153,"x_max":599,"o":"m 599 -194 q 468 -274 538 -274 q 403 -249 428 -274 q 378 -183 378 -225 q 406 -100 378 -140 l 474 0 l 153 0 l 153 885 l 581 885 l 585 879 l 579 857 l 181 857 l 181 472 l 511 472 l 515 467 l 510 444 l 181 444 l 181 28 l 586 28 l 590 22 l 585 0 l 507 0 l 433 -108 q 406 -183 406 -149 q 422 -228 406 -211 q 468 -246 439 -246 q 581 -172 526 -246 l 583 -172 l 599 -194 z "},"ę":{"ha":572,"x_min":150,"x_max":519,"o":"m 519 -197 q 389 -276 458 -276 q 324 -252 349 -276 q 299 -186 299 -228 q 326 -103 299 -143 l 396 0 l 150 0 l 150 682 l 506 682 l 510 676 l 504 654 l 178 656 l 178 367 l 449 367 l 451 361 l 447 339 l 178 339 l 178 26 l 510 26 l 514 22 l 508 0 l 429 0 l 354 -111 q 326 -186 326 -151 q 343 -231 326 -214 q 389 -249 360 -249 q 501 -175 447 -249 l 504 -175 l 519 -197 z "},"Ě":{"ha":631,"x_min":153,"x_max":590,"o":"m 585 0 l 153 0 l 153 885 l 581 885 l 585 879 l 579 857 l 181 857 l 181 472 l 511 472 l 515 467 l 510 444 l 181 444 l 181 28 l 586 28 l 590 22 l 585 0 m 518 1118 q 382 1013 453 1072 l 360 1013 q 221 1118 268 1085 l 231 1138 l 238 1138 q 369 1040 301 1093 q 501 1138 438 1093 l 508 1138 l 518 1118 z "},"ě":{"ha":572,"x_min":150,"x_max":514,"o":"m 508 0 l 150 0 l 150 682 l 506 682 l 510 676 l 504 654 l 178 656 l 178 367 l 449 367 l 451 361 l 447 339 l 178 339 l 178 26 l 510 26 l 514 22 l 508 0 m 482 951 q 342 776 429 892 l 317 776 q 176 951 229 892 l 189 968 l 196 968 q 329 806 263 894 q 463 968 396 894 l 469 968 l 482 951 z "},"Ĝ":{"ha":838,"x_min":67,"x_max":726,"o":"m 476 890 q 726 815 600 890 l 718 790 l 708 790 q 476 863 588 863 q 194 751 293 863 q 94 433 94 640 q 181 128 94 235 q 426 21 267 21 q 547 30 492 21 q 689 63 601 39 l 689 328 l 717 331 l 717 42 q 565 5 625 15 q 428 -7 504 -6 q 160 108 254 -7 q 67 435 67 222 q 173 772 67 654 q 476 890 279 890 m 303 1044 q 439 1150 368 1090 l 461 1150 q 600 1044 553 1078 l 590 1025 l 583 1025 q 451 1122 519 1069 q 319 1025 383 1069 l 313 1025 l 303 1044 z "},"ĝ":{"ha":739,"x_min":81,"x_max":624,"o":"m 242 793 q 382 968 294 853 l 407 968 q 547 793 494 853 l 535 776 l 528 776 q 394 939 461 850 q 261 776 328 850 l 254 776 l 242 793 m 418 686 q 624 629 522 686 l 615 604 l 608 604 q 418 660 506 660 q 190 576 269 660 q 110 333 110 492 q 179 101 110 182 q 378 21 249 21 q 589 51 468 21 l 589 254 l 617 257 l 617 32 q 489 3 539 11 q 378 -4 439 -4 q 158 83 235 -4 q 81 335 81 171 q 168 595 81 504 q 418 686 256 686 z "},"Ğ":{"ha":838,"x_min":67,"x_max":726,"o":"m 476 890 q 726 815 600 890 l 718 790 l 708 790 q 476 863 588 863 q 194 751 293 863 q 94 433 94 640 q 181 128 94 235 q 426 21 267 21 q 547 30 492 21 q 689 63 601 39 l 689 328 l 717 331 l 717 42 q 565 5 625 15 q 428 -7 504 -6 q 160 108 254 -7 q 67 435 67 222 q 173 772 67 654 q 476 890 279 890 m 592 1114 q 540 1038 576 1064 q 450 1011 503 1011 q 361 1038 397 1011 q 311 1114 325 1064 l 329 1129 l 336 1129 q 450 1039 357 1039 q 567 1129 543 1039 l 574 1129 l 592 1114 z "},"ğ":{"ha":739,"x_min":81,"x_max":624,"o":"m 418 686 q 624 629 522 686 l 615 604 l 608 604 q 418 660 506 660 q 190 576 269 660 q 110 333 110 492 q 179 101 110 182 q 378 21 249 21 q 589 51 468 21 l 589 254 l 617 257 l 617 32 q 489 3 539 11 q 378 -4 439 -4 q 158 83 235 -4 q 81 335 81 171 q 168 595 81 504 q 418 686 256 686 m 535 925 q 394 779 508 779 q 254 925 281 779 l 272 943 l 279 943 q 394 807 297 807 q 510 943 492 807 l 517 943 l 535 925 z "},"Ġ":{"ha":838,"x_min":67,"x_max":726,"o":"m 476 890 q 726 815 600 890 l 718 790 l 708 790 q 476 863 588 863 q 194 751 293 863 q 94 433 94 640 q 181 128 94 235 q 426 21 267 21 q 547 30 492 21 q 689 63 601 39 l 689 328 l 717 331 l 717 42 q 565 5 625 15 q 428 -7 504 -6 q 160 108 254 -7 q 67 435 67 222 q 173 772 67 654 q 476 890 279 890 m 451 1133 q 479 1106 479 1133 q 451 1078 479 1078 q 424 1106 424 1078 q 451 1133 424 1133 z "},"ġ":{"ha":739,"x_min":81,"x_max":624,"o":"m 418 686 q 624 629 522 686 l 615 604 l 608 604 q 418 660 506 660 q 190 576 269 660 q 110 333 110 492 q 179 101 110 182 q 378 21 249 21 q 589 51 468 21 l 589 254 l 617 257 l 617 32 q 489 3 539 11 q 378 -4 439 -4 q 158 83 235 -4 q 81 335 81 171 q 168 595 81 504 q 418 686 256 686 m 394 931 q 422 903 422 931 q 394 875 422 875 q 367 903 367 875 q 394 931 367 931 z "},"Ģ":{"ha":838,"x_min":67,"x_max":726,"o":"m 476 890 q 726 815 600 890 l 718 790 l 708 790 q 476 863 588 863 q 194 751 293 863 q 94 433 94 640 q 181 128 94 235 q 426 21 267 21 q 547 30 492 21 q 689 63 601 39 l 689 328 l 717 331 l 717 42 q 565 5 625 15 q 428 -7 504 -6 q 160 108 254 -7 q 67 435 67 222 q 173 772 67 654 q 476 890 279 890 m 433 -97 q 486 -164 486 -121 q 394 -293 486 -222 l 381 -278 l 382 -274 q 457 -165 457 -218 q 415 -118 457 -137 l 415 -112 q 433 -97 422 -103 z "},"ģ":{"ha":739,"x_min":81,"x_max":624,"o":"m 418 686 q 624 629 522 686 l 615 604 l 608 604 q 418 660 506 660 q 190 576 269 660 q 110 333 110 492 q 179 101 110 182 q 378 21 249 21 q 589 51 468 21 l 589 254 l 617 257 l 617 32 q 489 3 539 11 q 378 -4 439 -4 q 158 83 235 -4 q 81 335 81 171 q 168 595 81 504 q 418 686 256 686 m 372 -97 q 425 -164 425 -121 q 333 -293 425 -222 l 319 -278 l 321 -274 q 396 -165 396 -218 q 354 -118 396 -137 l 354 -112 q 372 -97 361 -103 z "},"Ĥ":{"ha":931,"x_min":153,"x_max":778,"o":"m 310 1044 q 446 1150 375 1090 l 468 1150 q 607 1044 560 1078 l 597 1025 l 590 1025 q 458 1122 526 1069 q 326 1025 390 1069 l 319 1025 l 310 1044 m 778 0 l 750 0 l 750 436 l 181 436 l 181 0 l 153 0 l 153 885 l 181 885 l 181 464 l 750 464 l 750 885 l 778 885 l 778 0 z "},"ĥ":{"ha":817,"x_min":150,"x_max":667,"o":"m 256 793 q 396 968 308 853 l 421 968 q 561 793 508 853 l 549 776 l 542 776 q 408 939 475 850 q 275 776 342 850 l 268 776 l 256 793 m 667 0 l 639 0 l 639 333 l 178 333 l 178 0 l 150 0 l 150 682 l 178 682 l 178 360 l 639 360 l 639 682 l 667 682 l 667 0 z "},"Ħ":{"ha":972,"x_min":76,"x_max":896,"o":"m 799 672 l 799 0 l 771 0 l 771 436 l 201 436 l 201 0 l 174 0 l 174 672 l 82 672 l 76 676 l 79 700 l 174 700 l 174 885 l 201 885 l 201 700 l 771 700 l 771 885 l 799 885 l 799 700 l 890 700 l 896 696 l 893 672 l 799 672 m 201 672 l 201 464 l 771 464 l 771 672 l 201 672 z "},"ħ":{"ha":847,"x_min":88,"x_max":764,"o":"m 682 506 l 682 0 l 654 0 l 654 333 l 193 333 l 193 0 l 165 0 l 165 506 l 92 506 l 88 510 l 90 531 l 165 531 l 165 682 l 193 682 l 193 531 l 654 531 l 654 682 l 682 682 l 682 531 l 758 531 l 764 528 l 761 506 l 682 506 m 193 506 l 193 360 l 654 360 l 654 506 l 193 506 z "},"Ĩ":{"ha":333,"x_min":-6,"x_max":339,"o":"m 153 0 l 153 885 l 181 885 l 181 0 l 153 0 m 339 1108 l 274 1043 l 265 1040 q 165 1068 243 1043 q 75 1093 90 1093 q 33 1060 64 1093 l 11 1038 l 7 1038 l -6 1053 l -6 1058 l 60 1124 l 68 1126 q 168 1099 90 1124 q 258 1074 243 1074 q 296 1103 269 1074 l 322 1129 l 326 1129 l 339 1114 l 339 1108 z "},"ĩ":{"ha":329,"x_min":-6,"x_max":339,"o":"m 150 0 l 150 682 l 178 682 l 178 0 l 150 0 m 339 906 l 274 840 l 265 838 q 165 865 243 840 q 75 890 90 890 q 33 857 64 890 l 11 835 l 7 835 l -6 850 l -6 856 l 60 921 l 68 924 q 168 896 90 921 q 258 871 243 871 q 296 900 269 871 l 322 926 l 326 926 l 339 911 l 339 906 z "},"Ī":{"ha":333,"x_min":19,"x_max":314,"o":"m 153 0 l 153 885 l 181 885 l 181 0 l 153 0 m 311 1072 l 24 1072 l 19 1076 l 22 1100 l 310 1100 l 314 1096 l 311 1072 z "},"ī":{"ha":329,"x_min":19,"x_max":314,"o":"m 150 0 l 150 682 l 178 682 l 178 0 l 150 0 m 311 869 l 24 869 l 19 874 l 22 897 l 310 897 l 314 893 l 311 869 z "},"Ĭ":{"ha":333,"x_min":26,"x_max":307,"o":"m 153 0 l 153 885 l 181 885 l 181 0 l 153 0 m 307 1114 q 255 1038 292 1064 q 165 1011 218 1011 q 76 1038 113 1011 q 26 1114 40 1064 l 44 1129 l 51 1129 q 165 1039 72 1039 q 282 1129 258 1039 l 289 1129 l 307 1114 z "},"ĭ":{"ha":329,"x_min":26,"x_max":307,"o":"m 150 0 l 150 682 l 178 682 l 178 0 l 150 0 m 307 925 q 167 779 281 779 q 26 925 53 779 l 44 943 l 51 943 q 167 807 69 807 q 282 943 264 807 l 289 943 l 307 925 z "},"Į":{"ha":333,"x_min":43,"x_max":194,"o":"m 194 -207 q 110 -274 161 -274 q 61 -255 79 -274 q 43 -210 43 -236 q 68 -134 43 -179 q 153 0 93 -89 l 153 885 l 181 885 l 181 0 q 71 -208 71 -165 q 81 -235 71 -225 q 111 -246 92 -246 q 172 -186 150 -246 l 175 -186 l 194 -207 z "},"į":{"ha":329,"x_min":40,"x_max":192,"o":"m 192 -207 q 107 -274 158 -274 q 58 -255 76 -274 q 40 -210 40 -236 q 65 -134 40 -179 q 150 0 90 -89 l 150 682 l 178 682 l 178 0 q 68 -208 68 -165 q 78 -235 68 -225 q 108 -246 89 -246 q 169 -186 147 -246 l 172 -186 l 192 -207 z "},"İ":{"ha":333,"x_min":139,"x_max":194,"o":"m 167 1133 q 194 1106 194 1133 q 167 1078 194 1078 q 139 1106 139 1078 q 167 1133 139 1133 m 153 0 l 153 885 l 181 885 l 181 0 l 153 0 z "},"ı":{"ha":329,"x_min":150,"x_max":178,"o":"m 150 0 l 150 682 l 178 682 l 178 0 l 150 0 z "},"Ĳ":{"ha":706,"x_min":153,"x_max":556,"o":"m 153 0 l 153 885 l 181 885 l 181 0 l 153 0 m 556 160 q 515 -5 556 63 q 376 -136 474 -72 l 361 -121 l 361 -112 q 489 8 450 -54 q 528 157 528 71 l 528 857 l 350 857 l 344 863 l 349 885 l 556 885 l 556 160 z "},"ĳ":{"ha":692,"x_min":150,"x_max":542,"o":"m 150 0 l 150 682 l 178 682 l 178 0 l 150 0 m 542 124 q 513 -5 542 47 q 413 -106 483 -57 l 396 -90 l 396 -83 q 487 8 460 -40 q 514 122 514 56 l 514 656 l 372 656 l 368 660 l 372 682 l 542 682 l 542 124 z "},"Ĵ":{"ha":372,"x_min":1,"x_max":299,"o":"m 222 160 q 181 -5 222 63 q 43 -136 140 -72 l 28 -121 l 28 -112 q 156 8 117 -54 q 194 157 194 71 l 194 857 l 17 857 l 11 863 l 15 885 l 222 885 l 222 160 m 1 1044 q 138 1150 67 1090 l 160 1150 q 299 1044 251 1078 l 289 1025 l 282 1025 q 150 1122 218 1069 q 18 1025 82 1069 l 11 1025 l 1 1044 z "},"ĵ":{"ha":363,"x_min":-22,"x_max":283,"o":"m 213 124 q 183 -5 213 47 q 83 -106 154 -57 l 67 -90 l 67 -83 q 158 8 131 -40 q 185 122 185 56 l 185 656 l 43 656 l 39 660 l 43 682 l 213 682 l 213 124 m -22 793 q 118 968 31 853 l 143 968 q 283 793 231 853 l 271 776 l 264 776 q 131 939 197 850 q -3 776 64 850 l -10 776 l -22 793 z "},"Ķ":{"ha":704,"x_min":153,"x_max":692,"o":"m 153 0 l 153 885 l 181 885 l 181 0 l 153 0 m 258 472 q 692 7 461 228 l 692 1 q 672 -10 688 -3 l 667 -8 q 221 469 413 239 l 221 474 l 567 819 l 626 885 l 669 885 l 258 472 m 381 -97 q 433 -164 433 -121 q 342 -293 433 -222 l 328 -278 l 329 -274 q 404 -165 404 -218 q 363 -118 404 -137 l 363 -112 q 381 -97 369 -103 z "},"ķ":{"ha":635,"x_min":150,"x_max":599,"o":"m 150 0 l 150 682 l 178 682 l 178 0 l 150 0 m 246 364 q 599 7 410 176 l 597 1 q 576 -8 594 -1 l 571 -6 q 210 361 367 183 l 210 365 l 490 631 l 539 682 l 579 682 l 246 364 m 313 -97 q 365 -164 365 -121 q 274 -293 365 -222 l 260 -278 l 261 -274 q 336 -165 336 -218 q 294 -118 336 -137 l 294 -112 q 313 -97 301 -103 z "},"ĸ":{"ha":635,"x_min":150,"x_max":599,"o":"m 150 0 l 150 682 l 178 682 l 178 0 l 150 0 m 246 364 q 599 7 410 176 l 597 1 q 576 -8 594 -1 l 571 -6 q 210 361 367 183 l 210 365 l 490 631 l 539 682 l 579 682 l 246 364 z "},"Ĺ":{"ha":553,"x_min":151,"x_max":546,"o":"m 540 0 l 151 0 l 151 885 l 179 885 l 179 28 l 542 28 l 546 22 l 540 0 m 447 1142 l 444 1135 q 203 1006 351 1082 l 196 1010 l 186 1031 q 431 1161 313 1092 l 438 1158 l 447 1142 z "},"ĺ":{"ha":507,"x_min":149,"x_max":475,"o":"m 471 0 l 149 0 l 149 682 l 176 682 l 176 26 l 472 26 l 475 22 l 471 0 m 379 968 l 378 961 q 178 774 282 865 l 171 775 l 156 793 q 358 983 251 874 l 365 982 l 379 968 z "},"Ļ":{"ha":553,"x_min":151,"x_max":546,"o":"m 540 0 l 151 0 l 151 885 l 179 885 l 179 28 l 542 28 l 546 22 l 540 0 m 328 -97 q 381 -164 381 -121 q 289 -293 381 -222 l 275 -278 l 276 -274 q 351 -165 351 -218 q 310 -118 351 -137 l 310 -112 q 328 -97 317 -103 z "},"ļ":{"ha":507,"x_min":149,"x_max":475,"o":"m 471 0 l 149 0 l 149 682 l 176 682 l 176 26 l 472 26 l 475 22 l 471 0 m 268 -97 q 321 -164 321 -121 q 229 -293 321 -222 l 215 -278 l 217 -274 q 292 -165 292 -218 q 250 -118 292 -137 l 250 -112 q 268 -97 257 -103 z "},"Ľ":{"ha":567,"x_min":151,"x_max":546,"o":"m 540 0 l 151 0 l 151 885 l 179 885 l 179 28 l 542 28 l 546 22 l 540 0 m 449 601 l 465 801 l 489 804 l 493 799 l 476 599 l 453 596 l 449 601 z "},"ľ":{"ha":521,"x_min":149,"x_max":475,"o":"m 471 0 l 149 0 l 149 682 l 176 682 l 176 26 l 472 26 l 475 22 l 471 0 m 399 442 l 415 642 l 439 644 l 443 639 l 426 439 l 403 436 l 399 442 z "},"Ŀ":{"ha":553,"x_min":151,"x_max":546,"o":"m 540 0 l 151 0 l 151 885 l 179 885 l 179 28 l 542 28 l 546 22 l 540 0 m 429 538 q 457 510 457 538 q 429 482 457 482 q 401 510 401 482 q 429 538 401 538 z "},"ŀ":{"ha":521,"x_min":149,"x_max":475,"o":"m 471 0 l 149 0 l 149 682 l 176 682 l 176 26 l 472 26 l 475 22 l 471 0 m 344 340 q 317 368 317 340 q 344 396 317 396 q 372 368 372 396 q 344 340 372 340 z "},"Ł":{"ha":567,"x_min":31,"x_max":560,"o":"m 554 0 l 165 0 l 165 463 l 46 397 l 39 401 l 31 422 l 165 496 l 165 885 l 193 885 l 193 510 l 415 631 l 422 628 l 431 607 l 193 478 l 193 28 l 556 28 l 560 22 l 554 0 z "},"ł":{"ha":533,"x_min":50,"x_max":500,"o":"m 496 0 l 174 0 l 174 357 l 64 301 l 57 306 l 50 325 l 174 388 l 174 682 l 201 682 l 201 401 l 368 486 l 374 485 l 382 464 l 201 372 l 201 26 l 497 26 l 500 22 l 496 0 z "},"Ń":{"ha":931,"x_min":153,"x_max":778,"o":"m 775 0 l 749 0 l 188 826 l 182 826 l 181 276 l 181 0 l 153 0 l 153 264 l 154 885 l 181 885 l 742 58 l 747 58 l 750 883 l 778 886 l 776 244 l 775 0 m 635 1142 l 632 1135 q 390 1006 539 1082 l 383 1010 l 374 1031 q 618 1161 500 1092 l 625 1158 l 635 1142 z "},"ń":{"ha":817,"x_min":150,"x_max":667,"o":"m 664 0 l 636 0 l 183 626 l 179 626 l 178 214 l 178 0 l 150 0 l 150 203 l 151 682 l 179 682 l 632 56 l 638 56 l 639 681 l 667 683 l 665 190 l 664 0 m 561 968 l 560 961 q 360 774 464 865 l 353 775 l 338 793 q 540 983 433 874 l 547 982 l 561 968 z "},"Ņ":{"ha":931,"x_min":153,"x_max":778,"o":"m 775 0 l 749 0 l 188 826 l 182 826 l 181 276 l 181 0 l 153 0 l 153 264 l 154 885 l 181 885 l 742 58 l 747 58 l 750 883 l 778 886 l 776 244 l 775 0 m 458 -97 q 511 -164 511 -121 q 419 -293 511 -222 l 406 -278 l 407 -274 q 482 -165 482 -218 q 440 -118 482 -137 l 440 -112 q 458 -97 447 -103 z "},"ņ":{"ha":817,"x_min":150,"x_max":667,"o":"m 664 0 l 636 0 l 183 626 l 179 626 l 178 214 l 178 0 l 150 0 l 150 203 l 151 682 l 179 682 l 632 56 l 638 56 l 639 681 l 667 683 l 665 190 l 664 0 m 404 -97 q 457 -164 457 -121 q 365 -293 457 -222 l 351 -278 l 353 -274 q 428 -165 428 -218 q 386 -118 428 -137 l 386 -112 q 404 -97 393 -103 z "},"Ň":{"ha":931,"x_min":153,"x_max":778,"o":"m 775 0 l 749 0 l 188 826 l 182 826 l 181 276 l 181 0 l 153 0 l 153 264 l 154 885 l 181 885 l 742 58 l 747 58 l 750 883 l 778 886 l 776 244 l 775 0 m 608 1118 q 472 1013 543 1072 l 450 1013 q 311 1118 358 1085 l 321 1138 l 328 1138 q 460 1040 392 1093 q 592 1138 528 1093 l 599 1138 l 608 1118 z "},"ň":{"ha":817,"x_min":150,"x_max":667,"o":"m 664 0 l 636 0 l 183 626 l 179 626 l 178 214 l 178 0 l 150 0 l 150 203 l 151 682 l 179 682 l 632 56 l 638 56 l 639 681 l 667 683 l 665 190 l 664 0 m 558 951 q 418 776 506 892 l 393 776 q 253 951 306 892 l 265 968 l 272 968 q 406 806 339 894 q 539 968 472 894 l 546 968 l 558 951 z "},"Ŋ":{"ha":931,"x_min":153,"x_max":778,"o":"m 775 54 q 735 -85 775 -28 q 596 -200 694 -142 l 581 -185 l 581 -176 q 697 -87 660 -129 q 743 7 735 -46 l 188 826 l 182 826 l 181 276 l 181 0 l 153 0 l 153 264 l 154 885 l 181 885 l 742 58 l 747 58 l 750 883 l 778 886 l 776 244 l 775 54 z "},"ŋ":{"ha":817,"x_min":150,"x_max":667,"o":"m 664 49 q 640 -68 664 -21 q 556 -160 615 -115 l 542 -144 l 542 -137 q 635 4 624 -74 l 183 626 l 178 626 l 178 0 l 150 0 l 151 203 l 151 682 l 179 682 l 632 56 l 639 56 l 639 681 l 667 683 l 664 190 l 664 49 z "},"Ō":{"ha":871,"x_min":67,"x_max":804,"o":"m 442 892 q 710 779 617 892 q 804 457 804 667 q 707 113 804 233 q 428 -7 610 -7 q 160 109 254 -7 q 67 440 67 225 q 164 775 67 658 q 442 892 261 892 m 442 864 q 184 754 274 864 q 94 440 94 644 q 181 130 94 239 q 428 21 267 21 q 686 134 596 21 q 776 457 776 247 q 690 758 776 653 q 442 864 603 864 m 636 1072 l 238 1072 l 233 1076 l 236 1100 l 635 1100 l 639 1096 l 636 1072 z "},"ō":{"ha":768,"x_min":81,"x_max":688,"o":"m 390 688 q 610 601 533 688 q 688 353 688 514 q 607 88 688 181 q 378 -6 526 -6 q 158 84 235 -6 q 81 339 81 174 q 160 597 81 507 q 390 688 240 688 m 389 660 q 181 578 253 660 q 110 340 110 496 q 179 103 110 185 q 378 21 249 21 q 587 106 514 21 q 660 350 660 190 q 590 580 660 500 q 389 660 519 660 m 586 869 l 188 869 l 183 874 l 186 897 l 585 897 l 589 893 l 586 869 z "},"Ŏ":{"ha":871,"x_min":67,"x_max":804,"o":"m 442 892 q 710 779 617 892 q 804 457 804 667 q 707 113 804 233 q 428 -7 610 -7 q 160 109 254 -7 q 67 440 67 225 q 164 775 67 658 q 442 892 261 892 m 442 864 q 184 754 274 864 q 94 440 94 644 q 181 130 94 239 q 428 21 267 21 q 686 134 596 21 q 776 457 776 247 q 690 758 776 653 q 442 864 603 864 m 576 1114 q 524 1038 561 1064 q 435 1011 488 1011 q 346 1038 382 1011 q 296 1114 310 1064 l 314 1129 l 321 1129 q 435 1039 342 1039 q 551 1129 528 1039 l 558 1129 l 576 1114 z "},"ŏ":{"ha":768,"x_min":81,"x_max":688,"o":"m 390 688 q 610 601 533 688 q 688 353 688 514 q 607 88 688 181 q 378 -6 526 -6 q 158 84 235 -6 q 81 339 81 174 q 160 597 81 507 q 390 688 240 688 m 389 660 q 181 578 253 660 q 110 340 110 496 q 179 103 110 185 q 378 21 249 21 q 587 106 514 21 q 660 350 660 190 q 590 580 660 500 q 389 660 519 660 m 526 925 q 386 779 500 779 q 246 925 272 779 l 264 943 l 271 943 q 386 807 289 807 q 501 943 483 807 l 508 943 l 526 925 z "},"Ő":{"ha":871,"x_min":67,"x_max":804,"o":"m 442 892 q 710 779 617 892 q 804 457 804 667 q 707 113 804 233 q 428 -7 610 -7 q 160 109 254 -7 q 67 440 67 225 q 164 775 67 658 q 442 892 261 892 m 442 864 q 184 754 274 864 q 94 440 94 644 q 181 130 94 239 q 428 21 267 21 q 686 134 596 21 q 776 457 776 247 q 690 758 776 653 q 442 864 603 864 m 328 1051 q 451 1168 432 1149 l 458 1167 l 472 1153 l 471 1146 q 315 1000 422 1097 l 308 1001 l 293 1019 l 328 1051 m 508 1051 q 632 1168 613 1149 l 639 1167 l 653 1153 l 651 1146 q 496 1000 603 1097 l 489 1001 l 474 1019 l 508 1051 z "},"ő":{"ha":768,"x_min":81,"x_max":688,"o":"m 390 688 q 610 601 533 688 q 688 353 688 514 q 607 88 688 181 q 378 -6 526 -6 q 158 84 235 -6 q 81 339 81 174 q 160 597 81 507 q 390 688 240 688 m 389 660 q 181 578 253 660 q 110 340 110 496 q 179 103 110 185 q 378 21 249 21 q 587 106 514 21 q 660 350 660 190 q 590 580 660 500 q 389 660 519 660 m 239 790 q 442 981 344 885 l 449 979 l 463 965 l 461 958 q 261 771 363 863 l 254 772 l 239 790 m 419 790 q 622 981 525 885 l 629 979 l 643 965 l 642 958 q 442 771 544 863 l 435 772 l 419 790 z "},"Œ":{"ha":1157,"x_min":67,"x_max":1117,"o":"m 497 901 q 603 893 533 901 q 710 885 672 885 l 1107 885 l 1111 879 l 1106 857 l 707 857 l 707 472 l 1038 472 l 1042 467 l 1036 444 l 707 444 l 707 28 l 1113 28 l 1117 22 l 1111 0 l 710 0 q 589 -8 667 0 q 483 -17 517 -17 q 176 103 285 -17 q 67 440 67 224 q 179 780 67 658 q 497 901 292 901 m 497 874 q 200 760 306 874 q 94 439 94 646 q 196 124 94 236 q 490 11 297 11 q 640 25 553 11 q 672 36 664 29 q 679 60 679 43 l 676 814 q 672 847 676 839 q 657 858 668 856 q 497 874 571 874 z "},"œ":{"ha":1003,"x_min":81,"x_max":944,"o":"m 435 694 q 521 689 465 694 q 610 682 569 682 l 938 682 l 940 676 l 936 654 l 610 656 l 610 367 l 879 367 l 883 361 l 878 339 l 610 339 l 610 26 l 942 26 l 944 22 l 940 0 l 610 0 q 511 -7 564 0 q 422 -12 450 -12 q 170 80 260 -12 q 81 339 81 172 q 173 601 81 507 q 435 694 265 694 m 433 668 q 194 582 279 668 q 110 339 110 496 q 191 99 110 183 q 428 14 272 14 q 550 25 494 14 q 576 33 569 28 q 582 53 582 39 l 579 621 q 576 647 579 640 q 564 656 574 654 q 510 663 553 657 q 433 668 468 668 z "},"Ŕ":{"ha":719,"x_min":153,"x_max":647,"o":"m 396 371 q 647 7 504 193 l 647 1 q 631 -10 640 -6 l 622 -7 q 367 365 474 188 l 181 365 l 181 0 l 153 0 l 153 885 l 349 888 q 535 825 469 888 q 600 644 600 763 q 547 472 600 542 q 396 371 494 401 m 378 393 q 522 482 471 417 q 572 644 572 547 q 517 800 572 744 q 358 860 461 856 l 181 858 l 181 393 l 378 393 m 515 1171 l 514 1164 q 314 976 418 1068 l 307 978 l 292 996 q 494 1186 388 1076 l 501 1185 l 515 1171 z "},"ŕ":{"ha":647,"x_min":150,"x_max":563,"o":"m 358 285 q 563 7 446 147 l 563 1 l 543 -8 l 535 -4 q 329 279 417 142 l 178 279 l 178 0 l 150 0 l 150 682 l 315 683 q 469 635 415 683 q 524 496 524 586 q 481 363 524 418 q 358 285 438 308 m 338 304 q 454 372 414 322 q 494 494 494 421 q 450 613 494 571 q 321 658 406 654 l 178 657 l 178 306 l 338 304 m 453 968 l 451 961 q 251 774 356 865 l 244 775 l 229 793 q 432 983 325 874 l 439 982 l 453 968 z "},"Ŗ":{"ha":719,"x_min":153,"x_max":647,"o":"m 396 371 q 647 7 504 193 l 647 1 q 631 -10 640 -6 l 622 -7 q 367 365 474 188 l 181 365 l 181 0 l 153 0 l 153 885 l 349 888 q 535 825 469 888 q 600 644 600 763 q 547 472 600 542 q 396 371 494 401 m 378 393 q 522 482 471 417 q 572 644 572 547 q 517 800 572 744 q 358 860 461 856 l 181 858 l 181 393 l 378 393 m 360 -97 q 413 -164 413 -121 q 321 -293 413 -222 l 307 -278 l 308 -274 q 383 -165 383 -218 q 342 -118 383 -137 l 342 -112 q 360 -97 349 -103 z "},"ŗ":{"ha":647,"x_min":150,"x_max":563,"o":"m 358 285 q 563 7 446 147 l 563 1 l 543 -8 l 535 -4 q 329 279 417 142 l 178 279 l 178 0 l 150 0 l 150 682 l 315 683 q 469 635 415 683 q 524 496 524 586 q 481 363 524 418 q 358 285 438 308 m 338 304 q 454 372 414 322 q 494 494 494 421 q 450 613 494 571 q 321 658 406 654 l 178 657 l 178 306 l 338 304 m 297 -97 q 350 -164 350 -121 q 258 -293 350 -222 l 244 -278 l 246 -274 q 321 -165 321 -218 q 279 -118 321 -137 l 279 -112 q 297 -97 286 -103 z "},"Ř":{"ha":719,"x_min":153,"x_max":647,"o":"m 396 371 q 647 7 504 193 l 647 1 q 631 -10 640 -6 l 622 -7 q 367 365 474 188 l 181 365 l 181 0 l 153 0 l 153 885 l 349 888 q 535 825 469 888 q 600 644 600 763 q 547 472 600 542 q 396 371 494 401 m 378 393 q 522 482 471 417 q 572 644 572 547 q 517 800 572 744 q 358 860 461 856 l 181 858 l 181 393 l 378 393 m 513 1154 q 372 979 460 1094 l 347 979 q 207 1154 260 1094 l 219 1171 l 226 1171 q 360 1008 293 1097 q 493 1171 426 1097 l 500 1171 l 513 1154 z "},"ř":{"ha":647,"x_min":144,"x_max":563,"o":"m 358 285 q 563 7 446 147 l 563 1 l 543 -8 l 535 -4 q 329 279 417 142 l 178 279 l 178 0 l 150 0 l 150 682 l 315 683 q 469 635 415 683 q 524 496 524 586 q 481 363 524 418 q 358 285 438 308 m 338 304 q 454 372 414 322 q 494 494 494 421 q 450 613 494 571 q 321 658 406 654 l 178 657 l 178 306 l 338 304 m 450 951 q 310 776 397 892 l 285 776 q 144 951 197 892 l 157 968 l 164 968 q 297 806 231 894 q 431 968 364 894 l 438 968 l 450 951 z "},"Ś":{"ha":618,"x_min":72,"x_max":542,"o":"m 342 889 q 511 849 425 889 l 506 824 l 496 822 q 339 861 419 861 q 222 833 272 861 q 146 759 172 804 q 119 667 119 714 q 146 583 119 618 q 210 524 172 547 q 317 468 249 501 q 435 403 392 431 q 510 331 479 375 q 542 225 542 288 q 508 110 542 164 q 416 26 475 57 q 283 -6 357 -6 q 172 11 229 -6 q 72 60 115 28 l 74 86 l 81 89 q 176 39 122 56 q 282 22 231 22 q 403 51 350 22 q 485 127 457 81 q 514 225 514 174 q 486 315 514 278 q 419 378 458 353 q 310 436 379 403 q 194 499 236 472 q 122 569 151 526 q 92 671 92 611 q 124 781 92 731 q 213 860 156 831 q 342 889 269 889 m 479 1171 l 478 1164 q 278 976 382 1068 l 271 978 l 256 996 q 458 1186 351 1076 l 465 1185 l 479 1171 z "},"ś":{"ha":561,"x_min":85,"x_max":474,"o":"m 308 685 q 450 654 381 685 l 444 629 l 436 628 q 306 658 374 658 q 211 637 251 658 q 150 581 171 615 q 129 513 129 547 q 151 450 129 476 q 203 406 172 424 q 289 363 233 388 q 385 314 349 336 q 448 258 422 292 q 474 175 474 224 q 447 86 474 128 q 370 20 419 44 q 260 -4 321 -4 q 85 46 160 -4 l 86 72 l 93 74 q 260 22 165 22 q 358 44 315 22 q 423 100 400 65 q 446 174 446 135 q 424 241 446 213 q 369 288 401 269 q 281 333 338 307 q 186 382 221 361 q 126 435 151 403 q 101 515 101 468 q 128 600 101 561 q 201 662 154 639 q 308 685 249 685 m 426 968 l 425 961 q 225 774 329 865 l 218 775 l 203 793 q 406 983 299 874 l 413 982 l 426 968 z "},"Ŝ":{"ha":618,"x_min":72,"x_max":542,"o":"m 171 996 q 311 1171 224 1056 l 336 1171 q 476 996 424 1056 l 464 979 l 457 979 q 324 1142 390 1053 q 190 979 257 1053 l 183 979 l 171 996 m 342 889 q 511 849 425 889 l 506 824 l 496 822 q 339 861 419 861 q 222 833 272 861 q 146 759 172 804 q 119 667 119 714 q 146 583 119 618 q 210 524 172 547 q 317 468 249 501 q 435 403 392 431 q 510 331 479 375 q 542 225 542 288 q 508 110 542 164 q 416 26 475 57 q 283 -6 357 -6 q 172 11 229 -6 q 72 60 115 28 l 74 86 l 81 89 q 176 39 122 56 q 282 22 231 22 q 403 51 350 22 q 485 127 457 81 q 514 225 514 174 q 486 315 514 278 q 419 378 458 353 q 310 436 379 403 q 194 499 236 472 q 122 569 151 526 q 92 671 92 611 q 124 781 92 731 q 213 860 156 831 q 342 889 269 889 z "},"ŝ":{"ha":561,"x_min":85,"x_max":474,"o":"m 118 793 q 258 968 171 853 l 283 968 q 424 793 371 853 l 411 776 l 404 776 q 271 939 338 850 q 138 776 204 850 l 131 776 l 118 793 m 308 685 q 450 654 381 685 l 444 629 l 436 628 q 306 658 374 658 q 211 637 251 658 q 150 581 171 615 q 129 513 129 547 q 151 450 129 476 q 203 406 172 424 q 289 363 233 388 q 385 314 349 336 q 448 258 422 292 q 474 175 474 224 q 447 86 474 128 q 370 20 419 44 q 260 -4 321 -4 q 85 46 160 -4 l 86 72 l 93 74 q 260 22 165 22 q 358 44 315 22 q 423 100 400 65 q 446 174 446 135 q 424 241 446 213 q 369 288 401 269 q 281 333 338 307 q 186 382 221 361 q 126 435 151 403 q 101 515 101 468 q 128 600 101 561 q 201 662 154 639 q 308 685 249 685 z "},"Ş":{"ha":618,"x_min":72,"x_max":542,"o":"m 542 225 q 513 119 542 168 q 435 36 485 69 q 319 -4 385 3 l 296 -76 l 339 -104 q 385 -174 385 -133 q 360 -227 385 -207 q 301 -247 336 -247 q 219 -201 250 -247 l 228 -176 l 233 -176 q 263 -209 247 -199 q 301 -219 278 -219 q 342 -208 326 -219 q 357 -174 357 -196 q 349 -149 357 -158 q 324 -128 342 -140 l 263 -89 l 290 -6 l 283 -6 q 172 11 229 -6 q 72 60 115 28 l 74 86 l 81 89 q 176 39 122 56 q 282 22 231 22 q 403 51 350 22 q 485 127 457 81 q 514 225 514 174 q 486 315 514 278 q 419 378 458 353 q 310 436 379 403 q 194 499 236 472 q 122 569 151 526 q 92 671 92 611 q 124 781 92 731 q 213 860 156 831 q 342 889 269 889 q 511 849 425 889 l 506 824 l 496 822 q 339 861 419 861 q 222 833 272 861 q 146 759 172 804 q 119 667 119 714 q 146 583 119 618 q 210 524 172 547 q 317 468 249 501 q 435 403 392 431 q 510 331 479 375 q 542 225 542 288 z "},"ş":{"ha":561,"x_min":85,"x_max":474,"o":"m 474 175 q 421 55 474 106 q 283 -3 368 4 l 260 -76 l 303 -104 q 349 -174 349 -133 q 324 -227 349 -207 q 265 -247 300 -247 q 183 -201 214 -247 l 192 -176 l 197 -176 q 226 -209 211 -199 q 265 -219 242 -219 q 306 -208 290 -219 q 321 -174 321 -196 q 313 -149 321 -158 q 288 -128 306 -140 l 226 -89 l 254 -4 q 85 46 157 -1 l 86 72 l 93 74 q 260 22 165 22 q 358 44 315 22 q 423 100 400 65 q 446 174 446 135 q 424 241 446 213 q 369 288 401 269 q 281 333 338 307 q 186 382 221 361 q 126 435 151 403 q 101 515 101 468 q 128 600 101 561 q 201 662 154 639 q 308 685 249 685 q 450 654 381 685 l 444 629 l 436 628 q 306 658 374 658 q 211 637 251 658 q 150 581 171 615 q 129 513 129 547 q 151 450 129 476 q 203 406 172 424 q 289 363 233 388 q 385 314 349 336 q 448 258 422 292 q 474 175 474 224 z "},"Š":{"ha":618,"x_min":72,"x_max":542,"o":"m 342 889 q 511 849 425 889 l 506 824 l 496 822 q 339 861 419 861 q 222 833 272 861 q 146 759 172 804 q 119 667 119 714 q 146 583 119 618 q 210 524 172 547 q 317 468 249 501 q 435 403 392 431 q 510 331 479 375 q 542 225 542 288 q 508 110 542 164 q 416 26 475 57 q 283 -6 357 -6 q 172 11 229 -6 q 72 60 115 28 l 74 86 l 81 89 q 176 39 122 56 q 282 22 231 22 q 403 51 350 22 q 485 127 457 81 q 514 225 514 174 q 486 315 514 278 q 419 378 458 353 q 310 436 379 403 q 194 499 236 472 q 122 569 151 526 q 92 671 92 611 q 124 781 92 731 q 213 860 156 831 q 342 889 269 889 m 476 1154 q 336 979 424 1094 l 311 979 q 171 1154 224 1094 l 183 1171 l 190 1171 q 324 1008 257 1097 q 457 1171 390 1097 l 464 1171 l 476 1154 z "},"š":{"ha":561,"x_min":85,"x_max":474,"o":"m 308 685 q 450 654 381 685 l 444 629 l 436 628 q 306 658 374 658 q 211 637 251 658 q 150 581 171 615 q 129 513 129 547 q 151 450 129 476 q 203 406 172 424 q 289 363 233 388 q 385 314 349 336 q 448 258 422 292 q 474 175 474 224 q 447 86 474 128 q 370 20 419 44 q 260 -4 321 -4 q 85 46 160 -4 l 86 72 l 93 74 q 260 22 165 22 q 358 44 315 22 q 423 100 400 65 q 446 174 446 135 q 424 241 446 213 q 369 288 401 269 q 281 333 338 307 q 186 382 221 361 q 126 435 151 403 q 101 515 101 468 q 128 600 101 561 q 201 662 154 639 q 308 685 249 685 m 424 951 q 283 776 371 892 l 258 776 q 118 951 171 892 l 131 968 l 138 968 q 271 806 204 894 q 404 968 338 894 l 411 968 l 424 951 z "},"Ţ":{"ha":660,"x_min":39,"x_max":621,"o":"m 615 857 l 344 857 l 344 15 l 347 15 l 344 7 l 344 0 l 343 0 l 318 -76 l 361 -104 q 407 -174 407 -133 q 383 -227 407 -207 q 324 -247 358 -247 q 242 -201 272 -247 l 250 -176 l 256 -176 q 285 -209 269 -199 q 324 -219 300 -219 q 364 -208 349 -219 q 379 -174 379 -196 q 372 -149 379 -158 q 346 -128 364 -140 l 285 -89 l 317 7 l 317 857 l 43 857 l 39 863 l 44 885 l 617 885 l 621 879 l 615 857 z "},"ţ":{"ha":594,"x_min":58,"x_max":538,"o":"m 533 654 l 418 656 l 313 656 l 313 0 l 289 -76 l 332 -104 q 378 -174 378 -133 q 353 -227 378 -207 q 294 -247 329 -247 q 213 -201 243 -247 l 221 -176 l 226 -176 q 256 -209 240 -199 q 294 -219 271 -219 q 335 -208 319 -219 q 350 -174 350 -196 q 342 -149 350 -158 q 317 -128 335 -140 l 256 -89 l 285 0 l 285 656 l 182 656 l 63 654 l 58 660 l 63 682 l 535 682 l 538 676 l 533 654 z "},"Ť":{"ha":660,"x_min":39,"x_max":621,"o":"m 615 857 l 344 857 l 344 0 l 317 0 l 317 857 l 43 857 l 39 863 l 44 885 l 617 885 l 621 879 l 615 857 m 489 1154 q 349 979 436 1094 l 324 979 q 183 1154 236 1094 l 196 1171 l 203 1171 q 336 1008 269 1097 q 469 1171 403 1097 l 476 1171 l 489 1154 z "},"ť":{"ha":594,"x_min":58,"x_max":538,"o":"m 533 654 l 418 656 l 313 656 l 313 0 l 285 0 l 285 656 l 182 656 l 63 654 l 58 660 l 63 682 l 535 682 l 538 676 l 533 654 m 447 951 q 307 776 394 892 l 282 776 q 142 951 194 892 l 154 968 l 161 968 q 294 806 228 894 q 428 968 361 894 l 435 968 l 447 951 z "},"Ŧ":{"ha":660,"x_min":39,"x_max":621,"o":"m 344 486 l 489 486 l 493 482 l 490 458 l 344 458 l 344 0 l 317 0 l 317 458 l 182 458 l 178 463 l 181 486 l 317 486 l 317 857 l 43 857 l 39 863 l 44 885 l 617 885 l 621 879 l 615 857 l 344 857 l 344 486 z "},"ŧ":{"ha":594,"x_min":58,"x_max":538,"o":"m 313 361 l 451 361 l 456 357 l 453 333 l 313 333 l 313 0 l 285 0 l 285 333 l 144 333 l 140 338 l 143 361 l 285 361 l 285 656 l 182 656 l 63 654 l 58 660 l 63 682 l 535 682 l 538 676 l 533 654 l 418 656 l 313 656 l 313 361 z "},"Ũ":{"ha":850,"x_min":119,"x_max":731,"o":"m 731 318 q 654 80 735 165 q 425 -6 574 -6 q 198 78 276 -6 q 119 318 119 161 l 119 885 l 147 885 l 147 318 q 218 99 146 175 q 425 22 290 22 q 631 99 560 22 q 703 318 703 175 l 703 885 l 731 885 l 731 318 m 624 1113 l 551 1047 l 543 1044 q 431 1072 515 1047 q 326 1097 342 1097 q 285 1067 315 1097 l 256 1040 l 250 1040 l 238 1056 l 238 1061 l 310 1126 l 318 1129 q 431 1101 346 1126 q 535 1076 519 1076 q 576 1107 546 1076 l 606 1133 l 611 1133 l 624 1118 l 624 1113 z "},"ũ":{"ha":751,"x_min":125,"x_max":629,"o":"m 629 244 q 565 61 632 126 q 376 -4 499 -4 q 188 60 253 -4 q 125 244 124 125 l 126 344 l 126 682 l 156 682 l 153 246 q 209 80 151 138 q 376 22 267 22 q 544 80 486 22 q 601 246 601 138 l 601 682 l 629 682 l 629 244 m 574 910 l 501 844 l 493 842 q 381 869 465 844 q 276 894 292 894 q 235 864 265 894 l 206 838 l 200 838 l 188 853 l 188 858 l 260 924 l 268 926 q 381 899 296 924 q 485 874 469 874 q 526 904 496 874 l 556 931 l 561 931 l 574 915 l 574 910 z "},"Ū":{"ha":850,"x_min":119,"x_max":731,"o":"m 731 318 q 654 80 735 165 q 425 -6 574 -6 q 198 78 276 -6 q 119 318 119 161 l 119 885 l 147 885 l 147 318 q 218 99 146 175 q 425 22 290 22 q 631 99 560 22 q 703 318 703 175 l 703 885 l 731 885 l 731 318 m 631 1072 l 232 1072 l 228 1076 l 231 1100 l 629 1100 l 633 1096 l 631 1072 z "},"ū":{"ha":751,"x_min":125,"x_max":629,"o":"m 629 244 q 565 61 632 126 q 376 -4 499 -4 q 188 60 253 -4 q 125 244 124 125 l 126 344 l 126 682 l 156 682 l 153 246 q 209 80 151 138 q 376 22 267 22 q 544 80 486 22 q 601 246 601 138 l 601 682 l 629 682 l 629 244 m 581 869 l 182 869 l 178 874 l 181 897 l 579 897 l 583 893 l 581 869 z "},"Ŭ":{"ha":850,"x_min":119,"x_max":731,"o":"m 731 318 q 654 80 735 165 q 425 -6 574 -6 q 198 78 276 -6 q 119 318 119 161 l 119 885 l 147 885 l 147 318 q 218 99 146 175 q 425 22 290 22 q 631 99 560 22 q 703 318 703 175 l 703 885 l 731 885 l 731 318 m 571 1128 q 431 982 544 982 q 290 1128 317 982 l 308 1146 l 315 1146 q 431 1010 333 1010 q 546 1146 528 1010 l 553 1146 l 571 1128 z "},"ŭ":{"ha":751,"x_min":125,"x_max":629,"o":"m 629 244 q 565 61 632 126 q 376 -4 499 -4 q 188 60 253 -4 q 125 244 124 125 l 126 344 l 126 682 l 156 682 l 153 246 q 209 80 151 138 q 376 22 267 22 q 544 80 486 22 q 601 246 601 138 l 601 682 l 629 682 l 629 244 m 521 925 q 381 779 494 779 q 240 925 267 779 l 258 943 l 265 943 q 381 807 283 807 q 496 943 478 807 l 503 943 l 521 925 z "},"Ů":{"ha":850,"x_min":119,"x_max":731,"o":"m 731 318 q 654 80 735 165 q 425 -6 574 -6 q 198 78 276 -6 q 119 318 119 161 l 119 885 l 147 885 l 147 318 q 218 99 146 175 q 425 22 290 22 q 631 99 560 22 q 703 318 703 175 l 703 885 l 731 885 l 731 318 m 428 1185 q 500 1156 474 1185 q 526 1088 526 1126 q 497 1018 526 1044 q 428 992 467 992 q 360 1019 389 992 q 331 1089 331 1046 q 358 1158 331 1131 q 428 1185 385 1185 m 428 1157 q 377 1138 396 1157 q 358 1089 358 1119 q 378 1038 358 1057 q 428 1019 399 1019 q 478 1038 457 1019 q 499 1088 499 1056 q 480 1137 499 1117 q 428 1157 461 1157 z "},"ů":{"ha":751,"x_min":125,"x_max":629,"o":"m 629 244 q 565 61 632 126 q 376 -4 499 -4 q 188 60 253 -4 q 125 244 124 125 l 126 344 l 126 682 l 156 682 l 153 246 q 209 80 151 138 q 376 22 267 22 q 544 80 486 22 q 601 246 601 138 l 601 682 l 629 682 l 629 244 m 378 982 q 450 953 424 982 q 476 885 476 924 q 447 815 476 842 q 378 789 417 789 q 310 816 339 789 q 281 886 281 843 q 308 955 281 928 q 378 982 335 982 m 378 954 q 327 935 346 954 q 308 886 308 917 q 328 835 308 854 q 378 817 349 817 q 428 835 407 817 q 449 885 449 853 q 430 934 449 914 q 378 954 411 954 z "},"Ű":{"ha":850,"x_min":119,"x_max":731,"o":"m 731 318 q 654 80 735 165 q 425 -6 574 -6 q 198 78 276 -6 q 119 318 119 161 l 119 885 l 147 885 l 147 318 q 218 99 146 175 q 425 22 290 22 q 631 99 560 22 q 703 318 703 175 l 703 885 l 731 885 l 731 318 m 322 1051 q 446 1168 426 1149 l 453 1167 l 467 1153 l 465 1146 q 310 1000 417 1097 l 303 1001 l 288 1019 l 322 1051 m 503 1051 q 626 1168 607 1149 l 633 1167 l 647 1153 l 646 1146 q 490 1000 597 1097 l 483 1001 l 468 1019 l 503 1051 z "},"ű":{"ha":751,"x_min":125,"x_max":638,"o":"m 629 244 q 565 61 632 126 q 376 -4 499 -4 q 188 60 253 -4 q 125 244 124 125 l 126 344 l 126 682 l 156 682 l 153 246 q 209 80 151 138 q 376 22 267 22 q 544 80 486 22 q 601 246 601 138 l 601 682 l 629 682 l 629 244 m 233 790 q 436 981 339 885 l 443 979 l 457 965 l 456 958 q 256 771 357 863 l 249 772 l 233 790 m 414 790 q 617 981 519 885 l 624 979 l 638 965 l 636 958 q 436 771 539 863 l 429 772 l 414 790 z "},"Ų":{"ha":850,"x_min":119,"x_max":731,"o":"m 664 -194 q 533 -274 603 -274 q 468 -249 493 -274 q 443 -183 443 -225 q 471 -100 443 -140 l 547 13 q 425 -6 489 -6 q 198 78 276 -6 q 119 318 119 161 l 119 885 l 147 885 l 147 318 q 218 99 146 175 q 425 22 290 22 q 631 99 560 22 q 703 318 703 175 l 703 885 l 731 885 l 731 318 q 699 145 733 218 q 596 35 664 72 l 499 -108 q 471 -183 471 -149 q 488 -228 471 -211 q 533 -246 504 -246 q 646 -172 592 -246 l 649 -172 l 664 -194 z "},"ų":{"ha":751,"x_min":125,"x_max":629,"o":"m 590 -197 q 460 -276 529 -276 q 394 -252 419 -276 q 369 -186 369 -228 q 397 -103 369 -143 l 472 8 q 376 -4 429 -4 q 188 60 253 -4 q 125 244 124 125 l 126 344 l 126 682 l 156 682 l 153 246 q 209 80 151 138 q 376 22 267 22 q 544 80 486 22 q 601 246 601 138 l 601 682 l 629 682 l 629 244 q 517 26 633 88 l 425 -111 q 397 -186 397 -151 q 414 -231 397 -214 q 460 -249 431 -249 q 572 -175 518 -249 l 575 -175 l 590 -197 z "},"Ŵ":{"ha":1228,"x_min":32,"x_max":1210,"o":"m 454 1044 q 590 1150 519 1090 l 613 1150 q 751 1044 704 1078 l 742 1025 l 735 1025 q 603 1122 671 1069 q 471 1025 535 1069 l 464 1025 l 454 1044 m 836 0 l 619 608 l 614 608 l 378 0 l 350 0 l 32 885 l 64 885 l 82 825 l 363 47 l 368 47 l 603 654 l 519 885 l 550 885 l 568 825 l 849 47 l 854 47 l 1158 825 l 1178 885 l 1210 885 l 864 0 l 836 0 z "},"ŵ":{"ha":1060,"x_min":53,"x_max":1019,"o":"m 343 793 q 483 968 396 853 l 508 968 q 649 793 596 853 l 636 776 l 629 776 q 496 939 563 850 q 363 776 429 850 l 356 776 l 343 793 m 710 0 l 535 460 l 531 460 l 340 0 l 311 0 l 53 682 l 85 682 l 99 633 l 325 43 l 329 43 l 519 504 l 451 682 l 482 682 l 497 632 l 722 43 l 728 43 l 972 633 l 989 682 l 1019 682 l 739 0 l 710 0 z "},"Ŷ":{"ha":688,"x_min":36,"x_max":647,"o":"m 183 1044 q 319 1150 249 1090 l 342 1150 q 481 1044 433 1078 l 471 1025 l 464 1025 q 332 1122 400 1069 q 200 1025 264 1069 l 193 1025 l 183 1044 m 344 0 l 317 0 l 317 342 l 36 885 l 72 885 l 88 849 l 328 385 l 335 385 l 596 849 l 611 885 l 647 885 l 344 340 l 344 0 z "},"ŷ":{"ha":621,"x_min":56,"x_max":563,"o":"m 161 793 q 301 968 214 853 l 326 968 q 467 793 414 853 l 454 776 l 447 776 q 314 939 381 850 q 181 776 247 850 l 174 776 l 161 793 m 314 0 l 286 0 l 286 260 l 56 682 l 90 682 l 103 653 l 297 301 l 303 301 l 514 653 l 528 682 l 563 682 l 314 258 l 314 0 z "},"Ÿ":{"ha":688,"x_min":36,"x_max":647,"o":"m 235 1056 q 207 1083 207 1056 q 235 1111 207 1111 q 263 1083 263 1111 q 235 1056 263 1056 m 429 1056 q 401 1083 401 1056 q 429 1111 401 1111 q 457 1083 457 1111 q 429 1056 457 1056 m 344 0 l 317 0 l 317 342 l 36 885 l 72 885 l 88 849 l 328 385 l 335 385 l 596 849 l 611 885 l 647 885 l 344 340 l 344 0 z "},"Ź":{"ha":704,"x_min":44,"x_max":642,"o":"m 82 28 l 542 28 l 636 29 l 642 22 l 638 0 l 94 0 l 44 -1 l 44 24 l 601 857 l 157 857 l 76 856 l 71 863 l 75 886 l 165 885 l 588 885 l 639 886 l 639 861 l 82 28 m 538 1142 l 535 1135 q 293 1006 442 1082 l 286 1010 l 276 1031 q 521 1161 403 1092 l 528 1158 l 538 1142 z "},"ź":{"ha":632,"x_min":63,"x_max":556,"o":"m 100 26 l 471 26 l 550 28 l 556 22 l 551 0 l 106 0 l 63 -1 l 63 22 l 515 656 l 156 656 l 88 654 l 83 660 l 88 683 l 164 682 l 510 682 l 553 683 l 553 658 l 100 26 m 453 968 l 451 961 q 251 774 356 865 l 244 775 l 229 793 q 432 983 325 874 l 439 982 l 453 968 z "},"Ż":{"ha":704,"x_min":44,"x_max":642,"o":"m 363 1133 q 390 1106 390 1133 q 363 1078 390 1078 q 335 1106 335 1078 q 363 1133 335 1133 m 82 28 l 542 28 l 636 29 l 642 22 l 638 0 l 94 0 l 44 -1 l 44 24 l 601 857 l 157 857 l 76 856 l 71 863 l 75 886 l 165 885 l 588 885 l 639 886 l 639 861 l 82 28 z "},"ż":{"ha":632,"x_min":63,"x_max":556,"o":"m 297 931 q 325 903 325 931 q 297 875 325 875 q 269 903 269 875 q 297 931 269 931 m 100 26 l 471 26 l 550 28 l 556 22 l 551 0 l 106 0 l 63 -1 l 63 22 l 515 656 l 156 656 l 88 654 l 83 660 l 88 683 l 164 682 l 510 682 l 553 683 l 553 658 l 100 26 z "},"Ž":{"ha":704,"x_min":44,"x_max":642,"o":"m 82 28 l 542 28 l 636 29 l 642 22 l 638 0 l 94 0 l 44 -1 l 44 24 l 601 857 l 157 857 l 76 856 l 71 863 l 75 886 l 165 885 l 588 885 l 639 886 l 639 861 l 82 28 m 511 1118 q 375 1013 446 1072 l 353 1013 q 214 1118 261 1085 l 224 1138 l 231 1138 q 363 1040 294 1093 q 494 1138 431 1093 l 501 1138 l 511 1118 z "},"ž":{"ha":632,"x_min":63,"x_max":556,"o":"m 100 26 l 471 26 l 550 28 l 556 22 l 551 0 l 106 0 l 63 -1 l 63 22 l 515 656 l 156 656 l 88 654 l 83 660 l 88 683 l 164 682 l 510 682 l 553 683 l 553 658 l 100 26 m 450 951 q 310 776 397 892 l 285 776 q 144 951 197 892 l 157 968 l 164 968 q 297 806 231 894 q 431 968 364 894 l 438 968 l 450 951 z "},"ƒ":{"ha":326,"x_min":-15,"x_max":458,"o":"m 372 849 q 458 838 406 849 l 451 811 l 447 808 q 374 821 415 821 q 214 661 235 821 l 194 507 l 353 507 l 357 501 l 354 479 l 192 479 l 139 57 q 101 -86 129 -33 q 1 -207 74 -139 l -15 -193 l -14 -186 q 76 -74 51 -122 q 111 54 101 -25 l 136 257 l 164 479 l 76 479 l 71 485 l 74 507 l 167 507 l 186 661 q 244 800 196 751 q 372 849 293 849 z "},"Ơ":{"ha":875,"x_min":67,"x_max":831,"o":"m 776 1046 q 798 1031 785 1046 q 821 992 811 1017 q 831 938 831 967 q 785 844 831 876 q 669 815 740 813 q 804 451 804 703 q 706 113 804 233 q 429 -7 608 -7 q 160 109 254 -7 q 67 440 67 225 q 164 775 67 658 q 446 892 261 892 q 607 860 521 892 q 686 840 653 840 q 768 865 733 840 q 803 932 803 889 q 756 1032 803 982 l 758 1039 q 776 1046 769 1046 m 440 864 q 184 754 274 864 q 94 439 94 644 q 181 129 94 238 q 429 21 268 21 q 686 134 596 21 q 776 453 776 247 q 690 758 776 653 q 440 864 603 864 z "},"ơ":{"ha":772,"x_min":81,"x_max":711,"o":"m 647 800 q 665 807 657 807 q 695 781 679 807 q 711 722 711 756 q 674 649 711 675 q 579 626 638 624 q 688 349 688 539 q 607 88 688 181 q 379 -6 526 -6 q 158 84 236 -6 q 81 339 81 174 q 161 597 81 507 q 393 688 242 688 q 525 664 460 688 q 590 649 565 649 q 657 667 629 649 q 685 718 685 686 q 646 794 685 756 l 647 800 m 379 21 q 587 106 514 21 q 660 349 660 192 q 590 581 660 501 q 388 660 521 660 q 181 577 253 660 q 110 339 110 494 q 179 103 110 185 q 379 21 249 21 z "},"Ư":{"ha":864,"x_min":119,"x_max":840,"o":"m 731 318 q 654 80 735 165 q 425 -6 574 -6 q 198 78 276 -6 q 119 318 119 161 l 119 885 l 147 885 l 147 318 q 218 99 146 175 q 425 22 290 22 q 631 99 560 22 q 703 318 703 175 l 703 885 l 717 885 q 786 905 760 885 q 813 958 813 925 q 765 1043 813 997 l 768 1050 q 785 1057 779 1057 q 806 1043 793 1057 q 830 1006 819 1029 q 840 958 840 983 q 810 888 840 915 q 731 857 781 861 l 731 318 z "},"ư":{"ha":763,"x_min":125,"x_max":719,"o":"m 629 244 q 565 61 632 126 q 376 -4 499 -4 q 188 60 253 -4 q 125 244 124 125 l 126 344 l 126 682 l 156 682 l 153 246 q 209 80 151 138 q 376 22 267 22 q 544 80 486 22 q 601 246 601 138 l 601 682 l 615 682 q 672 697 650 682 q 693 738 693 713 q 654 803 693 768 l 657 808 q 674 815 665 815 q 702 792 685 815 q 719 739 719 768 q 695 684 719 706 q 629 658 671 663 l 629 244 z "},"Ǎ":{"ha":769,"x_min":26,"x_max":731,"o":"m 699 0 l 681 60 l 593 296 l 174 296 l 79 60 l 60 0 l 26 0 l 379 885 l 407 885 l 731 0 l 699 0 m 394 838 l 389 838 l 185 324 l 583 324 l 394 838 m 533 1118 q 397 1013 468 1072 l 375 1013 q 236 1118 283 1085 l 246 1138 l 253 1138 q 385 1040 317 1093 q 517 1138 453 1093 l 524 1138 l 533 1118 z "},"ǎ":{"ha":686,"x_min":47,"x_max":628,"o":"m 596 0 l 582 49 l 514 224 l 169 224 l 96 49 l 79 0 l 47 0 l 335 682 l 364 682 l 628 0 l 596 0 m 350 640 l 346 640 l 181 250 l 503 250 l 350 640 m 501 951 q 361 776 449 892 l 336 776 q 196 951 249 892 l 208 968 l 215 968 q 349 806 282 894 q 482 968 415 894 l 489 968 l 501 951 z "},"Ǐ":{"ha":333,"x_min":18,"x_max":315,"o":"m 153 0 l 153 885 l 181 885 l 181 0 l 153 0 m 315 1118 q 179 1013 250 1072 l 157 1013 q 18 1118 65 1085 l 28 1138 l 35 1138 q 167 1040 99 1093 q 299 1138 235 1093 l 306 1138 l 315 1118 z "},"ǐ":{"ha":329,"x_min":14,"x_max":319,"o":"m 150 0 l 150 682 l 178 682 l 178 0 l 150 0 m 319 951 q 179 776 267 892 l 154 776 q 14 951 67 892 l 26 968 l 33 968 q 167 806 100 894 q 300 968 233 894 l 307 968 l 319 951 z "},"Ǒ":{"ha":871,"x_min":67,"x_max":804,"o":"m 442 892 q 710 779 617 892 q 804 457 804 667 q 707 113 804 233 q 428 -7 610 -7 q 160 109 254 -7 q 67 440 67 225 q 164 775 67 658 q 442 892 261 892 m 442 864 q 184 754 274 864 q 94 440 94 644 q 181 130 94 239 q 428 21 267 21 q 686 134 596 21 q 776 457 776 247 q 690 758 776 653 q 442 864 603 864 m 585 1118 q 449 1013 519 1072 l 426 1013 q 288 1118 335 1085 l 297 1138 l 304 1138 q 436 1040 368 1093 q 568 1138 504 1093 l 575 1138 l 585 1118 z "},"ǒ":{"ha":768,"x_min":81,"x_max":688,"o":"m 390 688 q 610 601 533 688 q 688 353 688 514 q 607 88 688 181 q 378 -6 526 -6 q 158 84 235 -6 q 81 339 81 174 q 160 597 81 507 q 390 688 240 688 m 389 660 q 181 578 253 660 q 110 340 110 496 q 179 103 110 185 q 378 21 249 21 q 587 106 514 21 q 660 350 660 190 q 590 580 660 500 q 389 660 519 660 m 539 951 q 399 776 486 892 l 374 776 q 233 951 286 892 l 246 968 l 253 968 q 386 806 319 894 q 519 968 453 894 l 526 968 l 539 951 z "},"Ǔ":{"ha":850,"x_min":119,"x_max":731,"o":"m 731 318 q 654 80 735 165 q 425 -6 574 -6 q 198 78 276 -6 q 119 318 119 161 l 119 885 l 147 885 l 147 318 q 218 99 146 175 q 425 22 290 22 q 631 99 560 22 q 703 318 703 175 l 703 885 l 731 885 l 731 318 m 583 1154 q 443 979 531 1094 l 418 979 q 278 1154 331 1094 l 290 1171 l 297 1171 q 431 1008 364 1097 q 564 1171 497 1097 l 571 1171 l 583 1154 z "},"ǔ":{"ha":751,"x_min":125,"x_max":629,"o":"m 629 244 q 565 61 632 126 q 376 -4 499 -4 q 188 60 253 -4 q 125 244 124 125 l 126 344 l 126 682 l 156 682 l 153 246 q 209 80 151 138 q 376 22 267 22 q 544 80 486 22 q 601 246 601 138 l 601 682 l 629 682 l 629 244 m 533 951 q 393 776 481 892 l 368 776 q 228 951 281 892 l 240 968 l 247 968 q 381 806 314 894 q 514 968 447 894 l 521 968 l 533 951 z "},"Ǖ":{"ha":850,"x_min":119,"x_max":731,"o":"m 731 318 q 654 80 735 165 q 425 -6 574 -6 q 198 78 276 -6 q 119 318 119 161 l 119 885 l 147 885 l 147 318 q 218 99 146 175 q 425 22 290 22 q 631 99 560 22 q 703 318 703 175 l 703 885 l 731 885 l 731 318 m 596 1189 l 267 1189 l 263 1193 l 265 1217 l 594 1217 l 599 1213 l 596 1189 m 332 1083 q 360 1056 360 1083 q 332 1028 360 1028 q 304 1056 304 1028 q 332 1083 304 1083 m 526 1083 q 554 1056 554 1083 q 526 1028 554 1028 q 499 1056 499 1028 q 526 1083 499 1083 z "},"ǖ":{"ha":751,"x_min":125,"x_max":629,"o":"m 629 244 q 565 61 632 126 q 376 -4 499 -4 q 188 60 253 -4 q 125 244 124 125 l 126 344 l 126 682 l 156 682 l 153 246 q 209 80 151 138 q 376 22 267 22 q 544 80 486 22 q 601 246 601 138 l 601 682 l 629 682 l 629 244 m 546 986 l 217 986 l 213 990 l 215 1014 l 544 1014 l 549 1010 l 546 986 m 282 881 q 310 853 310 881 q 282 825 310 825 q 254 853 254 825 q 282 881 254 881 m 476 881 q 504 853 504 881 q 476 825 504 825 q 449 853 449 825 q 476 881 449 881 z "},"Ǘ":{"ha":850,"x_min":119,"x_max":731,"o":"m 731 318 q 654 80 735 165 q 425 -6 574 -6 q 198 78 276 -6 q 119 318 119 161 l 119 885 l 147 885 l 147 318 q 218 99 146 175 q 425 22 290 22 q 631 99 560 22 q 703 318 703 175 l 703 885 l 731 885 l 731 318 m 571 1257 l 567 1250 q 307 1165 456 1210 l 300 1171 l 294 1193 q 558 1279 424 1229 l 564 1275 l 571 1257 m 332 1083 q 360 1056 360 1083 q 332 1028 360 1028 q 304 1056 304 1028 q 332 1083 304 1083 m 526 1083 q 554 1056 554 1083 q 526 1028 554 1028 q 499 1056 499 1028 q 526 1083 499 1083 z "},"ǘ":{"ha":751,"x_min":125,"x_max":629,"o":"m 629 244 q 565 61 632 126 q 376 -4 499 -4 q 188 60 253 -4 q 125 244 124 125 l 126 344 l 126 682 l 156 682 l 153 246 q 209 80 151 138 q 376 22 267 22 q 544 80 486 22 q 601 246 601 138 l 601 682 l 629 682 l 629 244 m 521 1054 l 517 1047 q 257 963 406 1007 l 250 968 l 244 990 q 508 1076 374 1026 l 514 1072 l 521 1054 m 282 881 q 310 853 310 881 q 282 825 310 825 q 254 853 254 825 q 282 881 254 881 m 476 881 q 504 853 504 881 q 476 825 504 825 q 449 853 449 825 q 476 881 449 881 z "},"Ǚ":{"ha":850,"x_min":119,"x_max":731,"o":"m 731 318 q 654 80 735 165 q 425 -6 574 -6 q 198 78 276 -6 q 119 318 119 161 l 119 885 l 147 885 l 147 318 q 218 99 146 175 q 425 22 290 22 q 631 99 560 22 q 703 318 703 175 l 703 885 l 731 885 l 731 318 m 579 1235 q 443 1129 514 1189 l 421 1129 q 282 1235 329 1201 l 292 1254 l 299 1254 q 431 1157 363 1210 q 563 1254 499 1210 l 569 1254 l 579 1235 m 332 1083 q 360 1056 360 1083 q 332 1028 360 1028 q 304 1056 304 1028 q 332 1083 304 1083 m 526 1083 q 554 1056 554 1083 q 526 1028 554 1028 q 499 1056 499 1028 q 526 1083 499 1083 z "},"ǚ":{"ha":751,"x_min":125,"x_max":629,"o":"m 629 244 q 565 61 632 126 q 376 -4 499 -4 q 188 60 253 -4 q 125 244 124 125 l 126 344 l 126 682 l 156 682 l 153 246 q 209 80 151 138 q 376 22 267 22 q 544 80 486 22 q 601 246 601 138 l 601 682 l 629 682 l 629 244 m 529 1032 q 393 926 464 986 l 371 926 q 232 1032 279 999 l 242 1051 l 249 1051 q 381 954 313 1007 q 513 1051 449 1007 l 519 1051 l 529 1032 m 282 881 q 310 853 310 881 q 282 825 310 825 q 254 853 254 825 q 282 881 254 881 m 476 881 q 504 853 504 881 q 476 825 504 825 q 449 853 449 825 q 476 881 449 881 z "},"Ǜ":{"ha":850,"x_min":119,"x_max":731,"o":"m 731 318 q 654 80 735 165 q 425 -6 574 -6 q 198 78 276 -6 q 119 318 119 161 l 119 885 l 147 885 l 147 318 q 218 99 146 175 q 425 22 290 22 q 631 99 560 22 q 703 318 703 175 l 703 885 l 731 885 l 731 318 m 307 1279 q 571 1193 442 1229 l 565 1171 l 558 1165 q 299 1250 410 1210 l 294 1257 l 301 1275 l 307 1279 m 332 1083 q 360 1056 360 1083 q 332 1028 360 1028 q 304 1056 304 1028 q 332 1083 304 1083 m 526 1083 q 554 1056 554 1083 q 526 1028 554 1028 q 499 1056 499 1028 q 526 1083 499 1083 z "},"ǜ":{"ha":751,"x_min":125,"x_max":629,"o":"m 629 244 q 565 61 632 126 q 376 -4 499 -4 q 188 60 253 -4 q 125 244 124 125 l 126 344 l 126 682 l 156 682 l 153 246 q 209 80 151 138 q 376 22 267 22 q 544 80 486 22 q 601 246 601 138 l 601 682 l 629 682 l 629 244 m 257 1076 q 521 990 392 1026 l 515 968 l 508 963 q 249 1047 360 1007 l 244 1054 l 251 1072 l 257 1076 m 282 881 q 310 853 310 881 q 282 825 310 825 q 254 853 254 825 q 282 881 254 881 m 476 881 q 504 853 504 881 q 476 825 504 825 q 449 853 449 825 q 476 881 449 881 z "},"Ǫ":{"ha":871,"x_min":67,"x_max":804,"o":"m 481 -108 q 453 -183 453 -149 q 469 -228 453 -211 q 515 -246 486 -246 q 628 -172 574 -246 l 631 -172 l 646 -194 q 515 -274 585 -274 q 450 -249 475 -274 q 425 -183 425 -225 q 453 -100 425 -140 l 522 3 q 428 -7 482 -7 q 160 109 254 -7 q 67 440 67 225 q 164 775 67 658 q 442 892 261 892 q 710 779 617 892 q 804 457 804 667 q 742 167 804 279 q 563 14 681 54 l 481 -108 m 94 440 q 181 130 94 239 q 428 21 267 21 q 686 134 596 21 q 776 457 776 247 q 690 758 776 653 q 442 864 603 864 q 184 754 274 864 q 94 440 94 644 z "},"ǫ":{"ha":768,"x_min":81,"x_max":688,"o":"m 421 -108 q 393 -183 393 -149 q 410 -228 393 -211 q 456 -246 426 -246 q 568 -172 514 -246 l 571 -172 l 586 -194 q 456 -274 525 -274 q 390 -249 415 -274 q 365 -183 365 -225 q 393 -100 365 -140 l 463 3 q 378 -6 424 -6 q 158 84 235 -6 q 81 339 81 174 q 160 597 81 507 q 390 688 240 688 q 610 601 533 688 q 688 353 688 514 q 641 136 688 222 q 504 15 594 50 l 421 -108 m 110 340 q 179 103 110 185 q 378 21 249 21 q 587 106 514 21 q 660 350 660 190 q 590 580 660 500 q 389 660 519 660 q 181 578 253 660 q 110 340 110 496 z "},"Ǻ":{"ha":769,"x_min":26,"x_max":731,"o":"m 285 1101 q 549 1188 414 1138 l 556 1183 l 561 1165 l 558 1158 q 297 1074 456 1121 l 292 1079 l 285 1101 m 699 0 l 681 60 l 593 296 l 174 296 l 79 60 l 60 0 l 26 0 l 369 860 q 317 893 339 868 q 296 954 296 918 q 323 1023 296 996 q 393 1050 350 1050 q 465 1021 439 1050 q 492 953 492 992 q 470 892 492 917 q 417 860 449 867 l 731 0 l 699 0 m 324 954 q 344 903 324 922 q 393 885 364 885 q 443 903 422 885 q 464 953 464 921 q 445 1002 464 982 q 393 1022 426 1022 q 342 1003 361 1022 q 324 954 324 985 m 394 838 l 389 838 l 185 324 l 583 324 l 394 838 z "},"ǻ":{"ha":686,"x_min":47,"x_max":628,"o":"m 238 1033 q 501 1119 367 1069 l 508 1115 l 514 1097 l 511 1090 q 250 1006 408 1053 l 244 1011 l 238 1033 m 249 886 q 276 955 249 928 q 346 982 303 982 q 418 953 392 982 q 444 885 444 924 q 415 815 444 842 q 346 789 385 789 q 278 816 307 789 q 249 886 249 843 m 417 885 q 398 934 417 914 q 346 954 379 954 q 295 935 314 954 q 276 886 276 917 q 297 835 276 854 q 346 817 317 817 q 396 835 375 817 q 417 885 417 853 m 596 0 l 582 49 l 514 224 l 169 224 l 96 49 l 79 0 l 47 0 l 335 682 l 364 682 l 628 0 l 596 0 m 350 640 l 346 640 l 181 250 l 503 250 l 350 640 z "},"Ǽ":{"ha":1099,"x_min":-21,"x_max":1064,"o":"m 1058 0 l 636 0 l 629 60 l 571 403 l 208 343 l 46 60 l 17 0 l -21 0 l 490 885 l 908 885 l 913 879 l 906 857 l 524 857 l 594 435 l 922 489 l 926 485 l 922 461 l 599 408 l 663 28 l 1061 28 l 1064 22 l 1058 0 m 497 836 l 493 836 l 228 375 l 567 431 l 497 836 m 860 1142 l 857 1135 q 615 1006 764 1082 l 608 1010 l 599 1031 q 843 1161 725 1092 l 850 1158 l 860 1142 z "},"ǽ":{"ha":956,"x_min":10,"x_max":901,"o":"m 897 0 l 547 0 l 540 49 l 494 307 l 197 258 l 69 49 l 46 0 l 10 0 l 426 682 l 775 682 l 779 676 l 774 654 l 463 656 l 518 338 l 785 379 l 789 376 l 786 353 l 522 313 l 572 26 l 899 26 l 901 22 l 897 0 m 435 639 l 431 639 l 217 289 l 489 333 l 435 639 m 718 968 l 717 961 q 517 774 621 865 l 510 775 l 494 793 q 697 983 590 874 l 704 982 l 718 968 z "},"Ǿ":{"ha":871,"x_min":67,"x_max":804,"o":"m 629 847 q 804 457 804 747 q 707 113 804 233 q 428 -7 610 -7 q 253 32 328 -7 l 182 -121 l 160 -117 l 157 -111 l 229 46 q 67 440 67 153 q 164 775 67 658 q 442 892 261 892 q 604 860 533 892 l 663 985 l 685 981 l 688 974 l 629 847 m 94 440 q 242 72 94 172 l 593 833 q 442 864 531 864 q 184 754 274 864 q 94 440 94 644 m 428 21 q 686 134 596 21 q 776 457 776 247 q 617 821 776 728 l 265 58 q 428 21 335 21 m 608 1142 l 606 1135 q 364 1006 513 1082 l 357 1010 l 347 1031 q 592 1161 474 1092 l 599 1158 l 608 1142 z "},"ǿ":{"ha":768,"x_min":81,"x_max":688,"o":"m 539 656 q 688 353 688 581 q 607 88 688 181 q 378 -6 526 -6 q 256 15 307 -6 l 194 -121 l 172 -117 l 169 -111 l 231 26 q 81 339 81 104 q 160 597 81 507 q 390 688 240 688 q 515 667 461 688 l 558 764 l 579 761 l 582 754 l 539 656 m 110 340 q 242 51 110 124 l 503 640 q 389 660 451 660 q 181 578 253 660 q 110 340 110 496 m 378 21 q 587 106 514 21 q 660 350 660 190 q 526 629 660 561 l 265 40 q 378 21 317 21 m 511 968 l 510 961 q 310 774 414 865 l 303 775 l 288 793 q 490 983 383 874 l 497 982 l 511 968 z "},"Ș":{"ha":618,"x_min":72,"x_max":542,"o":"m 342 889 q 511 849 425 889 l 506 824 l 496 822 q 339 861 419 861 q 222 833 272 861 q 146 759 172 804 q 119 667 119 714 q 146 583 119 618 q 210 524 172 547 q 317 468 249 501 q 435 403 392 431 q 510 331 479 375 q 542 225 542 288 q 508 110 542 164 q 416 26 475 57 q 283 -6 357 -6 q 172 11 229 -6 q 72 60 115 28 l 74 86 l 81 89 q 176 39 122 56 q 282 22 231 22 q 403 51 350 22 q 485 127 457 81 q 514 225 514 174 q 486 315 514 278 q 419 378 458 353 q 310 436 379 403 q 194 499 236 472 q 122 569 151 526 q 92 671 92 611 q 124 781 92 731 q 213 860 156 831 q 342 889 269 889 m 297 -97 q 350 -164 350 -121 q 258 -293 350 -222 l 244 -278 l 246 -274 q 321 -165 321 -218 q 279 -118 321 -137 l 279 -112 q 297 -97 286 -103 z "},"ș":{"ha":561,"x_min":85,"x_max":474,"o":"m 308 685 q 450 654 381 685 l 444 629 l 436 628 q 306 658 374 658 q 211 637 251 658 q 150 581 171 615 q 129 513 129 547 q 151 450 129 476 q 203 406 172 424 q 289 363 233 388 q 385 314 349 336 q 448 258 422 292 q 474 175 474 224 q 447 86 474 128 q 370 20 419 44 q 260 -4 321 -4 q 85 46 160 -4 l 86 72 l 93 74 q 260 22 165 22 q 358 44 315 22 q 423 100 400 65 q 446 174 446 135 q 424 241 446 213 q 369 288 401 269 q 281 333 338 307 q 186 382 221 361 q 126 435 151 403 q 101 515 101 468 q 128 600 101 561 q 201 662 154 639 q 308 685 249 685 m 261 -97 q 314 -164 314 -121 q 222 -293 314 -222 l 208 -278 l 210 -274 q 285 -165 285 -218 q 243 -118 285 -137 l 243 -112 q 261 -97 250 -103 z "},"Ț":{"ha":660,"x_min":39,"x_max":621,"o":"m 615 857 l 344 857 l 344 0 l 317 0 l 317 857 l 43 857 l 39 863 l 44 885 l 617 885 l 621 879 l 615 857 m 319 -97 q 372 -164 372 -121 q 281 -293 372 -222 l 267 -278 l 268 -274 q 343 -165 343 -218 q 301 -118 343 -137 l 301 -112 q 319 -97 308 -103 z "},"ț":{"ha":594,"x_min":58,"x_max":538,"o":"m 533 654 l 418 656 l 313 656 l 313 0 l 285 0 l 285 656 l 182 656 l 63 654 l 58 660 l 63 682 l 535 682 l 538 676 l 533 654 m 289 -97 q 342 -164 342 -121 q 250 -293 342 -222 l 236 -278 l 238 -274 q 313 -165 313 -218 q 271 -118 313 -137 l 271 -112 q 289 -97 278 -103 z "},"ȷ":{"ha":363,"x_min":39,"x_max":213,"o":"m 213 124 q 183 -5 213 47 q 83 -106 154 -57 l 67 -90 l 67 -83 q 158 8 131 -40 q 185 122 185 56 l 185 656 l 43 656 l 39 660 l 43 682 l 213 682 l 213 124 z "},"ˆ":{"ha":542,"x_min":118,"x_max":424,"o":"m 118 739 q 258 914 171 799 l 283 914 q 424 739 371 799 l 411 722 l 404 722 q 271 885 338 796 q 138 722 204 796 l 131 722 l 118 739 z "},"ˇ":{"ha":542,"x_min":118,"x_max":424,"o":"m 424 897 q 283 722 371 838 l 258 722 q 118 897 171 838 l 131 914 l 138 914 q 271 751 204 840 q 404 914 338 840 l 411 914 l 424 897 z "},"ˉ":{"ha":542,"x_min":68,"x_max":474,"o":"m 471 815 l 72 815 l 68 819 l 71 843 l 469 843 l 474 839 l 471 815 z "},"˘":{"ha":542,"x_min":131,"x_max":411,"o":"m 411 871 q 271 725 385 725 q 131 871 157 725 l 149 889 l 156 889 q 271 753 174 753 q 386 889 368 753 l 393 889 l 411 871 z "},"˙":{"ha":322,"x_min":132,"x_max":188,"o":"m 160 876 q 188 849 188 876 q 160 821 188 821 q 132 849 132 821 q 160 876 132 876 z "},"˚":{"ha":542,"x_min":171,"x_max":367,"o":"m 268 928 q 340 899 314 928 q 367 831 367 869 q 337 761 367 788 q 268 735 307 735 q 200 762 229 735 q 171 832 171 789 q 198 901 171 874 q 268 928 225 928 m 268 900 q 217 881 236 900 q 199 832 199 863 q 219 781 199 800 q 268 763 239 763 q 318 781 297 763 q 339 831 339 799 q 320 880 339 860 q 268 900 301 900 z "},"˛":{"ha":542,"x_min":175,"x_max":396,"o":"m 231 -108 q 203 -183 203 -149 q 219 -228 203 -211 q 265 -246 236 -246 q 378 -172 324 -246 l 381 -172 l 396 -194 q 265 -274 335 -274 q 200 -249 225 -274 q 175 -183 175 -225 q 203 -100 175 -140 l 289 28 l 322 28 l 231 -108 z "},"˜":{"ha":542,"x_min":78,"x_max":464,"o":"m 464 856 l 392 790 l 383 788 q 271 815 356 790 q 167 840 182 840 q 125 810 156 840 l 96 783 l 90 783 l 78 799 l 78 804 l 150 869 l 158 872 q 271 844 186 869 q 375 819 360 819 q 417 850 386 819 l 446 876 l 451 876 l 464 861 l 464 856 z "},"˝":{"ha":542,"x_min":68,"x_max":472,"o":"m 68 736 q 271 926 174 831 l 278 925 l 292 911 l 290 904 q 90 717 192 808 l 83 718 l 68 736 m 249 736 q 451 926 354 831 l 458 925 l 472 911 l 471 904 q 271 717 374 808 l 264 718 l 249 736 z "},"̃":{"ha":0,"x_min":78,"x_max":464,"o":"m 464 856 l 390 789 l 382 786 q 269 815 349 790 q 167 840 183 840 q 125 810 156 840 l 96 783 l 90 783 l 78 799 l 78 804 l 151 871 l 160 874 q 272 844 193 869 q 375 819 358 819 q 417 850 386 819 l 446 876 l 451 876 l 464 861 l 464 856 z "},"̣":{"ha":0,"x_min":132,"x_max":188,"o":"m 160 -122 q 188 -150 188 -122 q 160 -178 188 -178 q 132 -150 132 -178 q 160 -122 132 -122 z "},"̦":{"ha":0,"x_min":96,"x_max":201,"o":"m 149 -97 q 201 -164 201 -121 q 110 -293 201 -222 l 96 -278 l 97 -274 q 172 -165 172 -218 q 131 -118 172 -137 l 131 -112 q 149 -97 138 -103 z "},"Δ":{"ha":769,"x_min":26,"x_max":731,"o":"m 26 0 l 379 885 l 407 885 l 731 0 l 26 0 m 65 28 l 692 28 l 396 838 l 389 838 l 65 28 z "},"Ω":{"ha":1018,"x_min":71,"x_max":947,"o":"m 513 892 q 783 785 689 892 q 878 482 878 679 q 822 221 878 338 q 660 32 765 104 l 660 28 l 835 28 l 943 29 l 947 24 l 942 -1 l 828 0 l 658 0 l 603 -1 l 600 1 l 600 24 q 785 215 721 96 q 850 482 850 333 q 763 765 850 667 q 513 864 675 864 q 258 764 347 864 q 168 479 168 664 q 233 213 168 331 q 418 24 297 94 l 418 1 l 415 -1 l 360 0 l 183 0 l 75 -1 l 71 4 l 76 29 l 190 28 l 358 28 l 358 32 q 197 219 253 104 q 140 479 140 335 q 237 785 140 678 q 513 892 333 892 z "},"μ":{"ha":693,"x_min":125,"x_max":665,"o":"m 660 15 q 597 -4 632 -4 q 521 110 521 -4 l 515 110 q 290 -6 407 -6 q 153 69 192 -6 l 153 -257 l 125 -257 l 125 624 l 153 629 l 153 185 q 190 65 153 107 q 294 22 226 22 q 521 150 408 22 l 521 624 l 549 629 l 549 110 q 599 24 549 24 q 657 44 632 24 l 665 40 l 660 15 z "},"π":{"ha":806,"x_min":21,"x_max":754,"o":"m 576 110 q 626 24 576 24 q 685 44 660 24 l 693 40 l 688 15 q 625 -4 660 -4 q 549 110 549 -4 l 549 654 l 251 654 l 251 -136 l 224 -136 l 224 654 l 139 654 q 39 582 121 654 l 31 582 l 21 594 l 21 601 l 111 678 l 132 682 l 750 682 l 754 676 l 749 654 l 576 654 l 576 110 z "},"Ẁ":{"ha":1228,"x_min":32,"x_max":1210,"o":"m 488 1164 q 732 1033 606 1094 l 722 1013 l 715 1008 q 474 1138 567 1085 l 471 1144 l 481 1161 l 488 1164 m 836 0 l 619 608 l 614 608 l 378 0 l 350 0 l 32 885 l 64 885 l 82 825 l 363 47 l 368 47 l 603 654 l 519 885 l 550 885 l 568 825 l 849 47 l 854 47 l 1158 825 l 1178 885 l 1210 885 l 864 0 l 836 0 z "},"ẁ":{"ha":1060,"x_min":53,"x_max":1019,"o":"m 406 983 q 608 793 513 874 l 593 775 l 586 774 q 386 961 482 865 l 385 968 l 399 982 l 406 983 m 710 0 l 535 460 l 531 460 l 340 0 l 311 0 l 53 682 l 85 682 l 99 633 l 325 43 l 329 43 l 519 504 l 451 682 l 482 682 l 497 632 l 722 43 l 728 43 l 972 633 l 989 682 l 1019 682 l 739 0 l 710 0 z "},"Ẃ":{"ha":1228,"x_min":32,"x_max":1210,"o":"m 836 0 l 619 608 l 614 608 l 378 0 l 350 0 l 32 885 l 64 885 l 82 825 l 363 47 l 368 47 l 603 654 l 519 885 l 550 885 l 568 825 l 849 47 l 854 47 l 1158 825 l 1178 885 l 1210 885 l 864 0 l 836 0 m 778 1142 l 775 1135 q 533 1006 682 1082 l 526 1010 l 517 1031 q 761 1161 643 1092 l 768 1158 l 778 1142 z "},"ẃ":{"ha":1060,"x_min":53,"x_max":1019,"o":"m 710 0 l 535 460 l 531 460 l 340 0 l 311 0 l 53 682 l 85 682 l 99 633 l 325 43 l 329 43 l 519 504 l 451 682 l 482 682 l 497 632 l 722 43 l 728 43 l 972 633 l 989 682 l 1019 682 l 739 0 l 710 0 m 651 968 l 650 961 q 450 774 554 865 l 443 775 l 428 793 q 631 983 524 874 l 638 982 l 651 968 z "},"Ẅ":{"ha":1228,"x_min":32,"x_max":1210,"o":"m 506 1111 q 533 1083 533 1111 q 506 1056 533 1056 q 478 1083 478 1056 q 506 1111 478 1111 m 700 1111 q 728 1083 728 1111 q 700 1056 728 1056 q 672 1083 672 1056 q 700 1111 672 1111 m 836 0 l 619 608 l 614 608 l 378 0 l 350 0 l 32 885 l 64 885 l 82 825 l 363 47 l 368 47 l 603 654 l 519 885 l 550 885 l 568 825 l 849 47 l 854 47 l 1158 825 l 1178 885 l 1210 885 l 864 0 l 836 0 z "},"ẅ":{"ha":1060,"x_min":53,"x_max":1019,"o":"m 399 908 q 426 881 426 908 q 399 853 426 853 q 371 881 371 853 q 399 908 371 908 m 593 908 q 621 881 621 908 q 593 853 621 853 q 565 881 565 853 q 593 908 565 908 m 710 0 l 535 460 l 531 460 l 340 0 l 311 0 l 53 682 l 85 682 l 99 633 l 325 43 l 329 43 l 519 504 l 451 682 l 482 682 l 497 632 l 722 43 l 728 43 l 972 633 l 989 682 l 1019 682 l 739 0 l 710 0 z "},"ẞ":{"ha":822,"x_min":119,"x_max":761,"o":"m 421 889 q 699 814 544 889 l 703 799 l 435 478 q 761 228 761 443 q 729 107 761 160 q 642 24 697 54 q 515 -6 586 -6 q 401 12 461 -6 q 296 60 340 29 l 299 86 l 306 89 q 405 40 347 57 q 514 22 463 22 q 628 49 578 22 q 706 124 678 76 q 733 229 733 172 q 400 451 733 425 l 394 472 l 667 799 q 421 861 538 861 q 222 790 297 861 q 147 603 147 719 l 147 0 l 119 0 l 119 601 q 158 751 119 686 q 264 853 196 817 q 421 889 332 889 z "},"Ạ":{"ha":769,"x_min":26,"x_max":731,"o":"m 699 0 l 681 60 l 593 296 l 174 296 l 79 60 l 60 0 l 26 0 l 379 885 l 407 885 l 731 0 l 699 0 m 394 838 l 389 838 l 185 324 l 583 324 l 394 838 m 382 -122 q 410 -150 410 -122 q 382 -178 410 -178 q 354 -150 354 -178 q 382 -122 354 -122 z "},"ạ":{"ha":686,"x_min":47,"x_max":628,"o":"m 596 0 l 582 49 l 514 224 l 169 224 l 96 49 l 79 0 l 47 0 l 335 682 l 364 682 l 628 0 l 596 0 m 350 640 l 346 640 l 181 250 l 503 250 l 350 640 m 342 -122 q 369 -150 369 -122 q 342 -178 369 -178 q 314 -150 314 -178 q 342 -122 314 -122 z "},"Ả":{"ha":769,"x_min":26,"x_max":731,"o":"m 699 0 l 681 60 l 593 296 l 174 296 l 79 60 l 60 0 l 26 0 l 379 885 l 407 885 l 731 0 l 699 0 m 394 838 l 389 838 l 185 324 l 583 324 l 394 838 m 388 1197 q 431 1182 414 1197 q 449 1144 449 1167 q 382 1054 449 1104 l 404 1014 l 381 1004 l 350 1061 q 421 1142 421 1108 q 385 1169 421 1169 q 310 1138 349 1169 l 299 1157 q 388 1197 346 1197 z "},"ả":{"ha":686,"x_min":47,"x_max":628,"o":"m 596 0 l 582 49 l 514 224 l 169 224 l 96 49 l 79 0 l 47 0 l 335 682 l 364 682 l 628 0 l 596 0 m 350 640 l 346 640 l 181 250 l 503 250 l 350 640 m 351 994 q 395 979 378 994 q 413 942 413 964 q 346 851 413 901 l 368 811 l 344 801 l 314 858 q 385 939 385 906 q 349 967 385 967 q 274 935 313 967 l 263 954 q 351 994 310 994 z "},"Ấ":{"ha":769,"x_min":26,"x_max":731,"o":"m 699 0 l 681 60 l 593 296 l 174 296 l 79 60 l 60 0 l 26 0 l 379 885 l 407 885 l 731 0 l 699 0 m 394 838 l 389 838 l 185 324 l 583 324 l 394 838 m 572 1222 l 478 1117 l 469 1117 l 454 1132 l 551 1243 l 558 1242 l 574 1229 l 572 1222 m 236 1017 q 372 1122 301 1063 l 394 1122 q 533 1017 486 1050 l 524 997 l 517 997 q 385 1094 453 1042 q 253 997 317 1042 l 246 997 l 236 1017 z "},"ấ":{"ha":686,"x_min":47,"x_max":628,"o":"m 596 0 l 582 49 l 514 224 l 169 224 l 96 49 l 79 0 l 47 0 l 335 682 l 364 682 l 628 0 l 596 0 m 350 640 l 346 640 l 181 250 l 503 250 l 350 640 m 536 1019 l 442 914 l 433 914 l 418 929 l 515 1040 l 522 1039 l 538 1026 l 536 1019 m 200 814 q 336 919 265 860 l 358 919 q 497 814 450 847 l 488 794 l 481 794 q 349 892 417 839 q 217 794 281 839 l 210 794 l 200 814 z "},"Ầ":{"ha":769,"x_min":26,"x_max":731,"o":"m 699 0 l 681 60 l 593 296 l 174 296 l 79 60 l 60 0 l 26 0 l 379 885 l 407 885 l 731 0 l 699 0 m 394 838 l 389 838 l 185 324 l 583 324 l 394 838 m 540 1132 l 525 1117 l 517 1117 l 422 1222 l 421 1229 l 436 1242 l 443 1243 l 540 1132 m 236 1017 q 372 1122 301 1063 l 394 1122 q 533 1017 486 1050 l 524 997 l 517 997 q 385 1094 453 1042 q 253 997 317 1042 l 246 997 l 236 1017 z "},"ầ":{"ha":686,"x_min":47,"x_max":628,"o":"m 596 0 l 582 49 l 514 224 l 169 224 l 96 49 l 79 0 l 47 0 l 335 682 l 364 682 l 628 0 l 596 0 m 350 640 l 346 640 l 181 250 l 503 250 l 350 640 m 504 929 l 489 914 l 481 914 l 386 1019 l 385 1026 l 400 1039 l 407 1040 l 504 929 m 200 814 q 336 919 265 860 l 358 919 q 497 814 450 847 l 488 794 l 481 794 q 349 892 417 839 q 217 794 281 839 l 210 794 l 200 814 z "},"Ẩ":{"ha":769,"x_min":26,"x_max":731,"o":"m 503 1253 q 431 1224 465 1253 l 421 1242 q 506 1281 467 1281 q 547 1265 531 1281 q 563 1229 563 1250 q 500 1143 563 1190 l 521 1106 l 499 1096 l 469 1150 q 536 1226 536 1196 q 503 1253 536 1253 m 236 1017 q 372 1122 301 1063 l 394 1122 q 533 1017 486 1050 l 524 997 l 517 997 q 385 1094 453 1042 q 253 997 317 1042 l 246 997 l 236 1017 m 699 0 l 681 60 l 593 296 l 174 296 l 79 60 l 60 0 l 26 0 l 379 885 l 407 885 l 731 0 l 699 0 m 394 838 l 389 838 l 185 324 l 583 324 l 394 838 z "},"ẩ":{"ha":686,"x_min":47,"x_max":628,"o":"m 467 1050 q 394 1021 431 1050 l 385 1039 q 469 1078 431 1078 q 510 1063 494 1078 q 526 1026 526 1047 q 464 940 526 988 l 485 903 l 463 893 l 433 947 q 500 1024 500 993 q 467 1050 500 1050 m 200 814 q 336 919 265 860 l 358 919 q 497 814 450 847 l 488 794 l 481 794 q 349 892 417 839 q 217 794 281 839 l 210 794 l 200 814 m 596 0 l 582 49 l 514 224 l 169 224 l 96 49 l 79 0 l 47 0 l 335 682 l 364 682 l 628 0 l 596 0 m 350 640 l 346 640 l 181 250 l 503 250 l 350 640 z "},"Ẫ":{"ha":769,"x_min":26,"x_max":731,"o":"m 206 1181 l 206 1186 l 275 1251 l 283 1254 q 389 1226 310 1251 q 489 1201 472 1201 q 529 1231 500 1201 q 557 1258 540 1243 l 561 1258 l 574 1243 l 574 1238 l 504 1172 l 497 1169 q 392 1197 471 1172 q 290 1222 306 1222 q 249 1190 281 1222 l 224 1165 l 218 1165 l 206 1181 m 394 1122 q 533 1017 486 1050 l 524 997 l 517 997 q 385 1094 453 1042 q 253 997 317 1042 l 246 997 l 236 1017 q 372 1122 301 1063 l 394 1122 m 699 0 l 681 60 l 593 296 l 174 296 l 79 60 l 60 0 l 26 0 l 379 885 l 407 885 l 731 0 l 699 0 m 394 838 l 389 838 l 185 324 l 583 324 l 394 838 z "},"ẫ":{"ha":686,"x_min":47,"x_max":628,"o":"m 169 978 l 169 983 l 239 1049 l 247 1051 q 353 1024 274 1049 q 453 999 436 999 q 493 1028 464 999 q 521 1056 504 1040 l 525 1056 l 538 1040 l 538 1035 l 468 969 l 461 967 q 356 994 435 969 q 254 1019 269 1019 q 213 988 244 1019 l 188 963 l 182 963 l 169 978 m 358 919 q 497 814 450 847 l 488 794 l 481 794 q 349 892 417 839 q 217 794 281 839 l 210 794 l 200 814 q 336 919 265 860 l 358 919 m 596 0 l 582 49 l 514 224 l 169 224 l 96 49 l 79 0 l 47 0 l 335 682 l 364 682 l 628 0 l 596 0 m 350 640 l 346 640 l 181 250 l 503 250 l 350 640 z "},"Ậ":{"ha":769,"x_min":26,"x_max":731,"o":"m 236 1044 q 372 1150 301 1090 l 394 1150 q 533 1044 486 1078 l 524 1025 l 517 1025 q 385 1122 453 1069 q 253 1025 317 1069 l 246 1025 l 236 1044 m 699 0 l 681 60 l 593 296 l 174 296 l 79 60 l 60 0 l 26 0 l 379 885 l 407 885 l 731 0 l 699 0 m 394 838 l 389 838 l 185 324 l 583 324 l 394 838 m 382 -122 q 410 -150 410 -122 q 382 -178 410 -178 q 354 -150 354 -178 q 382 -122 354 -122 z "},"ậ":{"ha":686,"x_min":47,"x_max":628,"o":"m 196 793 q 336 968 249 853 l 361 968 q 501 793 449 853 l 489 776 l 482 776 q 349 939 415 850 q 215 776 282 850 l 208 776 l 196 793 m 596 0 l 582 49 l 514 224 l 169 224 l 96 49 l 79 0 l 47 0 l 335 682 l 364 682 l 628 0 l 596 0 m 350 640 l 346 640 l 181 250 l 503 250 l 350 640 m 342 -122 q 369 -150 369 -122 q 342 -178 369 -178 q 314 -150 314 -178 q 342 -122 314 -122 z "},"Ắ":{"ha":769,"x_min":26,"x_max":731,"o":"m 699 0 l 681 60 l 593 296 l 174 296 l 79 60 l 60 0 l 26 0 l 379 885 l 407 885 l 731 0 l 699 0 m 394 838 l 389 838 l 185 324 l 583 324 l 394 838 m 481 1224 q 396 1131 439 1175 l 368 1101 l 361 1103 l 344 1119 q 460 1244 381 1157 l 467 1244 l 482 1231 l 481 1224 m 525 1086 q 473 1010 510 1036 q 383 983 436 983 q 294 1010 331 983 q 244 1086 258 1036 l 263 1101 l 269 1101 q 383 1011 290 1011 q 500 1101 476 1011 l 507 1101 l 525 1086 z "},"ắ":{"ha":686,"x_min":47,"x_max":628,"o":"m 596 0 l 582 49 l 514 224 l 169 224 l 96 49 l 79 0 l 47 0 l 335 682 l 364 682 l 628 0 l 596 0 m 350 640 l 346 640 l 181 250 l 503 250 l 350 640 m 444 1021 q 360 928 403 972 l 332 899 l 325 900 l 308 917 q 424 1042 344 954 l 431 1042 l 446 1028 l 444 1021 m 489 883 q 437 807 474 833 q 347 781 400 781 q 258 807 294 781 q 208 883 222 833 l 226 899 l 233 899 q 347 808 254 808 q 464 899 440 808 l 471 899 l 489 883 z "},"Ằ":{"ha":769,"x_min":26,"x_max":731,"o":"m 699 0 l 681 60 l 593 296 l 174 296 l 79 60 l 60 0 l 26 0 l 379 885 l 407 885 l 731 0 l 699 0 m 394 838 l 389 838 l 185 324 l 583 324 l 394 838 m 303 1244 q 418 1119 382 1157 l 401 1103 l 394 1101 l 367 1131 q 282 1224 324 1175 l 281 1231 l 296 1244 l 303 1244 m 525 1086 q 473 1010 510 1036 q 383 983 436 983 q 294 1010 331 983 q 244 1086 258 1036 l 263 1101 l 269 1101 q 383 1011 290 1011 q 500 1101 476 1011 l 507 1101 l 525 1086 z "},"ằ":{"ha":686,"x_min":47,"x_max":628,"o":"m 596 0 l 582 49 l 514 224 l 169 224 l 96 49 l 79 0 l 47 0 l 335 682 l 364 682 l 628 0 l 596 0 m 350 640 l 346 640 l 181 250 l 503 250 l 350 640 m 267 1042 q 382 917 346 954 l 365 900 l 358 899 l 331 928 q 246 1021 288 972 l 244 1028 l 260 1042 l 267 1042 m 489 883 q 437 807 474 833 q 347 781 400 781 q 258 807 294 781 q 208 883 222 833 l 226 899 l 233 899 q 347 808 254 808 q 464 899 440 808 l 471 899 l 489 883 z "},"Ẳ":{"ha":769,"x_min":26,"x_max":731,"o":"m 390 1267 q 315 1235 354 1267 l 304 1254 q 393 1294 351 1294 q 437 1279 419 1294 q 454 1242 454 1264 q 388 1151 454 1201 l 410 1111 l 386 1101 l 356 1158 q 426 1239 426 1206 q 390 1267 426 1267 m 383 983 q 294 1010 331 983 q 244 1086 258 1036 l 263 1101 l 269 1101 q 383 1011 290 1011 q 500 1101 476 1011 l 507 1101 l 525 1086 q 473 1010 510 1036 q 383 983 436 983 m 699 0 l 681 60 l 593 296 l 174 296 l 79 60 l 60 0 l 26 0 l 379 885 l 407 885 l 731 0 l 699 0 m 394 838 l 389 838 l 185 324 l 583 324 l 394 838 z "},"ẳ":{"ha":686,"x_min":47,"x_max":628,"o":"m 354 1064 q 279 1032 318 1064 l 268 1051 q 357 1092 315 1092 q 401 1076 383 1092 q 418 1039 418 1061 q 351 949 418 999 l 374 908 l 350 899 l 319 956 q 390 1036 390 1003 q 354 1064 390 1064 m 347 781 q 258 807 294 781 q 208 883 222 833 l 226 899 l 233 899 q 347 808 254 808 q 464 899 440 808 l 471 899 l 489 883 q 437 807 474 833 q 347 781 400 781 m 596 0 l 582 49 l 514 224 l 169 224 l 96 49 l 79 0 l 47 0 l 335 682 l 364 682 l 628 0 l 596 0 m 350 640 l 346 640 l 181 250 l 503 250 l 350 640 z "},"Ẵ":{"ha":769,"x_min":26,"x_max":731,"o":"m 206 1181 l 206 1186 l 275 1251 l 283 1254 q 389 1226 310 1251 q 489 1201 472 1201 q 529 1231 500 1201 q 557 1258 540 1243 l 561 1258 l 574 1243 l 574 1238 l 504 1172 l 497 1169 q 392 1197 471 1172 q 290 1222 306 1222 q 249 1190 281 1222 l 224 1165 l 218 1165 l 206 1181 m 383 1011 q 500 1101 476 1011 l 507 1101 l 525 1086 q 473 1010 510 1036 q 383 983 436 983 q 294 1010 331 983 q 244 1086 258 1036 l 263 1101 l 269 1101 q 383 1011 290 1011 m 699 0 l 681 60 l 593 296 l 174 296 l 79 60 l 60 0 l 26 0 l 379 885 l 407 885 l 731 0 l 699 0 m 394 838 l 389 838 l 185 324 l 583 324 l 394 838 z "},"ẵ":{"ha":686,"x_min":47,"x_max":628,"o":"m 169 978 l 169 983 l 239 1049 l 247 1051 q 353 1024 274 1049 q 453 999 436 999 q 493 1028 464 999 q 521 1056 504 1040 l 525 1056 l 538 1040 l 538 1035 l 468 969 l 461 967 q 356 994 435 969 q 254 1019 269 1019 q 213 988 244 1019 l 188 963 l 182 963 l 169 978 m 347 808 q 464 899 440 808 l 471 899 l 489 883 q 437 807 474 833 q 347 781 400 781 q 258 807 294 781 q 208 883 222 833 l 226 899 l 233 899 q 347 808 254 808 m 596 0 l 582 49 l 514 224 l 169 224 l 96 49 l 79 0 l 47 0 l 335 682 l 364 682 l 628 0 l 596 0 m 350 640 l 346 640 l 181 250 l 503 250 l 350 640 z "},"Ặ":{"ha":769,"x_min":26,"x_max":731,"o":"m 383 1011 q 294 1038 331 1011 q 244 1114 258 1064 l 263 1129 l 269 1129 q 383 1039 290 1039 q 500 1129 476 1039 l 507 1129 l 525 1114 q 473 1038 510 1064 q 383 1011 436 1011 m 699 0 l 681 60 l 593 296 l 174 296 l 79 60 l 60 0 l 26 0 l 379 885 l 407 885 l 731 0 l 699 0 m 394 838 l 389 838 l 185 324 l 583 324 l 394 838 m 382 -122 q 410 -150 410 -122 q 382 -178 410 -178 q 354 -150 354 -178 q 382 -122 354 -122 z "},"ặ":{"ha":686,"x_min":47,"x_max":628,"o":"m 349 779 q 208 925 235 779 l 226 943 l 233 943 q 349 807 251 807 q 464 943 446 807 l 471 943 l 489 925 q 349 779 463 779 m 596 0 l 582 49 l 514 224 l 169 224 l 96 49 l 79 0 l 47 0 l 335 682 l 364 682 l 628 0 l 596 0 m 350 640 l 346 640 l 181 250 l 503 250 l 350 640 m 342 -122 q 369 -150 369 -122 q 342 -178 369 -178 q 314 -150 314 -178 q 342 -122 314 -122 z "},"Ẹ":{"ha":631,"x_min":153,"x_max":590,"o":"m 585 0 l 153 0 l 153 885 l 581 885 l 585 879 l 579 857 l 181 857 l 181 472 l 511 472 l 515 467 l 510 444 l 181 444 l 181 28 l 586 28 l 590 22 l 585 0 m 371 -122 q 399 -150 399 -122 q 371 -178 399 -178 q 343 -150 343 -178 q 371 -122 343 -122 z "},"ẹ":{"ha":572,"x_min":150,"x_max":514,"o":"m 508 0 l 150 0 l 150 682 l 506 682 l 510 676 l 504 654 l 178 656 l 178 367 l 449 367 l 451 361 l 447 339 l 178 339 l 178 26 l 510 26 l 514 22 l 508 0 m 331 -122 q 358 -150 358 -122 q 331 -178 358 -178 q 303 -150 303 -178 q 331 -122 303 -122 z "},"Ẻ":{"ha":631,"x_min":153,"x_max":590,"o":"m 585 0 l 153 0 l 153 885 l 581 885 l 585 879 l 579 857 l 181 857 l 181 472 l 511 472 l 515 467 l 510 444 l 181 444 l 181 28 l 586 28 l 590 22 l 585 0 m 372 1197 q 416 1182 399 1197 q 433 1144 433 1167 q 367 1054 433 1104 l 389 1014 l 365 1004 l 335 1061 q 406 1142 406 1108 q 369 1169 406 1169 q 294 1138 333 1169 l 283 1157 q 372 1197 331 1197 z "},"ẻ":{"ha":572,"x_min":150,"x_max":514,"o":"m 508 0 l 150 0 l 150 682 l 506 682 l 510 676 l 504 654 l 178 656 l 178 367 l 449 367 l 451 361 l 447 339 l 178 339 l 178 26 l 510 26 l 514 22 l 508 0 m 332 994 q 376 979 358 994 q 393 942 393 964 q 326 851 393 901 l 349 811 l 325 801 l 294 858 q 365 939 365 906 q 329 967 365 967 q 254 935 293 967 l 243 954 q 332 994 290 994 z "},"Ẽ":{"ha":631,"x_min":153,"x_max":590,"o":"m 585 0 l 153 0 l 153 885 l 581 885 l 585 879 l 579 857 l 181 857 l 181 472 l 511 472 l 515 467 l 510 444 l 181 444 l 181 28 l 586 28 l 590 22 l 585 0 m 563 1113 l 490 1047 l 482 1044 q 369 1072 454 1047 q 265 1097 281 1097 q 224 1067 254 1097 l 194 1040 l 189 1040 l 176 1056 l 176 1061 l 249 1126 l 257 1129 q 369 1101 285 1126 q 474 1076 458 1076 q 515 1107 485 1076 l 544 1133 l 550 1133 l 563 1118 l 563 1113 z "},"ẽ":{"ha":572,"x_min":136,"x_max":522,"o":"m 508 0 l 150 0 l 150 682 l 506 682 l 510 676 l 504 654 l 178 656 l 178 367 l 449 367 l 451 361 l 447 339 l 178 339 l 178 26 l 510 26 l 514 22 l 508 0 m 522 910 l 450 844 l 442 842 q 329 869 414 844 q 225 894 240 894 q 183 864 214 894 l 154 838 l 149 838 l 136 853 l 136 858 l 208 924 l 217 926 q 329 899 244 924 q 433 874 418 874 q 475 904 444 874 l 504 931 l 510 931 l 522 915 l 522 910 z "},"Ế":{"ha":631,"x_min":153,"x_max":590,"o":"m 585 0 l 153 0 l 153 885 l 581 885 l 585 879 l 579 857 l 181 857 l 181 472 l 511 472 l 515 467 l 510 444 l 181 444 l 181 28 l 586 28 l 590 22 l 585 0 m 557 1222 l 463 1117 l 454 1117 l 439 1132 l 536 1243 l 543 1242 l 558 1229 l 557 1222 m 221 1017 q 357 1122 286 1063 l 379 1122 q 518 1017 471 1050 l 508 997 l 501 997 q 369 1094 438 1042 q 238 997 301 1042 l 231 997 l 221 1017 z "},"ế":{"ha":572,"x_min":150,"x_max":518,"o":"m 508 0 l 150 0 l 150 682 l 506 682 l 510 676 l 504 654 l 178 656 l 178 367 l 449 367 l 451 361 l 447 339 l 178 339 l 178 26 l 510 26 l 514 22 l 508 0 m 517 1019 l 422 914 l 414 914 l 399 929 l 496 1040 l 503 1039 l 518 1026 l 517 1019 m 181 814 q 317 919 246 860 l 339 919 q 478 814 431 847 l 468 794 l 461 794 q 329 892 397 839 q 197 794 261 839 l 190 794 l 181 814 z "},"Ề":{"ha":631,"x_min":153,"x_max":590,"o":"m 585 0 l 153 0 l 153 885 l 581 885 l 585 879 l 579 857 l 181 857 l 181 472 l 511 472 l 515 467 l 510 444 l 181 444 l 181 28 l 586 28 l 590 22 l 585 0 m 525 1132 l 510 1117 l 501 1117 l 407 1222 l 406 1229 l 421 1242 l 428 1243 l 525 1132 m 221 1017 q 357 1122 286 1063 l 379 1122 q 518 1017 471 1050 l 508 997 l 501 997 q 369 1094 438 1042 q 238 997 301 1042 l 231 997 l 221 1017 z "},"ề":{"ha":572,"x_min":150,"x_max":514,"o":"m 508 0 l 150 0 l 150 682 l 506 682 l 510 676 l 504 654 l 178 656 l 178 367 l 449 367 l 451 361 l 447 339 l 178 339 l 178 26 l 510 26 l 514 22 l 508 0 m 485 929 l 469 914 l 461 914 l 367 1019 l 365 1026 l 381 1039 l 388 1040 l 485 929 m 181 814 q 317 919 246 860 l 339 919 q 478 814 431 847 l 468 794 l 461 794 q 329 892 397 839 q 197 794 261 839 l 190 794 l 181 814 z "},"Ể":{"ha":631,"x_min":153,"x_max":590,"o":"m 488 1253 q 415 1224 451 1253 l 406 1242 q 490 1281 451 1281 q 531 1265 515 1281 q 547 1229 547 1250 q 485 1143 547 1190 l 506 1106 l 483 1096 l 454 1150 q 521 1226 521 1196 q 488 1253 521 1253 m 221 1017 q 357 1122 286 1063 l 379 1122 q 518 1017 471 1050 l 508 997 l 501 997 q 369 1094 438 1042 q 238 997 301 1042 l 231 997 l 221 1017 m 585 0 l 153 0 l 153 885 l 581 885 l 585 879 l 579 857 l 181 857 l 181 472 l 511 472 l 515 467 l 510 444 l 181 444 l 181 28 l 586 28 l 590 22 l 585 0 z "},"ể":{"ha":572,"x_min":150,"x_max":514,"o":"m 447 1050 q 375 1021 411 1050 l 365 1039 q 450 1078 411 1078 q 491 1063 475 1078 q 507 1026 507 1047 q 444 940 507 988 l 465 903 l 443 893 l 414 947 q 481 1024 481 993 q 447 1050 481 1050 m 181 814 q 317 919 246 860 l 339 919 q 478 814 431 847 l 468 794 l 461 794 q 329 892 397 839 q 197 794 261 839 l 190 794 l 181 814 m 508 0 l 150 0 l 150 682 l 506 682 l 510 676 l 504 654 l 178 656 l 178 367 l 449 367 l 451 361 l 447 339 l 178 339 l 178 26 l 510 26 l 514 22 l 508 0 z "},"Ễ":{"ha":631,"x_min":153,"x_max":590,"o":"m 585 0 l 153 0 l 153 885 l 581 885 l 585 879 l 579 857 l 181 857 l 181 472 l 511 472 l 515 467 l 510 444 l 181 444 l 181 28 l 586 28 l 590 22 l 585 0 m 525 1132 l 510 1117 l 501 1117 l 407 1222 l 406 1229 l 421 1242 l 428 1243 l 525 1132 m 221 1017 q 357 1122 286 1063 l 379 1122 q 518 1017 471 1050 l 508 997 l 501 997 q 369 1094 438 1042 q 238 997 301 1042 l 231 997 l 221 1017 z "},"ễ":{"ha":572,"x_min":150,"x_max":518,"o":"m 518 1035 l 449 969 l 442 967 q 336 994 415 969 q 235 1019 250 1019 q 193 988 225 1019 l 168 963 l 163 963 l 150 978 l 150 983 l 219 1049 l 228 1051 q 333 1024 254 1049 q 433 999 417 999 q 474 1028 444 999 q 501 1056 485 1040 l 506 1056 l 518 1040 l 518 1035 m 329 892 q 197 794 261 839 l 190 794 l 181 814 q 317 919 246 860 l 339 919 q 478 814 431 847 l 468 794 l 461 794 q 329 892 397 839 m 514 22 l 508 0 l 150 0 l 150 682 l 506 682 l 510 676 l 504 654 l 178 656 l 178 367 l 449 367 l 451 361 l 447 339 l 178 339 l 178 26 l 510 26 l 514 22 z "},"Ệ":{"ha":631,"x_min":153,"x_max":590,"o":"m 221 1044 q 357 1150 286 1090 l 379 1150 q 518 1044 471 1078 l 508 1025 l 501 1025 q 369 1122 438 1069 q 238 1025 301 1069 l 231 1025 l 221 1044 m 585 0 l 153 0 l 153 885 l 581 885 l 585 879 l 579 857 l 181 857 l 181 472 l 511 472 l 515 467 l 510 444 l 181 444 l 181 28 l 586 28 l 590 22 l 585 0 m 371 -122 q 399 -150 399 -122 q 371 -178 399 -178 q 343 -150 343 -178 q 371 -122 343 -122 z "},"ệ":{"ha":572,"x_min":150,"x_max":514,"o":"m 176 793 q 317 968 229 853 l 342 968 q 482 793 429 853 l 469 776 l 463 776 q 329 939 396 850 q 196 776 263 850 l 189 776 l 176 793 m 508 0 l 150 0 l 150 682 l 506 682 l 510 676 l 504 654 l 178 656 l 178 367 l 449 367 l 451 361 l 447 339 l 178 339 l 178 26 l 510 26 l 514 22 l 508 0 m 331 -122 q 358 -150 358 -122 q 331 -178 358 -178 q 303 -150 303 -178 q 331 -122 303 -122 z "},"Ỉ":{"ha":333,"x_min":81,"x_max":231,"o":"m 153 0 l 153 885 l 181 885 l 181 0 l 153 0 m 169 1197 q 213 1182 196 1197 q 231 1144 231 1167 q 164 1054 231 1104 l 186 1014 l 163 1004 l 132 1061 q 203 1142 203 1108 q 167 1169 203 1169 q 92 1138 131 1169 l 81 1157 q 169 1197 128 1197 z "},"ỉ":{"ha":329,"x_min":81,"x_max":231,"o":"m 150 0 l 150 682 l 178 682 l 178 0 l 150 0 m 169 994 q 213 979 196 994 q 231 942 231 964 q 164 851 231 901 l 186 811 l 163 801 l 132 858 q 203 939 203 906 q 167 967 203 967 q 92 935 131 967 l 81 954 q 169 994 128 994 z "},"Ị":{"ha":333,"x_min":132,"x_max":188,"o":"m 153 0 l 153 885 l 181 885 l 181 0 l 153 0 m 160 -122 q 188 -150 188 -122 q 160 -178 188 -178 q 132 -150 132 -178 q 160 -122 132 -122 z "},"ị":{"ha":329,"x_min":136,"x_max":192,"o":"m 150 0 l 150 682 l 178 682 l 178 0 l 150 0 m 164 -122 q 192 -150 192 -122 q 164 -178 192 -178 q 136 -150 136 -178 q 164 -122 136 -122 z "},"Ọ":{"ha":871,"x_min":67,"x_max":804,"o":"m 442 892 q 710 779 617 892 q 804 457 804 667 q 707 113 804 233 q 428 -7 610 -7 q 160 109 254 -7 q 67 440 67 225 q 164 775 67 658 q 442 892 261 892 m 442 864 q 184 754 274 864 q 94 440 94 644 q 181 130 94 239 q 428 21 267 21 q 686 134 596 21 q 776 457 776 247 q 690 758 776 653 q 442 864 603 864 m 431 -122 q 458 -150 458 -122 q 431 -178 458 -178 q 403 -150 403 -178 q 431 -122 403 -122 z "},"ọ":{"ha":768,"x_min":81,"x_max":688,"o":"m 390 688 q 610 601 533 688 q 688 353 688 514 q 607 88 688 181 q 378 -6 526 -6 q 158 84 235 -6 q 81 339 81 174 q 160 597 81 507 q 390 688 240 688 m 389 660 q 181 578 253 660 q 110 340 110 496 q 179 103 110 185 q 378 21 249 21 q 587 106 514 21 q 660 350 660 190 q 590 580 660 500 q 389 660 519 660 m 386 -122 q 414 -150 414 -122 q 386 -178 414 -178 q 358 -150 358 -178 q 386 -122 358 -122 z "},"Ỏ":{"ha":871,"x_min":67,"x_max":804,"o":"m 442 892 q 710 779 617 892 q 804 457 804 667 q 707 113 804 233 q 428 -7 610 -7 q 160 109 254 -7 q 67 440 67 225 q 164 775 67 658 q 442 892 261 892 m 442 864 q 184 754 274 864 q 94 440 94 644 q 181 130 94 239 q 428 21 267 21 q 686 134 596 21 q 776 457 776 247 q 690 758 776 653 q 442 864 603 864 m 439 1197 q 483 1182 465 1197 q 500 1144 500 1167 q 433 1054 500 1104 l 456 1014 l 432 1004 l 401 1061 q 472 1142 472 1108 q 436 1169 472 1169 q 361 1138 400 1169 l 350 1157 q 439 1197 397 1197 z "},"ỏ":{"ha":768,"x_min":81,"x_max":688,"o":"m 390 688 q 610 601 533 688 q 688 353 688 514 q 607 88 688 181 q 378 -6 526 -6 q 158 84 235 -6 q 81 339 81 174 q 160 597 81 507 q 390 688 240 688 m 389 660 q 181 578 253 660 q 110 340 110 496 q 179 103 110 185 q 378 21 249 21 q 587 106 514 21 q 660 350 660 190 q 590 580 660 500 q 389 660 519 660 m 389 994 q 433 979 415 994 q 450 942 450 964 q 383 851 450 901 l 406 811 l 382 801 l 351 858 q 422 939 422 906 q 386 967 422 967 q 311 935 350 967 l 300 954 q 389 994 347 994 z "},"Ố":{"ha":871,"x_min":67,"x_max":804,"o":"m 442 892 q 710 779 617 892 q 804 457 804 667 q 707 113 804 233 q 428 -7 610 -7 q 160 109 254 -7 q 67 440 67 225 q 164 775 67 658 q 442 892 261 892 m 442 864 q 184 754 274 864 q 94 440 94 644 q 181 130 94 239 q 428 21 267 21 q 686 134 596 21 q 776 457 776 247 q 690 758 776 653 q 442 864 603 864 m 624 1222 l 529 1117 l 521 1117 l 506 1132 l 603 1243 l 610 1242 l 625 1229 l 624 1222 m 288 1017 q 424 1122 353 1063 l 446 1122 q 585 1017 538 1050 l 575 997 l 568 997 q 436 1094 504 1042 q 304 997 368 1042 l 297 997 l 288 1017 z "},"ố":{"ha":768,"x_min":81,"x_max":688,"o":"m 390 688 q 610 601 533 688 q 688 353 688 514 q 607 88 688 181 q 378 -6 526 -6 q 158 84 235 -6 q 81 339 81 174 q 160 597 81 507 q 390 688 240 688 m 389 660 q 181 578 253 660 q 110 340 110 496 q 179 103 110 185 q 378 21 249 21 q 587 106 514 21 q 660 350 660 190 q 590 580 660 500 q 389 660 519 660 m 574 1019 l 479 914 l 471 914 l 456 929 l 553 1040 l 560 1039 l 575 1026 l 574 1019 m 238 814 q 374 919 303 860 l 396 919 q 535 814 488 847 l 525 794 l 518 794 q 386 892 454 839 q 254 794 318 839 l 247 794 l 238 814 z "},"Ồ":{"ha":871,"x_min":67,"x_max":804,"o":"m 442 892 q 710 779 617 892 q 804 457 804 667 q 707 113 804 233 q 428 -7 610 -7 q 160 109 254 -7 q 67 440 67 225 q 164 775 67 658 q 442 892 261 892 m 442 864 q 184 754 274 864 q 94 440 94 644 q 181 130 94 239 q 428 21 267 21 q 686 134 596 21 q 776 457 776 247 q 690 758 776 653 q 442 864 603 864 m 592 1132 l 576 1117 l 568 1117 l 474 1222 l 472 1229 l 488 1242 l 494 1243 l 592 1132 m 288 1017 q 424 1122 353 1063 l 446 1122 q 585 1017 538 1050 l 575 997 l 568 997 q 436 1094 504 1042 q 304 997 368 1042 l 297 997 l 288 1017 z "},"ồ":{"ha":768,"x_min":81,"x_max":688,"o":"m 390 688 q 610 601 533 688 q 688 353 688 514 q 607 88 688 181 q 378 -6 526 -6 q 158 84 235 -6 q 81 339 81 174 q 160 597 81 507 q 390 688 240 688 m 389 660 q 181 578 253 660 q 110 340 110 496 q 179 103 110 185 q 378 21 249 21 q 587 106 514 21 q 660 350 660 190 q 590 580 660 500 q 389 660 519 660 m 542 929 l 526 914 l 518 914 l 424 1019 l 422 1026 l 438 1039 l 444 1040 l 542 929 m 238 814 q 374 919 303 860 l 396 919 q 535 814 488 847 l 525 794 l 518 794 q 386 892 454 839 q 254 794 318 839 l 247 794 l 238 814 z "},"Ổ":{"ha":871,"x_min":67,"x_max":804,"o":"m 442 892 q 710 779 617 892 q 804 457 804 667 q 707 113 804 233 q 428 -7 610 -7 q 160 109 254 -7 q 67 440 67 225 q 164 775 67 658 q 442 892 261 892 m 442 864 q 184 754 274 864 q 94 440 94 644 q 181 130 94 239 q 428 21 267 21 q 686 134 596 21 q 776 457 776 247 q 690 758 776 653 q 442 864 603 864 m 542 1262 q 584 1247 568 1262 q 601 1212 601 1233 q 537 1126 601 1173 l 558 1087 l 536 1078 l 507 1132 q 574 1209 574 1177 q 540 1235 574 1235 q 468 1205 505 1235 l 458 1223 q 542 1262 503 1262 z "},"ổ":{"ha":768,"x_min":81,"x_max":688,"o":"m 507 1078 q 548 1063 532 1078 q 564 1026 564 1047 q 501 940 564 988 l 522 903 l 500 893 l 471 947 q 538 1024 538 993 q 504 1050 538 1050 q 432 1021 468 1050 l 422 1039 q 507 1078 468 1078 m 238 814 q 374 919 303 860 l 396 919 q 535 814 488 847 l 525 794 l 518 794 q 386 892 454 839 q 254 794 318 839 l 247 794 l 238 814 m 390 688 q 610 601 533 688 q 688 353 688 514 q 607 88 688 181 q 378 -6 526 -6 q 158 84 235 -6 q 81 339 81 174 q 160 597 81 507 q 390 688 240 688 m 389 660 q 181 578 253 660 q 110 340 110 496 q 179 103 110 185 q 378 21 249 21 q 587 106 514 21 q 660 350 660 190 q 590 580 660 500 q 389 660 519 660 z "},"Ỗ":{"ha":871,"x_min":67,"x_max":804,"o":"m 442 892 q 710 779 617 892 q 804 457 804 667 q 707 113 804 233 q 428 -7 610 -7 q 160 109 254 -7 q 67 440 67 225 q 164 775 67 658 q 442 892 261 892 m 442 864 q 184 754 274 864 q 94 440 94 644 q 181 130 94 239 q 428 21 267 21 q 686 134 596 21 q 776 457 776 247 q 690 758 776 653 q 442 864 603 864 m 617 1238 l 548 1172 l 540 1169 q 433 1197 513 1172 q 334 1222 348 1222 q 294 1192 323 1222 l 266 1165 l 261 1165 l 249 1181 l 249 1186 l 318 1251 l 326 1254 q 433 1226 352 1251 q 532 1201 517 1201 q 572 1232 543 1201 l 599 1258 l 605 1258 l 617 1243 l 617 1238 z "},"ỗ":{"ha":768,"x_min":81,"x_max":688,"o":"m 575 1035 l 506 969 l 499 967 q 393 994 472 969 q 292 1019 307 1019 q 250 988 282 1019 l 225 963 l 219 963 l 207 978 l 207 983 l 276 1049 l 285 1051 q 390 1024 311 1049 q 490 999 474 999 q 531 1028 501 999 q 558 1056 542 1040 l 563 1056 l 575 1040 l 575 1035 m 238 814 q 374 919 303 860 l 396 919 q 535 814 488 847 l 525 794 l 518 794 q 386 892 454 839 q 254 794 318 839 l 247 794 l 238 814 m 390 688 q 610 601 533 688 q 688 353 688 514 q 607 88 688 181 q 378 -6 526 -6 q 158 84 235 -6 q 81 339 81 174 q 160 597 81 507 q 390 688 240 688 m 389 660 q 181 578 253 660 q 110 340 110 496 q 179 103 110 185 q 378 21 249 21 q 587 106 514 21 q 660 350 660 190 q 590 580 660 500 q 389 660 519 660 z "},"Ộ":{"ha":871,"x_min":67,"x_max":804,"o":"m 308 1031 q 444 1136 374 1076 l 467 1136 q 606 1031 558 1064 l 596 1011 l 589 1011 q 457 1108 525 1056 q 325 1011 389 1056 l 318 1011 l 308 1031 m 442 892 q 710 779 617 892 q 804 457 804 667 q 707 113 804 233 q 428 -7 610 -7 q 160 109 254 -7 q 67 440 67 225 q 164 775 67 658 q 442 892 261 892 m 442 864 q 184 754 274 864 q 94 440 94 644 q 181 130 94 239 q 428 21 267 21 q 686 134 596 21 q 776 457 776 247 q 690 758 776 653 q 442 864 603 864 m 431 -122 q 458 -150 458 -122 q 431 -178 458 -178 q 403 -150 403 -178 q 431 -122 403 -122 z "},"ộ":{"ha":768,"x_min":81,"x_max":688,"o":"m 233 793 q 374 968 286 853 l 399 968 q 539 793 486 853 l 526 776 l 519 776 q 386 939 453 850 q 253 776 319 850 l 246 776 l 233 793 m 390 688 q 610 601 533 688 q 688 353 688 514 q 607 88 688 181 q 378 -6 526 -6 q 158 84 235 -6 q 81 339 81 174 q 160 597 81 507 q 390 688 240 688 m 389 660 q 181 578 253 660 q 110 340 110 496 q 179 103 110 185 q 378 21 249 21 q 587 106 514 21 q 660 350 660 190 q 590 580 660 500 q 389 660 519 660 m 386 -122 q 414 -150 414 -122 q 386 -178 414 -178 q 358 -150 358 -178 q 386 -122 358 -122 z "},"Ớ":{"ha":875,"x_min":67,"x_max":831,"o":"m 776 1046 q 798 1031 785 1046 q 821 992 811 1017 q 831 938 831 967 q 785 844 831 876 q 669 815 740 813 q 804 451 804 703 q 706 113 804 233 q 429 -7 608 -7 q 160 109 254 -7 q 67 440 67 225 q 164 775 67 658 q 446 892 261 892 q 607 860 521 892 q 686 840 653 840 q 768 865 733 840 q 803 932 803 889 q 756 1032 803 982 l 758 1039 q 776 1046 769 1046 m 440 864 q 184 754 274 864 q 94 439 94 644 q 181 129 94 238 q 429 21 268 21 q 686 134 596 21 q 776 453 776 247 q 690 758 776 653 q 440 864 603 864 m 611 1142 l 608 1135 q 367 1006 515 1082 l 360 1010 l 350 1031 q 594 1161 476 1092 l 601 1158 l 611 1142 z "},"ớ":{"ha":772,"x_min":81,"x_max":711,"o":"m 647 800 q 665 807 657 807 q 695 781 679 807 q 711 722 711 756 q 674 649 711 675 q 579 626 638 624 q 688 349 688 539 q 607 88 688 181 q 379 -6 526 -6 q 158 84 236 -6 q 81 339 81 174 q 161 597 81 507 q 393 688 242 688 q 525 664 460 688 q 590 649 565 649 q 657 667 629 649 q 685 718 685 686 q 646 794 685 756 l 647 800 m 379 21 q 587 106 514 21 q 660 349 660 192 q 590 581 660 501 q 388 660 521 660 q 181 577 253 660 q 110 339 110 494 q 179 103 110 185 q 379 21 249 21 m 561 939 l 558 932 q 317 803 465 879 l 310 807 l 300 828 q 544 958 426 889 l 551 956 l 561 939 z "},"Ờ":{"ha":875,"x_min":67,"x_max":831,"o":"m 776 1046 q 798 1031 785 1046 q 821 992 811 1017 q 831 938 831 967 q 785 844 831 876 q 669 815 740 813 q 804 451 804 703 q 706 113 804 233 q 429 -7 608 -7 q 160 109 254 -7 q 67 440 67 225 q 164 775 67 658 q 446 892 261 892 q 607 860 521 892 q 686 840 653 840 q 768 865 733 840 q 803 932 803 889 q 756 1032 803 982 l 758 1039 q 776 1046 769 1046 m 440 864 q 184 754 274 864 q 94 439 94 644 q 181 129 94 238 q 429 21 268 21 q 686 134 596 21 q 776 453 776 247 q 690 758 776 653 q 440 864 603 864 m 304 1144 l 307 1138 q 549 1008 400 1085 l 556 1013 l 565 1033 q 321 1164 439 1094 l 314 1161 l 304 1144 z "},"ờ":{"ha":772,"x_min":81,"x_max":711,"o":"m 271 961 q 515 831 389 892 l 506 810 l 499 806 q 257 935 350 882 l 254 942 l 264 958 l 271 961 m 647 800 q 665 807 657 807 q 695 781 679 807 q 711 722 711 756 q 674 649 711 675 q 579 626 638 624 q 688 349 688 539 q 607 88 688 181 q 379 -6 526 -6 q 158 84 236 -6 q 81 339 81 174 q 161 597 81 507 q 393 688 242 688 q 525 664 460 688 q 590 649 565 649 q 657 667 629 649 q 685 718 685 686 q 646 794 685 756 l 647 800 m 379 21 q 587 106 514 21 q 660 349 660 192 q 590 581 660 501 q 388 660 521 660 q 181 577 253 660 q 110 339 110 494 q 179 103 110 185 q 379 21 249 21 z "},"Ở":{"ha":875,"x_min":67,"x_max":831,"o":"m 776 1046 q 798 1031 785 1046 q 821 992 811 1017 q 831 938 831 967 q 785 844 831 876 q 669 815 740 813 q 804 451 804 703 q 706 113 804 233 q 429 -7 608 -7 q 160 109 254 -7 q 67 440 67 225 q 164 775 67 658 q 446 892 261 892 q 607 860 521 892 q 686 840 653 840 q 768 865 733 840 q 803 932 803 889 q 756 1032 803 982 l 758 1039 q 776 1046 769 1046 m 440 864 q 184 754 274 864 q 94 439 94 644 q 181 129 94 238 q 429 21 268 21 q 686 134 596 21 q 776 453 776 247 q 690 758 776 653 q 440 864 603 864 m 439 1197 q 483 1182 465 1197 q 500 1144 500 1167 q 433 1054 500 1104 l 456 1014 l 432 1004 l 401 1061 q 472 1142 472 1108 q 436 1169 472 1169 q 361 1138 400 1169 l 350 1157 q 439 1197 397 1197 z "},"ở":{"ha":772,"x_min":81,"x_max":711,"o":"m 647 800 q 665 807 657 807 q 695 781 679 807 q 711 722 711 756 q 674 649 711 675 q 579 626 638 624 q 688 349 688 539 q 607 88 688 181 q 379 -6 526 -6 q 158 84 236 -6 q 81 339 81 174 q 161 597 81 507 q 393 688 242 688 q 525 664 460 688 q 590 649 565 649 q 657 667 629 649 q 685 718 685 686 q 646 794 685 756 l 647 800 m 379 21 q 587 106 514 21 q 660 349 660 192 q 590 581 660 501 q 388 660 521 660 q 181 577 253 660 q 110 339 110 494 q 179 103 110 185 q 379 21 249 21 m 389 994 q 433 979 415 994 q 450 942 450 964 q 383 851 450 901 l 406 811 l 382 801 l 351 858 q 422 939 422 906 q 386 967 422 967 q 311 935 350 967 l 300 954 q 389 994 347 994 z "},"Ỡ":{"ha":875,"x_min":67,"x_max":831,"o":"m 776 1046 q 798 1031 785 1046 q 821 992 811 1017 q 831 938 831 967 q 785 844 831 876 q 669 815 740 813 q 804 451 804 703 q 706 113 804 233 q 429 -7 608 -7 q 160 109 254 -7 q 67 440 67 225 q 164 775 67 658 q 446 892 261 892 q 607 860 521 892 q 686 840 653 840 q 768 865 733 840 q 803 932 803 889 q 756 1032 803 982 l 758 1039 q 776 1046 769 1046 m 440 864 q 184 754 274 864 q 94 439 94 644 q 181 129 94 238 q 429 21 268 21 q 686 134 596 21 q 776 453 776 247 q 690 758 776 653 q 440 864 603 864 m 629 1113 l 557 1047 l 549 1044 q 436 1072 521 1047 q 332 1097 347 1097 q 290 1067 321 1097 l 261 1040 l 256 1040 l 243 1056 l 243 1061 l 315 1126 l 324 1129 q 436 1101 351 1126 q 540 1076 525 1076 q 582 1107 551 1076 l 611 1133 l 617 1133 l 629 1118 l 629 1113 z "},"ỡ":{"ha":772,"x_min":81,"x_max":711,"o":"m 647 800 q 665 807 657 807 q 695 781 679 807 q 711 722 711 756 q 674 649 711 675 q 579 626 638 624 q 688 349 688 539 q 607 88 688 181 q 379 -6 526 -6 q 158 84 236 -6 q 81 339 81 174 q 161 597 81 507 q 393 688 242 688 q 525 664 460 688 q 590 649 565 649 q 657 667 629 649 q 685 718 685 686 q 646 794 685 756 l 647 800 m 379 21 q 587 106 514 21 q 660 349 660 192 q 590 581 660 501 q 388 660 521 660 q 181 577 253 660 q 110 339 110 494 q 179 103 110 185 q 379 21 249 21 m 579 910 l 507 844 l 499 842 q 386 869 471 844 q 282 894 297 894 q 240 864 271 894 l 211 838 l 206 838 l 193 853 l 193 858 l 265 924 l 274 926 q 386 899 301 924 q 490 874 475 874 q 532 904 501 874 l 561 931 l 567 931 l 579 915 l 579 910 z "},"Ợ":{"ha":875,"x_min":67,"x_max":831,"o":"m 776 1046 q 798 1031 785 1046 q 821 992 811 1017 q 831 938 831 967 q 785 844 831 876 q 669 815 740 813 q 804 451 804 703 q 706 113 804 233 q 429 -7 608 -7 q 160 109 254 -7 q 67 440 67 225 q 164 775 67 658 q 446 892 261 892 q 607 860 521 892 q 686 840 653 840 q 768 865 733 840 q 803 932 803 889 q 756 1032 803 982 l 758 1039 q 776 1046 769 1046 m 440 864 q 184 754 274 864 q 94 439 94 644 q 181 129 94 238 q 429 21 268 21 q 686 134 596 21 q 776 453 776 247 q 690 758 776 653 q 440 864 603 864 m 431 -122 q 458 -150 458 -122 q 431 -178 458 -178 q 403 -150 403 -178 q 431 -122 403 -122 z "},"ợ":{"ha":772,"x_min":81,"x_max":711,"o":"m 647 800 q 665 807 657 807 q 695 781 679 807 q 711 722 711 756 q 674 649 711 675 q 579 626 638 624 q 688 349 688 539 q 607 88 688 181 q 379 -6 526 -6 q 158 84 236 -6 q 81 339 81 174 q 161 597 81 507 q 393 688 242 688 q 525 664 460 688 q 590 649 565 649 q 657 667 629 649 q 685 718 685 686 q 646 794 685 756 l 647 800 m 379 21 q 587 106 514 21 q 660 349 660 192 q 590 581 660 501 q 388 660 521 660 q 181 577 253 660 q 110 339 110 494 q 179 103 110 185 q 379 21 249 21 m 386 -122 q 414 -150 414 -122 q 386 -178 414 -178 q 358 -150 358 -178 q 386 -122 358 -122 z "},"Ụ":{"ha":850,"x_min":119,"x_max":731,"o":"m 731 318 q 654 80 735 165 q 425 -6 574 -6 q 198 78 276 -6 q 119 318 119 161 l 119 885 l 147 885 l 147 318 q 218 99 146 175 q 425 22 290 22 q 631 99 560 22 q 703 318 703 175 l 703 885 l 731 885 l 731 318 m 421 -122 q 449 -150 449 -122 q 421 -178 449 -178 q 393 -150 393 -178 q 421 -122 393 -122 z "},"ụ":{"ha":751,"x_min":125,"x_max":629,"o":"m 629 244 q 565 61 632 126 q 376 -4 499 -4 q 188 60 253 -4 q 125 244 124 125 l 126 344 l 126 682 l 156 682 l 153 246 q 209 80 151 138 q 376 22 267 22 q 544 80 486 22 q 601 246 601 138 l 601 682 l 629 682 l 629 244 m 376 -122 q 404 -150 404 -122 q 376 -178 404 -178 q 349 -150 349 -178 q 376 -122 349 -122 z "},"Ủ":{"ha":850,"x_min":119,"x_max":731,"o":"m 731 318 q 654 80 735 165 q 425 -6 574 -6 q 198 78 276 -6 q 119 318 119 161 l 119 885 l 147 885 l 147 318 q 218 99 146 175 q 425 22 290 22 q 631 99 560 22 q 703 318 703 175 l 703 885 l 731 885 l 731 318 m 433 1197 q 477 1182 460 1197 q 494 1144 494 1167 q 428 1054 494 1104 l 450 1014 l 426 1004 l 396 1061 q 467 1142 467 1108 q 431 1169 467 1169 q 356 1138 394 1169 l 344 1157 q 433 1197 392 1197 z "},"ủ":{"ha":751,"x_min":125,"x_max":629,"o":"m 629 244 q 565 61 632 126 q 376 -4 499 -4 q 188 60 253 -4 q 125 244 124 125 l 126 344 l 126 682 l 156 682 l 153 246 q 209 80 151 138 q 376 22 267 22 q 544 80 486 22 q 601 246 601 138 l 601 682 l 629 682 l 629 244 m 383 994 q 427 979 410 994 q 444 942 444 964 q 378 851 444 901 l 400 811 l 376 801 l 346 858 q 417 939 417 906 q 381 967 417 967 q 306 935 344 967 l 294 954 q 383 994 342 994 z "},"Ứ":{"ha":864,"x_min":119,"x_max":840,"o":"m 731 318 q 654 80 735 165 q 425 -6 574 -6 q 198 78 276 -6 q 119 318 119 161 l 119 885 l 147 885 l 147 318 q 218 99 146 175 q 425 22 290 22 q 631 99 560 22 q 703 318 703 175 l 703 885 l 717 885 q 786 905 760 885 q 813 958 813 925 q 765 1043 813 997 l 768 1050 q 785 1057 779 1057 q 806 1043 793 1057 q 830 1006 819 1029 q 840 958 840 983 q 810 888 840 915 q 731 857 781 861 l 731 318 m 606 1142 l 603 1135 q 361 1006 510 1082 l 354 1010 l 344 1031 q 589 1161 471 1092 l 596 1158 l 606 1142 z "},"ứ":{"ha":763,"x_min":125,"x_max":719,"o":"m 629 244 q 565 61 632 126 q 376 -4 499 -4 q 188 60 253 -4 q 125 244 124 125 l 126 344 l 126 682 l 156 682 l 153 246 q 209 80 151 138 q 376 22 267 22 q 544 80 486 22 q 601 246 601 138 l 601 682 l 615 682 q 672 697 650 682 q 693 738 693 713 q 654 803 693 768 l 657 808 q 674 815 665 815 q 702 792 685 815 q 719 739 719 768 q 695 684 719 706 q 629 658 671 663 l 629 244 m 543 939 l 540 932 q 299 803 447 879 l 292 807 l 282 828 q 526 958 408 889 l 533 956 l 543 939 z "},"Ừ":{"ha":864,"x_min":119,"x_max":840,"o":"m 731 318 q 654 80 735 165 q 425 -6 574 -6 q 198 78 276 -6 q 119 318 119 161 l 119 885 l 147 885 l 147 318 q 218 99 146 175 q 425 22 290 22 q 631 99 560 22 q 703 318 703 175 l 703 885 l 717 885 q 786 905 760 885 q 813 958 813 925 q 765 1043 813 997 l 768 1050 q 785 1057 779 1057 q 806 1043 793 1057 q 830 1006 819 1029 q 840 958 840 983 q 810 888 840 915 q 731 857 781 861 l 731 318 m 299 1144 l 301 1138 q 543 1008 394 1085 l 550 1013 l 560 1033 q 315 1164 433 1094 l 308 1161 l 299 1144 z "},"ừ":{"ha":763,"x_min":125,"x_max":719,"o":"m 482 806 q 240 935 333 882 l 238 942 l 247 958 l 254 961 q 499 831 372 892 l 489 810 l 482 806 m 629 244 q 565 61 632 126 q 376 -4 499 -4 q 188 60 253 -4 q 125 244 124 125 l 126 344 l 126 682 l 156 682 l 153 246 q 209 80 151 138 q 376 22 267 22 q 544 80 486 22 q 601 246 601 138 l 601 682 l 615 682 q 672 697 650 682 q 693 738 693 713 q 654 803 693 768 l 657 808 q 674 815 665 815 q 702 792 685 815 q 719 739 719 768 q 695 684 719 706 q 629 658 671 663 l 629 244 z "},"Ử":{"ha":864,"x_min":119,"x_max":840,"o":"m 731 318 q 654 80 735 165 q 425 -6 574 -6 q 198 78 276 -6 q 119 318 119 161 l 119 885 l 147 885 l 147 318 q 218 99 146 175 q 425 22 290 22 q 631 99 560 22 q 703 318 703 175 l 703 885 l 717 885 q 786 905 760 885 q 813 958 813 925 q 765 1043 813 997 l 768 1050 q 785 1057 779 1057 q 806 1043 793 1057 q 830 1006 819 1029 q 840 958 840 983 q 810 888 840 915 q 731 857 781 861 l 731 318 m 433 1197 q 477 1182 460 1197 q 494 1144 494 1167 q 428 1054 494 1104 l 450 1014 l 426 1004 l 396 1061 q 467 1142 467 1108 q 431 1169 467 1169 q 356 1138 394 1169 l 344 1157 q 433 1197 392 1197 z "},"ử":{"ha":763,"x_min":125,"x_max":719,"o":"m 629 244 q 565 61 632 126 q 376 -4 499 -4 q 188 60 253 -4 q 125 244 124 125 l 126 344 l 126 682 l 156 682 l 153 246 q 209 80 151 138 q 376 22 267 22 q 544 80 486 22 q 601 246 601 138 l 601 682 l 615 682 q 672 697 650 682 q 693 738 693 713 q 654 803 693 768 l 657 808 q 674 815 665 815 q 702 792 685 815 q 719 739 719 768 q 695 684 719 706 q 629 658 671 663 l 629 244 m 371 994 q 415 979 397 994 q 432 942 432 964 q 365 851 432 901 l 388 811 l 364 801 l 333 858 q 404 939 404 906 q 368 967 404 967 q 293 935 332 967 l 282 954 q 371 994 329 994 z "},"Ữ":{"ha":864,"x_min":119,"x_max":840,"o":"m 731 318 q 654 80 735 165 q 425 -6 574 -6 q 198 78 276 -6 q 119 318 119 161 l 119 885 l 147 885 l 147 318 q 218 99 146 175 q 425 22 290 22 q 631 99 560 22 q 703 318 703 175 l 703 885 l 717 885 q 786 905 760 885 q 813 958 813 925 q 765 1043 813 997 l 768 1050 q 785 1057 779 1057 q 806 1043 793 1057 q 830 1006 819 1029 q 840 958 840 983 q 810 888 840 915 q 731 857 781 861 l 731 318 m 624 1113 l 551 1047 l 543 1044 q 431 1072 515 1047 q 326 1097 342 1097 q 285 1067 315 1097 l 256 1040 l 250 1040 l 238 1056 l 238 1061 l 310 1126 l 318 1129 q 431 1101 346 1126 q 535 1076 519 1076 q 576 1107 546 1076 l 606 1133 l 611 1133 l 624 1118 l 624 1113 z "},"ữ":{"ha":763,"x_min":125,"x_max":719,"o":"m 629 244 q 565 61 632 126 q 376 -4 499 -4 q 188 60 253 -4 q 125 244 124 125 l 126 344 l 126 682 l 156 682 l 153 246 q 209 80 151 138 q 376 22 267 22 q 544 80 486 22 q 601 246 601 138 l 601 682 l 615 682 q 672 697 650 682 q 693 738 693 713 q 654 803 693 768 l 657 808 q 674 815 665 815 q 702 792 685 815 q 719 739 719 768 q 695 684 719 706 q 629 658 671 663 l 629 244 m 561 910 l 489 844 l 481 842 q 368 869 453 844 q 264 894 279 894 q 222 864 253 894 l 193 838 l 188 838 l 175 853 l 175 858 l 247 924 l 256 926 q 368 899 283 924 q 472 874 457 874 q 514 904 483 874 l 543 931 l 549 931 l 561 915 l 561 910 z "},"Ự":{"ha":864,"x_min":119,"x_max":840,"o":"m 731 318 q 654 80 735 165 q 425 -6 574 -6 q 198 78 276 -6 q 119 318 119 161 l 119 885 l 147 885 l 147 318 q 218 99 146 175 q 425 22 290 22 q 631 99 560 22 q 703 318 703 175 l 703 885 l 717 885 q 786 905 760 885 q 813 958 813 925 q 765 1043 813 997 l 768 1050 q 785 1057 779 1057 q 806 1043 793 1057 q 830 1006 819 1029 q 840 958 840 983 q 810 888 840 915 q 731 857 781 861 l 731 318 m 425 -122 q 453 -150 453 -122 q 425 -178 453 -178 q 397 -150 397 -178 q 425 -122 397 -122 z "},"ự":{"ha":763,"x_min":125,"x_max":719,"o":"m 629 244 q 565 61 632 126 q 376 -4 499 -4 q 188 60 253 -4 q 125 244 124 125 l 126 344 l 126 682 l 156 682 l 153 246 q 209 80 151 138 q 376 22 267 22 q 544 80 486 22 q 601 246 601 138 l 601 682 l 615 682 q 672 697 650 682 q 693 738 693 713 q 654 803 693 768 l 657 808 q 674 815 665 815 q 702 792 685 815 q 719 739 719 768 q 695 684 719 706 q 629 658 671 663 l 629 244 m 379 -122 q 407 -150 407 -122 q 379 -178 407 -178 q 351 -150 351 -178 q 379 -122 351 -122 z "},"Ỳ":{"ha":688,"x_min":36,"x_max":647,"o":"m 444 1008 q 203 1138 296 1085 l 200 1144 l 210 1161 l 217 1164 q 461 1033 335 1094 l 451 1013 l 444 1008 m 344 0 l 317 0 l 317 342 l 36 885 l 72 885 l 88 849 l 328 385 l 335 385 l 596 849 l 611 885 l 647 885 l 344 340 l 344 0 z "},"ỳ":{"ha":621,"x_min":56,"x_max":563,"o":"m 404 774 q 204 961 300 865 l 203 968 l 217 982 l 224 983 q 426 793 331 874 l 411 775 l 404 774 m 314 0 l 286 0 l 286 260 l 56 682 l 90 682 l 103 653 l 297 301 l 303 301 l 514 653 l 528 682 l 563 682 l 314 258 l 314 0 z "},"Ỵ":{"ha":688,"x_min":36,"x_max":647,"o":"m 36 885 l 72 885 l 88 849 l 328 385 l 335 385 l 596 849 l 611 885 l 647 885 l 344 340 l 344 0 l 317 0 l 317 342 l 36 885 m 331 -122 q 358 -150 358 -122 q 331 -178 358 -178 q 303 -150 303 -178 q 331 -122 303 -122 z "},"ỵ":{"ha":621,"x_min":56,"x_max":563,"o":"m 56 682 l 90 682 l 103 653 l 297 301 l 303 301 l 514 653 l 528 682 l 563 682 l 314 258 l 314 0 l 286 0 l 286 260 l 56 682 m 299 -122 q 326 -150 326 -122 q 299 -178 326 -178 q 271 -150 271 -178 q 299 -122 271 -122 z "},"Ỷ":{"ha":688,"x_min":36,"x_max":647,"o":"m 344 0 l 317 0 l 317 342 l 36 885 l 72 885 l 88 849 l 328 385 l 335 385 l 596 849 l 611 885 l 647 885 l 344 340 l 344 0 m 335 1197 q 378 1182 361 1197 q 396 1144 396 1167 q 329 1054 396 1104 l 351 1014 l 328 1004 l 297 1061 q 368 1142 368 1108 q 332 1169 368 1169 q 257 1138 296 1169 l 246 1157 q 335 1197 293 1197 z "},"ỷ":{"ha":621,"x_min":56,"x_max":563,"o":"m 314 0 l 286 0 l 286 260 l 56 682 l 90 682 l 103 653 l 297 301 l 303 301 l 514 653 l 528 682 l 563 682 l 314 258 l 314 0 m 317 994 q 360 979 343 994 q 378 942 378 964 q 311 851 378 901 l 333 811 l 310 801 l 279 858 q 350 939 350 906 q 314 967 350 967 q 239 935 278 967 l 228 954 q 317 994 275 994 z "},"Ỹ":{"ha":688,"x_min":36,"x_max":647,"o":"m 344 0 l 317 0 l 317 342 l 36 885 l 72 885 l 88 849 l 328 385 l 335 385 l 596 849 l 611 885 l 647 885 l 344 340 l 344 0 m 525 1113 l 453 1047 l 444 1044 q 332 1072 417 1047 q 228 1097 243 1097 q 186 1067 217 1097 l 157 1040 l 151 1040 l 139 1056 l 139 1061 l 211 1126 l 219 1129 q 332 1101 247 1126 q 436 1076 421 1076 q 478 1107 447 1076 l 507 1133 l 513 1133 l 525 1118 l 525 1113 z "},"ỹ":{"ha":621,"x_min":56,"x_max":563,"o":"m 314 0 l 286 0 l 286 260 l 56 682 l 90 682 l 103 653 l 297 301 l 303 301 l 514 653 l 528 682 l 563 682 l 314 258 l 314 0 m 507 910 l 435 844 l 426 842 q 314 869 399 844 q 210 894 225 894 q 168 864 199 894 l 139 838 l 133 838 l 121 853 l 121 858 l 193 924 l 201 926 q 314 899 229 924 q 418 874 403 874 q 460 904 429 874 l 489 931 l 494 931 l 507 915 l 507 910 z "},"–":{"ha":683,"x_min":-21,"x_max":704,"o":"m 701 339 l -17 339 l -21 343 l -18 367 l 700 367 l 704 363 l 701 339 z "},"—":{"ha":1350,"x_min":-21,"x_max":1371,"o":"m 1368 339 l -17 339 l -21 343 l -18 367 l 1367 367 l 1371 363 l 1368 339 z "},"‘":{"ha":172,"x_min":44,"x_max":136,"o":"m 114 665 q 44 742 44 682 q 118 883 44 806 l 136 868 l 136 863 q 75 747 75 797 q 128 693 75 706 l 128 688 q 114 665 126 683 z "},"’":{"ha":172,"x_min":42,"x_max":133,"o":"m 64 881 q 133 804 133 864 q 60 663 133 740 l 42 678 l 42 683 q 103 799 103 749 q 50 853 103 840 l 50 858 q 64 881 51 863 z "},"‚":{"ha":319,"x_min":96,"x_max":201,"o":"m 149 57 q 201 -10 201 33 q 110 -139 201 -68 l 96 -124 l 97 -119 q 172 -11 172 -64 q 131 36 172 17 l 131 42 q 149 57 138 51 z "},"“":{"ha":286,"x_min":32,"x_max":256,"o":"m 233 665 q 164 742 164 682 q 238 883 164 806 l 256 868 l 256 863 q 194 747 194 797 q 247 693 194 706 l 247 688 q 233 665 246 683 m 101 665 q 32 742 32 682 q 106 883 32 806 l 124 868 l 124 863 q 63 747 63 797 q 115 693 63 706 l 115 688 q 101 665 114 683 z "},"”":{"ha":304,"x_min":36,"x_max":260,"o":"m 190 881 q 260 804 260 864 q 186 663 260 740 l 168 678 l 168 683 q 229 799 229 749 q 176 853 229 840 l 176 858 q 190 881 178 863 m 58 881 q 128 804 128 864 q 54 663 128 740 l 36 678 l 36 683 q 97 799 97 749 q 44 853 97 840 l 44 858 q 58 881 46 863 z "},"„":{"ha":451,"x_min":96,"x_max":333,"o":"m 281 57 q 333 -10 333 33 q 242 -139 333 -68 l 228 -124 l 229 -119 q 304 -11 304 -64 q 263 36 304 17 l 263 42 q 281 57 269 51 m 149 57 q 201 -10 201 33 q 110 -139 201 -68 l 96 -124 l 97 -119 q 172 -11 172 -64 q 131 36 172 17 l 131 42 q 149 57 138 51 z "},"†":{"ha":640,"x_min":63,"x_max":579,"o":"m 335 519 l 335 -131 l 311 -131 l 307 -125 l 307 519 l 67 519 l 63 524 l 65 547 l 307 547 l 307 814 l 332 817 l 335 814 l 335 547 l 575 547 l 579 543 l 576 519 l 335 519 z "},"‡":{"ha":640,"x_min":63,"x_max":579,"o":"m 579 163 l 576 139 l 335 139 l 335 -131 l 311 -131 l 307 -125 l 307 139 l 67 139 l 63 143 l 65 167 l 307 167 l 307 519 l 67 519 l 63 524 l 65 547 l 307 547 l 307 814 l 332 817 l 335 814 l 335 547 l 575 547 l 579 543 l 576 519 l 335 519 l 335 167 l 575 167 l 579 163 z "},"•":{"ha":321,"x_min":132,"x_max":188,"o":"m 160 358 q 188 331 188 358 q 160 303 188 303 q 132 331 132 303 q 160 358 132 358 z "},"․":{"ha":319,"x_min":132,"x_max":188,"o":"m 160 53 q 188 25 188 53 q 160 -3 188 -3 q 132 25 132 -3 q 160 53 132 53 z "},"‥":{"ha":528,"x_min":126,"x_max":390,"o":"m 363 53 q 390 25 390 53 q 363 -3 390 -3 q 335 25 335 -3 q 363 53 335 53 m 154 53 q 182 25 182 53 q 154 -3 182 -3 q 126 25 126 -3 q 154 53 126 53 z "},"…":{"ha":736,"x_min":126,"x_max":599,"o":"m 363 53 q 390 25 390 53 q 363 -3 390 -3 q 335 25 335 -3 q 363 53 335 53 m 571 53 q 599 25 599 53 q 571 -3 599 -3 q 543 25 543 -3 q 571 53 543 53 m 154 53 q 182 25 182 53 q 154 -3 182 -3 q 126 25 126 -3 q 154 53 126 53 z "},"‰":{"ha":1618,"x_min":69,"x_max":1549,"o":"m 869 911 l 196 -125 l 183 -119 l 178 -107 l 851 929 l 865 922 l 869 911 m 261 886 q 400 825 351 886 q 449 650 449 764 q 399 473 449 535 q 258 411 350 411 q 118 472 167 411 q 69 647 69 533 q 119 824 69 763 q 261 886 168 886 m 258 860 q 137 806 179 860 q 94 650 94 751 q 138 492 94 547 q 261 438 181 438 q 381 492 339 438 q 424 647 424 546 q 381 805 424 750 q 258 860 339 860 m 843 471 q 982 410 933 471 q 1031 235 1031 349 q 981 58 1031 119 q 840 -4 932 -4 q 700 57 749 -4 q 651 232 651 118 q 701 409 651 347 q 843 471 750 471 m 1361 471 q 1500 410 1451 471 q 1549 235 1549 349 q 1499 58 1549 119 q 1358 -4 1450 -4 q 1218 57 1267 -4 q 1169 232 1169 118 q 1219 409 1169 347 q 1361 471 1268 471 m 840 444 q 719 390 761 444 q 676 235 676 336 q 719 77 676 132 q 843 22 763 22 q 963 76 921 22 q 1006 232 1006 131 q 963 390 1006 335 q 840 444 921 444 m 1358 444 q 1237 390 1279 444 q 1194 235 1194 336 q 1238 77 1194 132 q 1361 22 1281 22 q 1481 76 1439 22 q 1524 232 1524 131 q 1481 390 1524 335 q 1358 444 1439 444 z "},"′":{"ha":174,"x_min":65,"x_max":110,"o":"m 93 676 l 69 674 l 65 679 l 82 879 l 106 882 l 110 876 l 93 676 z "},"″":{"ha":296,"x_min":65,"x_max":232,"o":"m 215 676 l 192 674 l 188 679 l 204 879 l 228 882 l 232 876 l 215 676 m 93 676 l 69 674 l 65 679 l 82 879 l 106 882 l 110 876 l 93 676 z "},"‹":{"ha":297,"x_min":42,"x_max":274,"o":"m 42 317 l 257 550 l 274 538 l 274 529 l 72 310 l 274 90 l 274 82 l 257 69 l 42 301 l 42 317 z "},"›":{"ha":290,"x_min":29,"x_max":261,"o":"m 261 303 l 46 69 l 29 82 l 29 90 l 231 310 l 29 529 l 29 538 l 46 550 l 261 318 l 261 303 z "},"⁄":{"ha":64,"x_min":-340,"x_max":351,"o":"m 351 911 l -322 -125 l -335 -119 l -340 -107 l 333 929 l 347 922 l 351 911 z "},"⁰":{"ha":518,"x_min":69,"x_max":449,"o":"m 261 974 q 400 907 351 974 q 449 717 449 840 q 400 523 449 590 q 258 456 351 456 q 118 522 167 456 q 69 714 69 589 q 119 906 69 839 q 261 974 168 974 m 258 946 q 137 887 179 946 q 94 717 94 828 q 138 543 94 603 q 261 483 181 483 q 381 543 339 483 q 424 714 424 603 q 381 886 424 826 q 258 946 339 946 z "},"⁴":{"ha":465,"x_min":42,"x_max":410,"o":"m 406 624 l 336 625 l 310 625 l 311 463 l 308 460 l 286 457 l 283 460 l 283 625 l 89 625 l 46 624 l 42 628 l 42 649 l 283 972 l 310 972 l 310 650 l 406 650 l 410 646 l 406 624 m 283 928 l 279 928 l 72 650 l 283 650 l 283 928 z "},"⁵":{"ha":400,"x_min":50,"x_max":340,"o":"m 338 947 l 333 944 l 292 947 l 117 947 l 111 776 l 172 763 q 338 622 338 728 q 279 501 338 547 q 125 456 221 456 q 54 463 96 456 l 50 485 l 53 488 q 126 481 99 481 q 259 519 208 481 q 310 622 310 558 q 274 693 310 665 q 161 738 238 721 l 90 753 l 86 758 l 92 965 l 100 974 l 146 972 l 274 972 l 338 974 l 340 971 l 338 947 z "},"⁶":{"ha":449,"x_min":63,"x_max":388,"o":"m 242 756 q 349 719 311 756 q 388 614 388 682 q 344 496 388 538 q 221 454 301 454 q 103 503 144 454 q 63 640 63 551 q 135 844 63 757 q 340 978 207 932 l 344 978 l 360 964 l 360 960 q 97 707 133 882 l 99 706 q 242 756 167 756 m 222 478 q 324 513 289 478 q 360 613 360 547 q 328 700 360 669 q 238 731 296 731 q 92 676 160 731 q 90 642 90 665 q 124 520 90 563 q 222 478 158 478 z "},"⁷":{"ha":400,"x_min":39,"x_max":357,"o":"m 322 972 l 356 974 l 357 950 l 158 532 l 124 451 l 99 458 l 97 464 l 326 946 l 99 946 l 43 944 l 39 950 l 42 974 l 106 972 l 322 972 z "},"⁸":{"ha":444,"x_min":58,"x_max":378,"o":"m 228 975 q 324 944 289 975 q 358 858 358 914 q 247 729 358 771 l 247 726 q 344 674 311 701 q 378 593 378 647 q 333 493 378 531 q 214 456 288 456 q 101 492 143 456 q 58 586 58 528 q 186 725 58 679 l 186 728 q 111 775 139 747 q 83 850 83 803 q 123 942 83 908 q 228 975 163 975 m 226 951 q 142 924 174 951 q 110 850 110 896 q 138 783 110 807 q 218 739 165 760 q 333 857 333 775 q 304 926 333 900 q 226 951 275 951 m 214 714 q 120 665 156 693 q 85 586 85 638 q 119 509 85 538 q 214 481 154 481 q 314 510 276 481 q 351 590 351 540 q 333 647 351 625 q 289 682 314 669 q 214 714 264 694 z "},"⁹":{"ha":449,"x_min":67,"x_max":390,"o":"m 232 979 q 349 931 308 979 q 390 793 390 882 q 318 589 390 676 q 113 456 246 501 l 108 456 l 94 469 l 94 475 q 357 725 318 550 l 354 728 q 211 678 289 678 q 105 715 143 678 q 67 821 67 753 q 110 938 67 896 q 232 979 153 979 m 215 703 q 363 760 292 703 q 364 793 364 771 q 330 914 364 872 q 232 956 296 956 q 129 921 165 956 q 93 822 93 886 q 125 733 93 764 q 215 703 157 703 z "},"₣":{"ha":521,"x_min":44,"x_max":496,"o":"m 172 356 l 432 356 l 435 350 l 431 328 l 172 328 l 172 210 l 172 189 l 338 189 l 342 185 l 339 161 l 172 161 l 174 0 l 144 0 l 144 161 l 49 161 l 44 165 l 47 189 l 144 189 l 144 682 l 492 682 l 496 676 l 490 654 l 174 654 l 172 356 z "},"€":{"ha":699,"x_min":31,"x_max":631,"o":"m 419 22 q 619 92 531 22 l 628 89 l 625 64 q 419 -6 529 -6 q 239 55 308 -6 q 147 228 169 115 l 35 228 l 31 232 l 33 256 l 143 256 q 139 335 139 293 q 142 399 139 357 l 35 399 l 31 403 l 33 426 l 144 426 q 239 619 164 553 q 438 686 314 686 q 631 625 546 686 l 622 600 l 614 600 q 436 658 539 658 q 175 426 214 658 l 476 426 l 481 422 l 478 399 l 171 399 q 168 335 168 360 q 174 256 168 289 l 476 256 l 481 251 l 478 228 l 179 228 q 260 75 199 128 q 419 22 322 22 z "},"ℓ":{"ha":507,"x_min":149,"x_max":475,"o":"m 471 0 l 149 0 l 149 682 l 176 682 l 176 26 l 472 26 l 475 22 l 471 0 z "},"™":{"ha":797,"x_min":43,"x_max":711,"o":"m 282 882 l 279 861 l 221 863 l 176 863 l 175 663 l 176 563 l 150 563 l 150 863 l 106 863 l 46 861 l 43 864 l 46 885 l 279 885 l 282 882 m 688 563 l 676 661 l 656 838 l 651 838 l 544 601 l 519 601 l 415 838 l 413 838 l 390 664 l 381 563 l 356 563 l 393 885 l 426 885 l 446 836 l 532 639 l 533 639 l 626 839 l 644 885 l 676 885 l 711 563 l 688 563 z "},"Ω":{"ha":1018,"x_min":71,"x_max":947,"o":"m 513 892 q 783 785 689 892 q 878 482 878 679 q 822 221 878 338 q 660 32 765 104 l 660 28 l 835 28 l 943 29 l 947 24 l 942 -1 l 828 0 l 658 0 l 603 -1 l 600 1 l 600 24 q 785 215 721 96 q 850 482 850 333 q 763 765 850 667 q 513 864 675 864 q 258 764 347 864 q 168 479 168 664 q 233 213 168 331 q 418 24 297 94 l 418 1 l 415 -1 l 360 0 l 183 0 l 75 -1 l 71 4 l 76 29 l 190 28 l 358 28 l 358 32 q 197 219 253 104 q 140 479 140 335 q 237 785 140 678 q 513 892 333 892 z "},"℮":{"ha":1096,"x_min":54,"x_max":1069,"o":"m 563 900 q 817 839 700 900 q 1001 673 933 778 q 1069 443 1069 568 l 1069 436 l 244 436 q 233 426 233 436 l 233 175 q 247 143 233 160 q 390 50 307 85 q 564 15 472 15 q 758 54 667 15 q 917 158 850 93 l 958 158 q 785 33 889 79 q 563 -12 681 -12 q 308 49 425 -12 q 122 215 190 110 q 54 443 54 319 q 122 673 54 568 q 308 839 190 778 q 563 900 425 900 m 564 872 q 390 839 471 872 q 249 746 308 806 q 233 711 233 731 l 233 475 q 244 464 233 464 l 881 464 q 892 475 892 464 l 892 717 q 876 750 892 735 q 735 840 817 808 q 564 872 654 872 z "},"⅛":{"ha":890,"x_min":22,"x_max":824,"o":"m 733 911 l 60 -125 l 47 -119 l 42 -107 l 715 929 l 729 922 l 733 911 m 192 372 l 164 372 l 164 856 l 28 818 l 22 821 l 22 843 l 188 892 l 192 886 l 192 372 m 674 515 q 769 485 735 515 q 804 399 804 454 q 693 269 804 311 l 693 267 q 790 215 757 242 q 824 133 824 188 q 778 33 824 71 q 660 -4 733 -4 q 547 32 589 -4 q 504 126 504 68 q 632 265 504 219 l 632 268 q 557 315 585 288 q 529 390 529 343 q 569 482 529 449 q 674 515 608 515 m 672 492 q 588 464 619 492 q 556 390 556 436 q 583 324 556 347 q 664 279 611 300 q 779 397 779 315 q 750 466 779 440 q 672 492 721 492 m 660 254 q 566 206 601 233 q 531 126 531 178 q 565 49 531 78 q 660 21 600 21 q 760 51 722 21 q 797 131 797 81 q 778 188 797 165 q 735 222 760 210 q 660 254 710 235 z "},"⅜":{"ha":936,"x_min":49,"x_max":869,"o":"m 779 911 l 106 -125 l 93 -119 l 88 -107 l 761 929 l 775 922 l 779 911 m 181 889 q 271 860 236 889 q 306 783 306 831 q 279 708 306 744 q 208 653 253 672 l 208 650 q 300 604 268 638 q 332 521 332 571 q 278 412 332 454 q 138 369 224 369 q 54 378 94 369 l 51 400 l 54 403 q 138 396 99 396 q 258 430 213 396 q 304 521 304 464 q 265 602 304 572 q 153 635 226 632 l 107 635 l 104 638 l 106 658 l 146 658 q 204 674 174 658 q 256 718 235 690 q 276 779 276 746 q 249 840 276 817 q 178 863 222 863 q 58 808 119 863 l 54 808 l 49 832 q 181 889 111 889 m 719 515 q 815 485 781 515 q 850 399 850 454 q 739 269 850 311 l 739 267 q 836 215 803 242 q 869 133 869 188 q 824 33 869 71 q 706 -4 779 -4 q 592 32 635 -4 q 550 126 550 68 q 678 265 550 219 l 678 268 q 603 315 631 288 q 575 390 575 343 q 615 482 575 449 q 719 515 654 515 m 718 492 q 633 464 665 492 q 601 390 601 436 q 629 324 601 347 q 710 279 657 300 q 825 397 825 315 q 796 466 825 440 q 718 492 767 492 m 706 254 q 612 206 647 233 q 576 126 576 178 q 611 49 576 78 q 706 21 646 21 q 806 51 768 21 q 843 131 843 81 q 824 188 843 165 q 781 222 806 210 q 706 254 756 235 z "},"⅝":{"ha":915,"x_min":50,"x_max":849,"o":"m 758 911 l 85 -125 l 72 -119 l 67 -107 l 740 929 l 754 922 l 758 911 m 338 860 l 333 857 l 292 860 l 117 860 l 111 689 l 172 675 q 338 535 338 640 q 279 414 338 460 q 125 368 221 368 q 54 375 96 368 l 50 397 l 53 400 q 126 393 99 393 q 259 432 208 393 q 310 535 310 471 q 274 606 310 578 q 161 650 238 633 l 90 665 l 86 671 l 92 878 l 100 886 l 146 885 l 274 885 l 338 886 l 340 883 l 338 860 m 699 515 q 794 485 760 515 q 829 399 829 454 q 718 269 829 311 l 718 267 q 815 215 782 242 q 849 133 849 188 q 803 33 849 71 q 685 -4 758 -4 q 572 32 614 -4 q 529 126 529 68 q 657 265 529 219 l 657 268 q 582 315 610 288 q 554 390 554 343 q 594 482 554 449 q 699 515 633 515 m 697 492 q 613 464 644 492 q 581 390 581 436 q 608 324 581 347 q 689 279 636 300 q 804 397 804 315 q 775 466 804 440 q 697 492 746 492 m 685 254 q 591 206 626 233 q 556 126 556 178 q 590 49 556 78 q 685 21 625 21 q 785 51 747 21 q 822 131 822 81 q 803 188 822 165 q 760 222 785 210 q 685 254 735 235 z "},"⅞":{"ha":888,"x_min":39,"x_max":821,"o":"m 731 911 l 57 -125 l 44 -119 l 39 -107 l 713 929 l 726 922 l 731 911 m 322 885 l 356 886 l 357 863 l 158 444 l 124 364 l 99 371 l 97 376 l 326 858 l 99 858 l 43 857 l 39 863 l 42 886 l 106 885 l 322 885 m 671 515 q 767 485 732 515 q 801 399 801 454 q 690 269 801 311 l 690 267 q 788 215 754 242 q 821 133 821 188 q 776 33 821 71 q 657 -4 731 -4 q 544 32 586 -4 q 501 126 501 68 q 629 265 501 219 l 629 268 q 554 315 582 288 q 526 390 526 343 q 566 482 526 449 q 671 515 606 515 m 669 492 q 585 464 617 492 q 553 390 553 436 q 581 324 553 347 q 661 279 608 300 q 776 397 776 315 q 747 466 776 440 q 669 492 718 492 m 657 254 q 563 206 599 233 q 528 126 528 178 q 563 49 528 78 q 657 21 597 21 q 757 51 719 21 q 794 131 794 81 q 776 188 794 165 q 732 222 757 210 q 657 254 707 235 z "},"←":{"ha":694,"x_min":29,"x_max":660,"o":"m 29 1010 l 29 1004 l -235 738 l -254 749 l -254 757 l -22 993 l -599 993 l -601 996 l -599 1021 l -22 1021 l -254 1257 l -254 1265 l -235 1276 l 29 1010 z "},"↑":{"ha":694,"x_min":75,"x_max":614,"o":"m 342 632 l 347 632 l 614 368 l 603 349 l 594 349 l 358 581 l 358 4 l 356 1 l 331 4 l 331 581 l 94 349 l 86 349 l 75 368 l 342 632 z "},"→":{"ha":694,"x_min":31,"x_max":661,"o":"m 661 -378 l 661 -372 l 925 -106 l 944 -117 l 944 -125 l 713 -361 l 1289 -361 l 1292 -364 l 1289 -389 l 713 -389 l 944 -625 l 944 -633 l 925 -644 l 661 -378 z "},"↓":{"ha":694,"x_min":76,"x_max":615,"o":"m 349 0 l 343 0 l 76 264 l 88 283 l 96 283 l 332 51 l 332 628 l 335 631 l 360 628 l 360 51 l 596 283 l 604 283 l 615 264 l 349 0 z "},"↖":{"ha":694,"x_min":146,"x_max":604,"o":"m 148 1030 l 152 1026 l 154 651 l 132 645 l 126 651 l 123 982 l -284 574 l -288 574 l -304 594 l 104 1001 l -227 1004 l -233 1010 l -227 1032 l 148 1030 z "},"↗":{"ha":694,"x_min":89,"x_max":547,"o":"m 541 48 l 545 52 l 920 54 l 926 32 l 920 26 l 589 23 l 997 -384 l 997 -388 l 977 -404 l 570 4 l 567 -327 l 561 -333 l 539 -327 l 541 48 z "},"↘":{"ha":694,"x_min":86,"x_max":544,"o":"m 542 -399 l 538 -395 l 536 -20 l 558 -14 l 564 -20 l 567 -351 l 974 56 l 978 56 l 994 37 l 586 -371 l 917 -374 l 923 -380 l 917 -401 l 542 -399 z "},"↙":{"ha":694,"x_min":144,"x_max":603,"o":"m 151 584 l 147 580 l -228 578 l -234 600 l -228 606 l 103 609 l -305 1016 l -305 1020 l -285 1036 l 122 628 l 125 959 l 131 965 l 153 959 l 151 584 z "},"∂":{"ha":699,"x_min":65,"x_max":617,"o":"m 128 992 q 490 740 364 903 q 617 351 617 578 q 543 85 617 178 q 333 -8 469 -8 q 134 66 203 -8 q 65 279 65 140 q 138 494 65 419 q 344 569 210 569 q 576 478 464 563 l 579 479 q 428 774 547 649 q 111 972 308 899 l 111 982 l 119 992 l 128 992 m 333 21 q 524 107 458 21 q 590 351 590 193 q 586 433 590 394 q 336 540 461 540 q 156 473 218 540 q 93 279 93 406 q 155 88 93 154 q 333 21 217 21 z "},"∆":{"ha":769,"x_min":26,"x_max":731,"o":"m 26 0 l 379 885 l 407 885 l 731 0 l 26 0 m 65 28 l 692 28 l 396 838 l 389 838 l 65 28 z "},"∏":{"ha":879,"x_min":90,"x_max":789,"o":"m 724 857 l 724 0 l 696 0 l 696 857 l 190 857 l 190 0 l 163 0 l 163 857 l 94 857 l 90 863 l 96 885 l 785 885 l 789 879 l 783 857 l 724 857 z "},"∑":{"ha":636,"x_min":49,"x_max":621,"o":"m 617 856 l 531 857 l 92 857 l 385 454 l 385 444 l 85 28 l 508 28 l 604 29 l 610 22 l 606 0 l 49 0 l 49 25 l 353 450 l 56 860 l 56 885 l 531 885 l 615 886 l 621 879 l 617 856 z "},"−":{"ha":667,"x_min":54,"x_max":613,"o":"m 610 361 l 58 361 l 54 365 l 57 389 l 608 389 l 613 385 l 610 361 z "},"∕":{"ha":404,"x_min":65,"x_max":375,"o":"m 92 -153 l 69 -153 l 65 -147 l 349 938 l 371 938 l 375 931 l 92 -153 z "},"∙":{"ha":321,"x_min":132,"x_max":188,"o":"m 160 358 q 188 331 188 358 q 160 303 188 303 q 132 331 132 303 q 160 358 132 358 z "},"√":{"ha":721,"x_min":-26,"x_max":729,"o":"m 306 0 l 100 600 l -22 600 l -26 604 l -24 628 l 117 628 l 124 622 l 319 43 l 325 43 l 699 982 l 704 986 l 729 986 l 336 0 l 306 0 z "},"∞":{"ha":667,"x_min":-1,"x_max":668,"o":"m 510 544 q 626 495 583 544 q 668 368 668 446 q 626 244 668 290 q 513 199 583 199 q 407 237 447 199 q 333 346 367 275 q 261 237 301 275 q 157 199 221 199 q 42 247 85 199 q -1 374 -1 294 q 41 499 -1 453 q 157 544 83 544 q 335 410 271 544 q 510 544 393 544 m 158 518 q 60 479 96 518 q 25 374 25 440 q 60 266 25 307 q 156 225 96 225 q 251 265 215 225 q 319 375 288 304 q 256 481 292 443 q 158 518 221 518 m 508 518 q 410 480 446 518 q 347 375 375 442 q 417 263 381 301 q 514 225 453 225 q 607 263 572 225 q 642 368 642 300 q 606 476 642 435 q 508 518 571 518 z "},"∫":{"ha":342,"x_min":54,"x_max":400,"o":"m 313 992 q 400 981 358 992 l 397 954 l 393 951 q 318 964 360 964 q 178 804 181 964 l 176 71 q 156 -74 176 -21 q 72 -193 135 -126 l 54 -179 l 54 -172 q 131 -60 111 -108 q 150 68 150 -11 l 150 804 q 191 943 149 894 q 313 992 233 992 z "},"≈":{"ha":667,"x_min":119,"x_max":589,"o":"m 225 493 q 164 453 211 493 l 138 429 l 129 429 l 119 442 l 119 449 l 208 522 l 217 526 q 346 496 233 524 q 483 464 456 464 q 508 474 494 464 q 542 502 522 485 q 571 528 561 519 l 579 528 l 589 514 l 589 508 l 499 433 l 490 431 q 350 464 458 433 q 225 493 249 493 m 225 293 q 164 253 211 293 l 138 229 l 129 229 l 119 242 l 119 249 l 208 322 l 217 326 q 346 296 233 324 q 483 264 456 264 q 508 274 494 264 q 542 302 522 285 q 571 328 561 319 l 579 328 l 589 314 l 589 308 l 499 233 l 490 231 q 350 264 458 233 q 225 293 249 293 z "},"≠":{"ha":667,"x_min":54,"x_max":613,"o":"m 613 285 l 610 261 l 304 261 l 253 46 l 229 46 l 225 50 l 276 261 l 58 261 l 54 265 l 57 289 l 283 289 l 324 461 l 58 461 l 54 465 l 57 489 l 331 489 l 379 689 l 403 689 l 407 683 l 360 489 l 608 489 l 613 485 l 610 461 l 353 461 l 311 289 l 608 289 l 613 285 z "},"≤":{"ha":667,"x_min":54,"x_max":613,"o":"m 606 606 l 92 378 l 92 372 l 611 160 l 603 139 l 597 136 l 56 358 l 56 389 l 60 394 l 600 632 l 610 613 l 606 606 m 610 -90 l 58 -90 l 54 -86 l 57 -62 l 608 -62 l 613 -67 l 610 -90 z "},"≥":{"ha":667,"x_min":54,"x_max":613,"o":"m 611 389 l 611 358 l 69 136 l 64 139 l 56 160 l 575 372 l 575 378 l 61 606 l 57 613 l 67 632 l 607 394 l 611 389 m 610 -90 l 58 -90 l 54 -86 l 57 -62 l 608 -62 l 613 -67 l 610 -90 z "},"◊":{"ha":667,"x_min":88,"x_max":561,"o":"m 561 401 l 561 382 l 338 -106 l 317 -106 l 314 -103 l 88 382 l 88 401 l 311 889 l 332 889 l 335 886 l 561 401 m 114 392 l 324 -60 l 329 -60 l 535 392 l 325 842 l 319 842 l 114 392 z "},"":{"ha":542,"x_min":135,"x_max":411,"o":"m 411 1000 l 407 993 q 147 908 296 953 l 140 914 l 135 936 q 399 1022 264 972 l 404 1018 l 411 1000 m 172 826 q 200 799 200 826 q 172 771 200 771 q 144 799 144 771 q 172 826 144 826 m 367 826 q 394 799 394 826 q 367 771 394 771 q 339 799 339 771 q 367 826 339 826 z "},"":{"ha":542,"x_min":135,"x_max":411,"o":"m 147 1022 q 411 936 282 972 l 406 914 l 399 908 q 139 993 250 953 l 135 1000 l 142 1018 l 147 1022 m 172 826 q 200 799 200 826 q 172 771 200 771 q 144 799 144 771 q 172 826 144 826 m 367 826 q 394 799 394 826 q 367 771 394 771 q 339 799 339 771 q 367 826 339 826 z "}}}
